<?xml version="1.0" encoding="utf-8"?>
<!-- Generator: Adobe Illustrator 24.0.3, SVG Export Plug-In . SVG Version: 6.00 Build 0)  -->
<svg version="1.1" id="Layer_1" xmlns="http://www.w3.org/2000/svg" xmlns:xlink="http://www.w3.org/1999/xlink" x="0px" y="0px"
	 viewBox="0 0 336 315" style="enable-background:new 0 0 336 315;" xml:space="preserve">
<style type="text/css">
	.st0{fill:#F1F2F2;}
	.st1{fill:#C5403F;}
	.st2{fill:#7FD3F4;}
	.st3{fill:#172C59;}
	.st4{clip-path:url(#SVGID_2_);fill:#EA8088;}
	.st5{clip-path:url(#SVGID_4_);fill:#EA8088;}
	.st6{clip-path:url(#SVGID_6_);fill:#EA8088;}
	.st7{clip-path:url(#SVGID_8_);fill:#EA8088;}
	.st8{clip-path:url(#SVGID_10_);fill:#EA8088;}
	.st9{fill:#FFFFFF;}
	.st10{fill:#3CC5F0;}
	.st11{clip-path:url(#SVGID_12_);fill:#7FD3F4;}
	.st12{clip-path:url(#SVGID_14_);fill:#D1D3D4;}
	.st13{clip-path:url(#SVGID_16_);fill:#D1D3D4;}
	.st14{clip-path:url(#SVGID_18_);fill:#D1D3D4;}
	.st15{clip-path:url(#SVGID_20_);fill:#D1D3D4;}
	.st16{fill:#D1D3D4;}
	.st17{fill:none;}
	.st18{fill:#EA8088;}
	.st19{fill:#F7941D;}
</style>
<path class="st0" d="M199,61.9c-9.8,4.5-19.4,9.5-29,14c-27.2,12.9-55.8,18.3-85.2,23.5c-23.3,4.2-48.9,10.8-61.9,32.4
	c-13.9,23.2-0.7,55.7,17.3,73c28.1,27,69.8,32.8,107.1,29.4c48.9-4.5,103-19.8,143.7-48.1c29.3-20.4,40.4-52,28.7-86.1
	c-11.2-32.6-41.1-53.2-75.6-51C228.2,50,213.3,55.4,199,61.9z"/>
<ellipse class="st0" cx="170.7" cy="265.2" rx="57.2" ry="5.5"/>
<g>
	<g>
		<rect x="161.1" y="99" class="st1" width="17.6" height="6"/>
		<g>
			<g>
				<path class="st2" d="M178.2,99h-16c-9.8,0-17.8-8-17.8-17.8l0,0c0-9.8,8-17.8,17.8-17.8h16c9.8,0,17.8,8,17.8,17.8l0,0
					C196,91,188,99,178.2,99z"/>
				<g>
					<g>
						<ellipse class="st3" cx="158.6" cy="77.5" rx="8.7" ry="8.7"/>
						<g>
							<g>
								<ellipse id="XMLID_1_" class="st1" cx="158.6" cy="77.5" rx="7.5" ry="7.5"/>
							</g>
							<g>
								<defs>
									<circle id="SVGID_1_" cx="158.6" cy="77.5" r="7.5"/>
								</defs>
								<clipPath id="SVGID_2_">
									<use xlink:href="#SVGID_1_"  style="overflow:visible;"/>
								</clipPath>
								<rect x="158.3" y="68.8" class="st4" width="4.7" height="17.4"/>
							</g>
							<g>
								<defs>
									<circle id="SVGID_3_" cx="158.6" cy="77.5" r="7.5"/>
								</defs>
								<clipPath id="SVGID_4_">
									<use xlink:href="#SVGID_3_"  style="overflow:visible;"/>
								</clipPath>
								<rect x="154.7" y="68.8" class="st5" width="2.6" height="17.4"/>
							</g>
						</g>
					</g>
					<g>
						<ellipse class="st3" cx="181.7" cy="77.5" rx="8.7" ry="8.7"/>
						<g>
							<g>
								<circle id="XMLID_2_" class="st1" cx="181.7" cy="77.5" r="7.5"/>
							</g>
							<g>
								<defs>
									<circle id="SVGID_5_" cx="181.7" cy="77.5" r="7.5"/>
								</defs>
								<clipPath id="SVGID_6_">
									<use xlink:href="#SVGID_5_"  style="overflow:visible;"/>
								</clipPath>
								<rect x="177.2" y="68.8" class="st6" width="4" height="18.6"/>
							</g>
							<g>
								<defs>
									<circle id="SVGID_7_" cx="181.7" cy="77.5" r="7.5"/>
								</defs>
								<clipPath id="SVGID_8_">
									<use xlink:href="#SVGID_7_"  style="overflow:visible;"/>
								</clipPath>
								<rect x="182.1" y="69" class="st7" width="1.7" height="18.6"/>
							</g>
							<g>
								<defs>
									<circle id="SVGID_9_" cx="181.7" cy="77.5" r="7.5"/>
								</defs>
								<clipPath id="SVGID_10_">
									<use xlink:href="#SVGID_9_"  style="overflow:visible;"/>
								</clipPath>
								<rect x="184.4" y="69" class="st8" width="1.7" height="18.6"/>
							</g>
						</g>
					</g>
				</g>
				<g>
					<path class="st9" d="M178.1,95.6h-15.8c-1.7,0-3.1-1.4-3.1-3.1l0,0c0-1.7,1.4-3.1,3.1-3.1h15.8c1.7,0,3.1,1.4,3.1,3.1l0,0
						C181.2,94.2,179.8,95.6,178.1,95.6z"/>
					<g>
						<rect x="161.1" y="89.5" class="st3" width="1" height="6.1"/>
						<rect x="163.6" y="89.5" class="st3" width="1" height="6.1"/>
						<rect x="166" y="89.5" class="st3" width="1" height="6.1"/>
						<rect x="168.4" y="89.5" class="st3" width="1" height="6.1"/>
						<rect x="170.9" y="89.5" class="st3" width="1" height="6.1"/>
						<rect x="173.3" y="89.5" class="st3" width="1" height="6.1"/>
						<rect x="175.8" y="89.5" class="st3" width="1" height="6.1"/>
						<rect x="178.2" y="89.5" class="st3" width="1" height="6.1"/>
					</g>
				</g>
				<rect x="154.5" y="59.5" class="st10" width="31.4" height="3.9"/>
			</g>
			<rect x="139.2" y="70" class="st3" width="5.2" height="21.1"/>
			<rect x="196" y="70.6" class="st3" width="5.2" height="21.1"/>
		</g>
		<g>
			<g>
				<path id="XMLID_3_" class="st10" d="M173.9,175.4h-7.4c-11.8,0-21.4-9.6-21.4-21.4v-27.6c0-11.8,9.6-21.4,21.4-21.4h7.4
					c11.8,0,21.4,9.6,21.4,21.4V154C195.2,165.8,185.7,175.4,173.9,175.4z"/>
			</g>
			<g>
				<defs>
					<path id="SVGID_11_" d="M173.9,175.4h-7.4c-11.8,0-21.4-9.6-21.4-21.4v-27.6c0-11.8,9.6-21.4,21.4-21.4h7.4
						c11.8,0,21.4,9.6,21.4,21.4V154C195.2,165.8,185.7,175.4,173.9,175.4z"/>
				</defs>
				<clipPath id="SVGID_12_">
					<use xlink:href="#SVGID_11_"  style="overflow:visible;"/>
				</clipPath>
				<rect x="142.3" y="162.5" class="st11" width="55.7" height="18.2"/>
			</g>
		</g>
		<g>
			<g>
				<path id="XMLID_4_" class="st3" d="M169.6,145.4L169.6,145.4c-8.6,0-15.5-7-15.5-15.5V105h31.1v24.8
					C185.1,138.4,178.2,145.4,169.6,145.4z"/>
			</g>
			<g>
				<defs>
					<path id="SVGID_13_" d="M169.6,145.4L169.6,145.4c-8.6,0-15.5-7-15.5-15.5V105h31.1v24.8C185.1,138.4,178.2,145.4,169.6,145.4z
						"/>
				</defs>
				<clipPath id="SVGID_14_">
					<use xlink:href="#SVGID_13_"  style="overflow:visible;"/>
				</clipPath>
				<rect x="160.9" y="116.2" class="st12" width="2.4" height="14.1"/>
			</g>
			<g>
				<defs>
					<path id="SVGID_15_" d="M169.6,145.4L169.6,145.4c-8.6,0-15.5-7-15.5-15.5V105h31.1v24.8C185.1,138.4,178.2,145.4,169.6,145.4z
						"/>
				</defs>
				<clipPath id="SVGID_16_">
					<use xlink:href="#SVGID_15_"  style="overflow:visible;"/>
				</clipPath>
				<rect x="165.8" y="116.2" class="st13" width="2.4" height="14.1"/>
			</g>
			<g>
				<defs>
					<path id="SVGID_17_" d="M169.6,145.4L169.6,145.4c-8.6,0-15.5-7-15.5-15.5V105h31.1v24.8C185.1,138.4,178.2,145.4,169.6,145.4z
						"/>
				</defs>
				<clipPath id="SVGID_18_">
					<use xlink:href="#SVGID_17_"  style="overflow:visible;"/>
				</clipPath>
				<rect x="170.7" y="116.2" class="st14" width="2.4" height="14.1"/>
			</g>
			<g>
				<defs>
					<path id="SVGID_19_" d="M169.6,145.4L169.6,145.4c-8.6,0-15.5-7-15.5-15.5V105h31.1v24.8C185.1,138.4,178.2,145.4,169.6,145.4z
						"/>
				</defs>
				<clipPath id="SVGID_20_">
					<use xlink:href="#SVGID_19_"  style="overflow:visible;"/>
				</clipPath>
				<rect x="175.6" y="116.2" class="st15" width="2.4" height="14.1"/>
			</g>
		</g>
		<g>
			<rect x="151.1" y="175.4" class="st3" width="8.1" height="64.3"/>
			<rect x="181.1" y="175.4" class="st3" width="8.1" height="64.3"/>
			<circle class="st10" cx="155.1" cy="204.7" r="7.2"/>
			<circle class="st10" cx="185.1" cy="205.6" r="7.2"/>
			<g>
				<path class="st10" d="M159.2,265.2h-16.9l4.9-22.2c0.4-1.9,2.1-3.3,4.1-3.3h7.8L159.2,265.2L159.2,265.2z"/>
				<path class="st3" d="M159.2,265.2h-20.6l0,0c0-4.3,3.5-7.8,7.8-7.8h12.7v7.8H159.2z"/>
				<rect x="142.7" y="261.9" class="st16" width="2.9" height="3.3"/>
				<rect x="147.4" y="261.9" class="st16" width="2.9" height="3.3"/>
				<rect x="151.8" y="261.9" class="st16" width="2.9" height="3.3"/>
			</g>
			<g>
				<path class="st10" d="M181.1,265.2H198l-5-22.2c-0.4-1.9-2.1-3.3-4.1-3.3h-7.8L181.1,265.2L181.1,265.2z"/>
				<path class="st3" d="M181.1,265.2h20.6l0,0c0-4.3-3.5-7.8-7.8-7.8h-12.7v7.8H181.1z"/>
				<rect x="194.7" y="262" class="st16" width="2.9" height="3.3"/>
				<rect x="190.1" y="262" class="st16" width="2.9" height="3.3"/>
				<rect x="185.6" y="262" class="st16" width="2.9" height="3.3"/>
			</g>
			<g>
				<rect x="153.6" y="218.2" class="st16" width="3" height="21.5"/>
				<rect x="183.6" y="218.2" class="st16" width="3" height="21.5"/>
			</g>
			<g>
				<rect x="153.7" y="175.4" class="st16" width="3" height="4.3"/>
				<rect x="183.7" y="175.4" class="st16" width="3" height="4.3"/>
			</g>
		</g>
		<g>
			<g>
				<polygon class="st3" points="145.1,108.8 139.2,108.8 131,108.8 131,123.2 131,123.3 133.8,123.3 133.8,153.5 136.4,153.3 
					136.4,123.3 145.1,123.3 				"/>
				<rect x="133.8" y="118.2" class="st16" width="2.6" height="5.1"/>
			</g>
			<circle class="st10" cx="134.9" cy="154.9" r="4"/>
		</g>
		<g>
			<g>
				<polygon class="st3" points="195.2,108.8 201.2,108.8 209.4,108.8 209.4,123.2 209.4,123.3 206.6,123.3 206.6,153.5 204,153.3 
					204,123.3 195.2,123.3 				"/>
				<rect x="204" y="118.1" class="st16" width="2.6" height="5.1"/>
			</g>
			<circle class="st10" cx="205.4" cy="154.9" r="4"/>
		</g>
		<g>
			<path class="st16" d="M128.6,145.5l75.2,22.1c0.3,7.5,5.4,14.4,13,16.6c8.1,2.4,16.5-1.1,20.7-8l-11.6,0.3
				c-3.9,0.1-7.3-2.7-7.9-6.6l0,0c-0.7-4.6,2.8-8.8,7.5-9l13.5-0.4c-1.9-5.2-6.2-9.4-11.9-11.1c-7.6-2.2-15.6,0.8-20,6.9L132,134.1
				c-0.3-7.5-5.4-14.4-13-16.6c-8.1-2.4-16.5,1.1-20.7,8l11.6-0.3c3.9-0.1,7.3,2.7,7.9,6.6l0,0c0.7,4.6-2.8,8.8-7.5,9l-13.5,0.4
				c1.9,5.2,6.2,9.4,11.9,11.1C116.3,154.7,124.3,151.7,128.6,145.5z"/>
			<path class="st9" d="M136.9,141.8L136.9,141.8c0.4-1.3,1.8-2.1,3.1-1.7l53.3,15.7c1.3,0.4,2.1,1.8,1.7,3.1l0,0
				c-0.4,1.3-1.8,2.1-3.1,1.7l-53.3-15.7C137.3,144.5,136.6,143.1,136.9,141.8z"/>
		</g>
		<g>
			<path class="st3" d="M149.9,132.7L149.9,132.7c-2-0.9-4.4,0-5.3,2.1l-4,9l1.9,0.8l-7.9,9.1c-0.5,0.5-0.4,1.4,0.1,1.8l0,0
				c0.5,0.5,1.4,0.4,1.8-0.1l8.5-9.7l3,1.3l4-9C152.9,135.9,152,133.6,149.9,132.7z"/>
			<polygon class="st10" points="140.7,143.8 148,147 149,144.8 141.7,141.5 			"/>
		</g>
		<line class="st17" x1="199.2" y1="156.2" x2="196.5" y2="156.6"/>
		<g>
			<path class="st3" d="M202.9,166.3l-6.7,0.6l-0.7-8c-0.2-1.8,1.2-3.5,3-3.6l0,0c1.8-0.2,3.5,1.2,3.6,3L202.9,166.3z"/>
			
				<rect x="196.2" y="164.7" transform="matrix(0.9958 -9.155595e-02 9.155595e-02 0.9958 -14.3322 18.9664)" class="st10" width="6.7" height="2"/>
			<path class="st3" d="M199.9,169.6L199.9,169.6c-0.7,0.1-1.4-0.5-1.5-1.2l-0.2-1.6l2.7-0.2l0.2,1.6
				C201.2,168.9,200.6,169.5,199.9,169.6z"/>
		</g>
		<g>
			<rect x="168.4" y="44" class="st3" width="3" height="15.5"/>
			<circle class="st1" cx="169.9" cy="42.4" r="4.5"/>
			<ellipse class="st18" cx="170.9" cy="40.9" rx="2.4" ry="2.4"/>
		</g>
		<g>
			<rect x="141.8" y="72.8" class="st18" width="2.6" height="2.6"/>
			<rect x="141.8" y="77.1" class="st18" width="2.6" height="2.6"/>
			<rect x="141.8" y="81.4" class="st18" width="2.6" height="2.6"/>
			<rect x="141.8" y="85.7" class="st18" width="2.6" height="2.6"/>
		</g>
		<g>
			<rect x="196" y="73.4" class="st18" width="2.6" height="2.6"/>
			<rect x="196" y="77.7" class="st18" width="2.6" height="2.6"/>
			<rect x="196" y="82" class="st18" width="2.6" height="2.6"/>
			<rect x="196" y="86.3" class="st18" width="2.6" height="2.6"/>
		</g>
	</g>
	<g>
		<polygon class="st19" points="211.4,95.6 226.8,75 227.3,86.3 244.6,74.7 223.4,97.1 223.7,85 		"/>
		<polygon class="st19" points="132.1,177.5 103.6,204.7 119.8,199.7 102.5,224.1 138,191.1 125.5,192.3 		"/>
		<polygon class="st19" points="131,101.3 125.6,81.7 121.4,88.7 113.7,75.3 119.7,100.6 124.1,91.9 		"/>
		<polygon class="st19" points="199.8,189.9 203.3,202.7 206,198.1 211.1,207 207.1,190.3 204.3,196 		"/>
	</g>
</g>
</svg>
