<?xml version="1.0" encoding="utf-8"?>
<!-- Generator: Adobe Illustrator 24.0.3, SVG Export Plug-In . SVG Version: 6.00 Build 0)  -->
<svg version="1.1" id="Layer_1" xmlns="http://www.w3.org/2000/svg" xmlns:xlink="http://www.w3.org/1999/xlink" x="0px" y="0px"
	 viewBox="0 0 204.4 183" style="enable-background:new 0 0 204.4 183;" xml:space="preserve">
<style type="text/css">
	.st0{fill:#F6F5F5;}
	.st1{opacity:0.6;}
	.st2{fill:#FBC343;}
	.st3{fill:#9490E6;}
	.st4{fill:#8CBFBE;}
	.st5{fill:#708CD5;}
	.st6{fill:#EE6F57;}
	.st7{fill:#D3D3D3;}
	.st8{fill:#102048;}
	.st9{fill:#F9B384;}
	.st10{fill:#6F3428;}
	.st11{fill:#E28B6D;}
	.st12{fill:#1F3C88;}
	.st13{opacity:0.6;fill:#102048;}
	.st14{fill:#0C1836;}
	.st15{fill:#FFFFFF;}
	.st16{opacity:0.4;fill:#FC8879;}
	.st17{opacity:0.4;}
	.st18{opacity:0.3;fill:#1F3C88;}
	.st19{fill:none;}
	.st20{fill:#2D1510;}
</style>
<g>
	<g>
		<g>
			<path class="st0" d="M168.5,118.8c2.3-3.1,4.4-6.5,6.3-10c4.3-8.4,6.3-18,5.4-27.6c-1-11.9-7.9-23.8-19.2-27.2
				c-10-3.1-18.8,2.9-25.9,9.9c-5.3,5.2-10.4,10.9-17,14.3c-7,3.6-16.2,3.5-23.8,2.8C84,80.1,74.1,76.8,63.8,76
				c-10.6-0.8-22.5,2-30,10.6c-8.9,10.1-7.7,25.7-1.1,36.8c0.7,1.2,1.5,2.3,2.3,3.4c7.8,10.4,19.6,16.6,31.6,19.6
				c26.8,6.5,57.3,5.6,81.6-9.3C155.9,132.4,162.9,126.2,168.5,118.8z"/>
			<g>
				<path class="st0" d="M107.9,161.2c-17.1,0-35.1-3.7-53.1-11.1c-15.5-6.3-27.9-16.9-34.9-29.7c-0.9-1.6-1.7-3.2-2.4-4.9
					c-6.2-14.8-5.9-36.5,9.1-49.4c10.4-8.9,25.5-12,41.3-8.4c6.1,1.4,11.7,3.4,17.1,5.4c4.8,1.7,9.3,3.4,13.9,4.5
					c3.2,0.8,13.1,3.2,19.4,1.1c4.6-1.5,9.1-4.9,13.9-8.5c0.9-0.7,1.9-1.4,2.8-2.1c5.2-3.8,21.1-15.5,38.5-7.1
					c14.1,6.7,22.6,22.7,21.7,40.8c-0.6,11.8-4.4,23.2-11.3,33c-2.7,3.8-5.7,7.4-9,10.7l0,0c-7.5,7.5-16.5,13.5-26.8,17.9
					C135.8,158.6,122.2,161.2,107.9,161.2z M55.1,76.6c-6.2,0-11.6,1.7-15.4,5c-7,6-7.1,17.7-3.6,26.2c0.4,1,0.9,2,1.4,2.9
					c4.8,8.8,13.7,16.1,24.9,20.7c16.3,6.7,48.1,16,77.8,3.3c7.8-3.3,14.7-7.9,20.4-13.6c2.5-2.5,4.7-5.2,6.7-8
					c4.6-6.6,7.2-14.3,7.6-22.3c0.4-7.8-2.7-17.9-10.3-21.6c-3-1.4-7.7-2.1-17.7,5.2c-0.9,0.7-1.8,1.3-2.7,2
					c-5.6,4.2-11.9,8.9-19.7,11.5c-10.6,3.5-22.5,1.3-30.6-0.6c-5.7-1.4-10.9-3.3-16-5.2c-5.1-1.9-9.9-3.6-14.7-4.7
					C60.5,76.9,57.8,76.6,55.1,76.6z"/>
			</g>
		</g>
		<g class="st1">
			<g>
				<g>
					<g>
						<path class="st2" d="M79.4,91.1c0,0,0.3,0,0.8,0c0.2,0,0.6,0,0.7,0c0.1,0,0.2,0,0.2,0s0,0.5,0,1.1c0,0.3,0.1,0.8,0.3,1.1
							c0.1,0.2,0.2,0.4,0.3,0.6c0.1,0.1,0,0.2-0.1,0.2c-0.3,0-0.5,0.1-0.7,0.1c-0.4,0.2-0.6,0.3-0.7,0c-0.1-0.1-0.1-0.3-0.2-0.5
							c0-0.1-0.1-0.3-0.1-0.5c-0.2-0.3-0.3-0.8-0.3-1.1C79.5,91.5,79.4,91.1,79.4,91.1z"/>
					</g>
				</g>
			</g>
			<g>
				<g>
					<g>
						<path class="st3" d="M78.1,78c0,0,0.2,0.3,0.4,0.7c0,0.1,0.1,0.2,0.1,0.3c0,0.1,0.1,0.1,0.1,0.1s0.4-0.3,1-0.6
							c0.1-0.1,0.4-0.1,0.6,0c0.2,0,0.5,0,0.7,0c0.1,0,0.2-0.1,0.2-0.2c-0.1-0.2-0.2-0.5-0.2-0.7c0.1-0.3,0.2-0.4-0.1-0.3
							c-0.1,0-0.3,0-0.5,0c-0.1,0-0.3,0.1-0.5,0.1c-0.2-0.1-0.4-0.1-0.6-0.1C78.5,77.8,78.1,78,78.1,78z"/>
					</g>
				</g>
			</g>
			<g>
				<g>
					<g>
						<path class="st4" d="M30.6,102.3c0,0,0.3,0.1,0.7,0.3c0.4,0.1,0.9,0.3,1.1,0.4c0.1,0,0.2,0.1,0.2,0.1s-0.2,0.4-0.4,1.1
							c-0.2,0.5-0.3,1.2-0.2,1.8c0,0.2,0,0.5,0.1,0.7c0,0.1-0.1,0.2-0.1,0.2c-0.3-0.1-0.5-0.1-0.7-0.1c-0.7-0.1-1,0-1.1-0.4
							c0-0.1-0.1-0.3-0.1-0.5c0-0.1,0-0.3,0-0.5c0-0.5,0.1-1.2,0.2-1.8C30.5,102.8,30.6,102.3,30.6,102.3z"/>
					</g>
				</g>
			</g>
			<g>
				<g>
					<g>
						<path class="st5" d="M22.9,74.1c0,0-0.2,0.3-0.5,0.6c-0.2,0.3-0.5,0.6-0.6,0.7c-0.1,0.1-0.1,0.1-0.1,0.1s0.4,0.3,0.9,0.7
							c0.3,0.3,0.7,0.7,0.8,1.1c0.1,0.2,0.2,0.4,0.3,0.6c0,0.1,0.1,0.1,0.2,0.1c0.2-0.2,0.4-0.3,0.5-0.5c0.5-0.3,0.8-0.4,0.6-0.7
							c0-0.1-0.1-0.3-0.2-0.5c-0.1-0.1-0.2-0.3-0.3-0.4c-0.2-0.4-0.5-0.8-0.8-1.1C23.3,74.5,22.9,74.1,22.9,74.1z"/>
					</g>
				</g>
			</g>
			<g>
				<g>
					<g>
						<path class="st2" d="M52.6,35.5c0,0,0.3,0.1,0.8,0.1c0.2,0,0.4,0.1,0.5,0.1c0.1,0,0.2,0,0.2,0s-0.1,0.5-0.2,1.1
							c0,0.3,0,0.6,0.2,0.9c0,0.2,0.1,0.4,0.2,0.6c0,0.1,0,0.2-0.1,0.2c-0.3,0-0.5,0-0.7,0c-0.4,0.1-0.5,0.3-0.5-0.1
							c-0.1-0.1-0.1-0.3-0.1-0.5c0-0.1,0-0.3-0.1-0.5c-0.1-0.3-0.2-0.7-0.2-0.9C52.6,36,52.6,35.5,52.6,35.5z"/>
					</g>
				</g>
			</g>
			<g>
				<g>
					<g>
						<path class="st2" d="M44.8,46.5c0,0-0.3,0.1-0.8,0.1c-0.2,0-0.4,0.1-0.5,0.1c-0.1,0-0.2,0-0.2,0s0.1,0.5,0.2,1.1
							c0,0.3,0,0.6-0.2,0.9c0,0.2-0.1,0.4-0.2,0.6c0,0.1,0,0.2,0.1,0.2c0.3,0,0.5,0,0.7,0c0.4,0.1,0.5,0.3,0.5-0.1
							c0.1-0.1,0.1-0.3,0.1-0.5c0-0.1,0-0.3,0.1-0.5c0.1-0.3,0.2-0.7,0.2-0.9C44.9,47,44.8,46.5,44.8,46.5z"/>
					</g>
				</g>
			</g>
			<g>
				<g>
					<g>
						<path class="st2" d="M96.4,27.4c0,0-0.3,0.1-0.8,0.1c-0.1,0-0.2,0-0.3,0.1c-0.1,0-0.2,0-0.2,0s0.1,0.5,0.2,1.1
							c0,0.2,0,0.4-0.2,0.6c0,0.2-0.1,0.4-0.2,0.6c0,0.1,0,0.2,0.1,0.2c0.3,0,0.5,0,0.7,0c0.2,0.2,0.3,0.3,0.3-0.1
							c0.1-0.1,0.1-0.3,0.1-0.5c0-0.1,0-0.3,0-0.5c0.1-0.2,0.2-0.4,0.3-0.6C96.4,27.9,96.4,27.4,96.4,27.4z"/>
					</g>
				</g>
			</g>
			<g>
				<g>
					<g>
						<path class="st6" d="M124,27.4c0,0,0.3,0,0.8,0c0.1,0,0.3,0,0.3,0c0.1,0,0.2,0,0.2,0s-0.1,0.5-0.1,1.1c0,0.2,0.1,0.4,0.3,0.6
							c0.1,0.2,0.2,0.4,0.3,0.6c0.1,0.1,0,0.2-0.1,0.2c-0.3,0-0.5,0.1-0.7,0.1c-0.2,0.2-0.3,0.3-0.3,0c-0.1-0.1-0.1-0.3-0.2-0.5
							c0-0.1-0.1-0.3-0.1-0.5c-0.1-0.2-0.3-0.4-0.3-0.6C124,27.8,124,27.4,124,27.4z"/>
					</g>
				</g>
			</g>
			<g>
				<g>
					<g>
						<path class="st4" d="M106,40.9c0,0,0.1-0.3,0.1-0.8c0-0.2,0.1-0.3,0.1-0.4c0-0.1,0-0.2,0-0.2s0.5,0.1,1.1,0.2
							c0.2,0,0.5,0,0.8-0.2c0.2,0,0.4-0.1,0.6-0.2c0.1,0,0.2,0,0.2,0.1c0,0.3,0,0.5,0,0.7c0.1,0.3,0.3,0.4-0.1,0.4
							c-0.1,0.1-0.3,0.1-0.5,0.1c-0.1,0-0.3,0-0.5,0c-0.2,0.1-0.5,0.2-0.8,0.2C106.5,40.9,106,40.9,106,40.9z"/>
					</g>
				</g>
			</g>
			<g>
				<g>
					<g>
						<path class="st4" d="M68.8,49.5c0,0-0.3-0.1-0.8-0.2c-0.2-0.1-0.5-0.1-0.6-0.2c-0.1,0-0.2,0-0.2,0s-0.1,0.5-0.3,1.1
							c-0.1,0.3-0.3,0.7-0.6,0.9c-0.1,0.2-0.3,0.4-0.4,0.5c-0.1,0.1-0.1,0.2,0,0.2c0.2,0.1,0.4,0.2,0.6,0.3c0.3,0.3,0.4,0.5,0.6,0.2
							c0.1-0.1,0.2-0.2,0.3-0.4c0.1-0.1,0.2-0.3,0.2-0.4c0.2-0.3,0.4-0.6,0.6-0.9C68.7,50,68.8,49.5,68.8,49.5z"/>
					</g>
				</g>
			</g>
			<g>
				<g>
					<g>
						<path class="st2" d="M148.9,34.8c0,0-0.1,0.3-0.3,0.7c-0.1,0.3-0.2,0.6-0.3,0.8c0,0.1-0.1,0.2-0.1,0.2s-0.4-0.2-1-0.4
							c-0.3-0.1-0.7-0.2-1.1-0.1c-0.2,0-0.5,0-0.7,0.1c-0.1,0-0.2-0.1-0.2-0.1c0.1-0.3,0.1-0.5,0.1-0.7c0-0.5-0.1-0.8,0.3-0.8
							c0.1,0,0.3,0,0.5,0c0.1,0,0.3,0,0.5,0c0.3,0,0.8,0,1.1,0.1C148.4,34.7,148.9,34.8,148.9,34.8z"/>
					</g>
				</g>
			</g>
			<g>
				<g>
					<g>
						<path class="st6" d="M98.5,61.1c0,0-0.1,0.3-0.3,0.7c-0.1,0.3-0.2,0.6-0.3,0.8c0,0.1-0.1,0.2-0.1,0.2s-0.4-0.2-1-0.4
							c-0.3-0.1-0.7-0.2-1.1-0.1c-0.2,0-0.5,0-0.7,0.1c-0.1,0-0.2-0.1-0.2-0.1C95,62,95,61.7,95,61.5c0-0.5-0.1-0.8,0.3-0.8
							c0.1,0,0.3,0,0.5,0c0.1,0,0.3,0,0.5,0c0.3,0,0.8,0,1.1,0.1C98,61,98.5,61.1,98.5,61.1z"/>
					</g>
				</g>
			</g>
			<g>
				<g>
					<g>
						<path class="st6" d="M143.7,103.8c0,0-0.1,0.3-0.3,0.7c-0.1,0.3-0.2,0.6-0.3,0.8c0,0.1-0.1,0.2-0.1,0.2s-0.4-0.2-1-0.4
							c-0.3-0.1-0.7-0.2-1.1-0.1c-0.2,0-0.5,0-0.7,0.1c-0.1,0-0.2-0.1-0.2-0.1c0.1-0.3,0.1-0.5,0.1-0.7c0-0.5-0.1-0.8,0.3-0.8
							c0.1,0,0.3,0,0.5,0c0.1,0,0.3,0,0.5,0c0.3,0,0.8,0,1.1,0.1C143.3,103.7,143.7,103.8,143.7,103.8z"/>
					</g>
				</g>
			</g>
			<g>
				<g>
					<g>
						<path class="st7" d="M135.9,59.1c0,0,0.3-0.2,0.6-0.5c0.2-0.2,0.5-0.4,0.6-0.5c0.1-0.1,0.1-0.1,0.1-0.1s0.3,0.4,0.7,0.9
							c0.2,0.3,0.6,0.6,1,0.8c0.2,0.1,0.4,0.2,0.6,0.3c0.1,0,0.1,0.2,0.1,0.2c-0.2,0.2-0.3,0.4-0.5,0.5c-0.3,0.5-0.3,0.7-0.6,0.5
							c-0.1,0-0.3-0.1-0.4-0.2c-0.1-0.1-0.2-0.2-0.4-0.3c-0.3-0.2-0.7-0.5-1-0.8C136.3,59.5,135.9,59.1,135.9,59.1z"/>
					</g>
				</g>
			</g>
			<g>
				<g>
					<g>
						<path class="st3" d="M135.5,28.9c0,0-0.3,0-0.8,0.1c-0.2,0-0.4,0-0.5,0c-0.1,0-0.2,0-0.2,0s0.1,0.5,0.1,1.1
							c0,0.2,0,0.6-0.3,0.8c-0.1,0.2-0.1,0.4-0.3,0.6c0,0.1,0,0.2,0.1,0.2c0.3,0,0.5,0,0.7,0.1c0.3,0.2,0.4,0.3,0.5,0
							c0.1-0.1,0.1-0.3,0.2-0.5c0-0.1,0.1-0.3,0.1-0.5c0.1-0.2,0.2-0.6,0.3-0.8C135.5,29.4,135.5,28.9,135.5,28.9z"/>
					</g>
				</g>
			</g>
			<g>
				<g>
					<g>
						<path class="st2" d="M122.8,12.2c0,0,0.3-0.3,0.7-0.7c0,0,0,0,0.1,0c0.1-0.1,0.1-0.1,0.1-0.1s0.4,0.5,1,1.1c0,0,0.1,0,0.4-0.2
							c0.3,0.1,0.5,0.2,0.8,0.3c0.1,0,0.2,0.2,0.1,0.3c-0.2,0.3-0.4,0.5-0.5,0.7l-0.1,0c-0.2,0-0.3-0.1-0.6-0.2
							c-0.2-0.1-0.3-0.2-0.5-0.3c-0.2,0.1-0.3,0.2-0.4,0.2C123.3,12.7,122.8,12.2,122.8,12.2z"/>
					</g>
				</g>
			</g>
			<g>
				<g>
					<g>
						<path class="st5" d="M149.7,20.3c0,0-0.2,0.3-0.4,0.7c-0.1,0.2-0.2,0.4-0.3,0.5c-0.1,0.1-0.1,0.1-0.1,0.1s-0.4-0.3-0.9-0.6
							c-0.2-0.1-0.5-0.2-0.8-0.1c-0.2-0.1-0.4-0.1-0.7-0.1c-0.1,0-0.2-0.1-0.1-0.2c0.1-0.2,0.2-0.5,0.3-0.7c0-0.4,0-0.6,0.3-0.5
							c0.1,0,0.3,0,0.5,0.1c0.1,0,0.3,0.1,0.5,0.1c0.3,0,0.6,0.1,0.9,0.1C149.3,20.1,149.7,20.3,149.7,20.3z"/>
					</g>
				</g>
			</g>
			<g>
				<g>
					<g>
						<path class="st6" d="M159.9,32.6c0,0-0.4-0.3-0.9-0.6c-0.1,0-0.1-0.1-0.2-0.1c-0.1-0.1-0.2-0.1-0.2-0.1s-0.3,0.6-0.9,1.3
							c-0.1,0.1-0.2,0.1-0.6,0c-0.3,0.2-0.5,0.4-0.8,0.5c-0.1,0-0.2,0.2-0.1,0.3c0.3,0.3,0.5,0.5,0.7,0.7c0,0.3-0.1,0.5,0.2,0.1
							c0.2-0.1,0.4-0.2,0.6-0.4c0.2-0.1,0.3-0.3,0.5-0.4c0.2,0,0.4,0,0.6,0C159.5,33.1,159.9,32.6,159.9,32.6z"/>
					</g>
				</g>
			</g>
			<g>
				<g>
					<g>
						<path class="st4" d="M153.2,51.6c0,0,0.3-0.1,0.7-0.3c0.1-0.1,0.3-0.1,0.4-0.2c0.1,0,0.2-0.1,0.2-0.1s0.1,0.5,0.4,1
							c0.1,0.2,0.2,0.4,0.5,0.5c0.2,0.2,0.3,0.3,0.5,0.4c0.1,0,0.1,0.2,0,0.2c-0.2,0.1-0.4,0.3-0.6,0.4c-0.2,0.3-0.2,0.5-0.4,0.2
							c-0.1-0.1-0.2-0.2-0.4-0.3c-0.1-0.1-0.2-0.2-0.3-0.4c-0.2-0.1-0.4-0.3-0.6-0.4C153.4,52,153.2,51.6,153.2,51.6z"/>
					</g>
				</g>
			</g>
			<g>
				<g>
					<g>
						<path class="st2" d="M153.2,73.3c0,0-0.3,0-0.8-0.1c-0.2,0-0.4,0-0.5,0c-0.1,0-0.2,0-0.2,0s0,0.5-0.1,1.1
							c0,0.2-0.1,0.5-0.4,0.7c-0.1,0.2-0.2,0.4-0.3,0.6c-0.1,0.1,0,0.2,0.1,0.2c0.3,0.1,0.5,0.1,0.7,0.2c0.3,0.2,0.3,0.4,0.5,0
							c0.1-0.1,0.2-0.2,0.2-0.4c0.1-0.1,0.1-0.3,0.2-0.5c0.2-0.2,0.3-0.5,0.4-0.7C153.1,73.8,153.2,73.3,153.2,73.3z"/>
					</g>
				</g>
			</g>
			<g>
				<g>
					<g>
						<path class="st4" d="M169.5,70.9c0,0,0.3,0.1,0.8,0.2c0.2,0,0.4,0.1,0.4,0.1c0.1,0,0.2,0,0.2,0s-0.2,0.5-0.3,1.1
							c-0.1,0.2-0.1,0.5,0.1,0.8c0,0.2,0.1,0.5,0.1,0.7c0,0.1,0,0.2-0.1,0.2c-0.3,0-0.5-0.1-0.7-0.1c-0.3,0.1-0.5,0.2-0.4-0.1
							c0-0.1-0.1-0.3-0.1-0.5c0-0.1,0-0.3,0-0.5c-0.1-0.3-0.1-0.6-0.1-0.8C169.4,71.4,169.5,70.9,169.5,70.9z"/>
					</g>
				</g>
			</g>
			<g>
				<g>
					<g>
						<path class="st2" d="M134,81.9c0,0,0.3-0.1,0.8-0.2c0.2-0.1,0.5-0.1,0.7-0.2c0.1,0,0.2,0,0.2,0s0.1,0.5,0.2,1.1
							c0.1,0.3,0.3,0.7,0.6,1c0.1,0.2,0.3,0.4,0.4,0.5c0.1,0.1,0.1,0.2,0,0.2c-0.2,0.1-0.4,0.2-0.6,0.3c-0.4,0.3-0.5,0.5-0.7,0.2
							c-0.1-0.1-0.2-0.2-0.3-0.4c-0.1-0.1-0.2-0.3-0.2-0.4c-0.2-0.3-0.4-0.7-0.6-1C134.2,82.4,134,81.9,134,81.9z"/>
					</g>
				</g>
			</g>
			<g>
				<g>
					<g>
						<path class="st6" d="M96.8,15.3c0,0-0.3-0.2-0.7-0.4c-0.3-0.2-0.6-0.4-0.8-0.5c-0.1-0.1-0.1-0.1-0.1-0.1s-0.2,0.4-0.5,1
							c-0.2,0.4-0.5,0.8-1,1.1c-0.2,0.2-0.4,0.3-0.5,0.4c-0.1,0-0.1,0.2,0,0.2c0.2,0.2,0.4,0.3,0.5,0.4c0.4,0.5,0.5,0.7,0.8,0.5
							c0.1-0.1,0.2-0.2,0.4-0.3c0.1-0.1,0.2-0.2,0.3-0.3c0.3-0.3,0.7-0.7,1-1.1C96.5,15.7,96.8,15.3,96.8,15.3z"/>
					</g>
				</g>
			</g>
			<g>
				<g>
					<g>
						<path class="st2" d="M157.1,98c0,0,0.3-0.2,0.6-0.4c0.3-0.2,0.7-0.5,0.9-0.6c0.1-0.1,0.1-0.1,0.1-0.1s0.2,0.4,0.6,1
							c0.3,0.4,0.7,0.9,1.1,1.2c0.2,0.1,0.4,0.3,0.6,0.3c0.1,0,0.1,0.2,0.1,0.2c-0.2,0.2-0.4,0.3-0.5,0.5c-0.4,0.5-0.6,0.8-0.9,0.6
							c-0.1,0-0.2-0.1-0.4-0.3c-0.1-0.1-0.2-0.2-0.4-0.3c-0.4-0.3-0.8-0.8-1.1-1.1C157.4,98.4,157.1,98,157.1,98z"/>
					</g>
				</g>
			</g>
			<g>
				<g>
					<g>
						<path class="st4" d="M39.2,15c0,0,0.3-0.2,0.6-0.5c0.3-0.2,0.6-0.5,0.8-0.6c0.1-0.1,0.1-0.1,0.1-0.1s0.2,0.4,0.6,0.9
							c0.3,0.4,0.7,0.8,1.1,1c0.2,0.1,0.4,0.2,0.6,0.3c0.1,0,0.1,0.2,0.1,0.2c-0.2,0.2-0.3,0.4-0.5,0.5c-0.4,0.5-0.5,0.8-0.8,0.6
							c-0.1,0-0.3-0.1-0.4-0.3c-0.1-0.1-0.2-0.2-0.4-0.3c-0.4-0.3-0.8-0.7-1.1-1C39.5,15.4,39.2,15,39.2,15z"/>
					</g>
				</g>
			</g>
			<g>
				<g>
					<g>
						<path class="st2" d="M69,17.3c0,0,0.4,0.2,0.9,0.4c0.1,0,0.1,0.1,0.1,0.1c0.1,0.1,0.2,0.1,0.2,0.1s-0.3,0.5-0.6,1.3
							c0,0.1,0,0.2,0.3,0.4c0,0.3,0,0.6,0.1,0.9c0,0.1-0.1,0.2-0.2,0.2c-0.3-0.1-0.6-0.2-0.9-0.2c-0.2,0.2-0.3,0.4-0.1-0.1
							c0-0.2,0-0.4,0-0.6c0-0.2,0-0.4,0.1-0.6c-0.1-0.2-0.2-0.3-0.3-0.5C68.8,17.9,69,17.3,69,17.3z"/>
					</g>
				</g>
			</g>
			<g>
				<g>
					<g>
						<path class="st5" d="M75.9,27.4c0,0,0.4,0.2,0.9,0.5c0.1,0.1,0.2,0.1,0.3,0.2c0.1,0.1,0.2,0.1,0.2,0.1s-0.3,0.5-0.7,1.2
							c-0.1,0.1-0.1,0.4,0.1,0.7c0,0.3-0.1,0.6,0,0.9c0,0.1-0.1,0.2-0.2,0.2c-0.3-0.1-0.6-0.2-0.8-0.3c-0.3,0.1-0.4,0.3-0.3-0.2
							c0-0.2,0-0.4,0-0.6c0-0.2,0.1-0.4,0.1-0.6c-0.1-0.2-0.1-0.5-0.1-0.7C75.7,28,75.9,27.4,75.9,27.4z"/>
					</g>
				</g>
			</g>
			<g>
				<g>
					<g>
						<path class="st5" d="M178.1,47.3c0,0,0.3-0.2,0.6-0.5c0.1-0.1,0.2-0.2,0.3-0.2c0.1-0.1,0.1-0.1,0.1-0.1s0.2,0.4,0.6,0.9
							c0.1,0.1,0.3,0.3,0.6,0.2c0.2,0.1,0.4,0.2,0.6,0.3c0.1,0,0.1,0.2,0.1,0.2c-0.2,0.2-0.3,0.4-0.5,0.5c-0.1,0.3,0,0.5-0.3,0.2
							c-0.1,0-0.3-0.1-0.4-0.2c-0.1-0.1-0.2-0.2-0.4-0.3c-0.2,0-0.4-0.1-0.6-0.2C178.4,47.7,178.1,47.3,178.1,47.3z"/>
					</g>
				</g>
			</g>
			<g>
				<g>
					<g>
						<path class="st4" d="M112.8,19.3c0,0,0.5,0,1.1,0.1c0.1,0,0.1,0,0.2,0c0.2,0,0.2,0,0.2,0s-0.1,0.7-0.1,1.6
							c0,0.1,0.1,0.3,0.4,0.4c0.1,0.3,0.2,0.6,0.4,0.9c0.1,0.1,0,0.3-0.1,0.3c-0.4,0-0.2,0.2-0.5,0.2c-0.1,0.3-0.7,0.4-0.7-0.1
							c-0.1-0.2-0.2-0.4-0.3-0.7c-0.1-0.2-0.1-0.4-0.1-0.7c-0.2-0.1-0.4-0.3-0.5-0.4C112.8,20,112.8,19.3,112.8,19.3z"/>
					</g>
				</g>
			</g>
			<g>
				<g>
					<g>
						<path class="st4" d="M132.3,19.2c0,0-0.5-0.1-1.1-0.1c-0.1,0-0.1,0-0.2,0c-0.1,0-0.2,0-0.2,0s0,0.7-0.1,1.6
							c0,0.1-0.1,0.2-0.5,0.3c-0.1,0.3-0.3,0.6-0.5,0.8c-0.1,0.1,0,0.3,0.1,0.3c0.4,0.1,0.5,0.1,0.8,0.2l0.3,0.1
							c0.1-0.1,0.2-0.3,0.4-0.6c0.1-0.2,0.2-0.4,0.3-0.6c0.2-0.1,0.4-0.2,0.5-0.3C132.1,19.8,132.3,19.2,132.3,19.2z"/>
					</g>
				</g>
			</g>
			<g>
				<g>
					<g>
						<path class="st3" d="M91.9,41.5c0,0-0.1,0.3-0.3,0.7c-0.1,0.1-0.1,0.3-0.2,0.4c0,0.1-0.1,0.2-0.1,0.2s0.5,0.1,1,0.4
							c0.2,0.1,0.4,0.3,0.5,0.6c0.2,0.2,0.3,0.3,0.4,0.5c0.1,0.1,0.2,0.1,0.2,0c0.1-0.2,0.3-0.4,0.4-0.6c0.3-0.2,0.5-0.2,0.2-0.4
							c-0.1-0.1-0.2-0.2-0.3-0.4c-0.1-0.1-0.2-0.2-0.4-0.3c-0.1-0.2-0.4-0.4-0.5-0.6C92.3,41.7,91.9,41.5,91.9,41.5z"/>
					</g>
				</g>
			</g>
			<g>
				<g>
					<g>
						<path class="st6" d="M146.2,46.7c0,0-0.1,0.3-0.3,0.7c-0.1,0.1-0.1,0.3-0.2,0.4c0,0.1-0.1,0.2-0.1,0.2s0.5,0.1,1,0.4
							c0.2,0.1,0.4,0.3,0.5,0.6c0.2,0.2,0.3,0.3,0.4,0.5c0.1,0.1,0.2,0.1,0.2,0c0.1-0.2,0.3-0.4,0.4-0.6c0.3-0.2,0.5-0.2,0.2-0.4
							c-0.1-0.1-0.2-0.2-0.3-0.4c-0.1-0.1-0.2-0.2-0.4-0.3c-0.1-0.2-0.4-0.4-0.5-0.6C146.6,46.9,146.2,46.7,146.2,46.7z"/>
					</g>
				</g>
			</g>
			<g>
				<g>
					<g>
						<path class="st5" d="M31.9,41.5c0,0,0.3-0.1,0.7-0.3c0.3-0.1,0.7-0.3,0.8-0.3c0.1,0,0.2-0.1,0.2-0.1s0.1,0.5,0.4,1.1
							c0.2,0.4,0.4,0.9,0.8,1.2c0.2,0.2,0.3,0.3,0.5,0.4c0.1,0.1,0.1,0.2,0,0.2c-0.2,0.1-0.4,0.2-0.6,0.4c-0.5,0.4-0.6,0.6-0.8,0.3
							c-0.1-0.1-0.2-0.2-0.4-0.3c-0.1-0.1-0.2-0.2-0.3-0.4c-0.3-0.3-0.6-0.8-0.8-1.2C32.1,42,31.9,41.5,31.9,41.5z"/>
					</g>
				</g>
			</g>
			<g>
				<g>
					<g>
						<path class="st2" d="M167.5,44.2c0,0,0.3-0.2,0.6-0.5c0.1-0.1,0.1-0.1,0.2-0.2c0.1-0.1,0.1-0.1,0.1-0.1s0.3,0.4,0.7,0.9
							c0.1,0.1,0.2,0.1,0.5,0.1c0.2,0.1,0.4,0.2,0.6,0.3c0.1,0,0.1,0.2,0.1,0.2c-0.2,0.2-0.3,0.4-0.4,0.5c0,0.2,0.1,0.4-0.2,0.2
							c-0.1,0-0.3-0.1-0.4-0.2c-0.1-0.1-0.2-0.2-0.4-0.3c-0.2,0-0.4,0-0.5-0.1C167.8,44.6,167.5,44.2,167.5,44.2z"/>
					</g>
				</g>
			</g>
			<g>
				<g>
					<g>
						<path class="st2" d="M13.9,88.7c0,0,0.3,0.2,0.7,0.4c0.4,0.3,0.9,0.6,1.2,0.8c0.1,0.1,0.1,0.1,0.1,0.1s-0.3,0.4-0.6,0.9
							c-0.3,0.5-0.7,1.3-0.8,1.9c-0.1,0.2-0.1,0.5-0.1,0.7c0,0.1-0.1,0.2-0.2,0.1c-0.2-0.1-0.4-0.2-0.6-0.3
							c-0.8-0.3-1.2-0.4-1.2-0.8c0-0.1,0-0.3,0.1-0.5c0-0.1,0.1-0.3,0.1-0.5c0.2-0.6,0.5-1.4,0.8-2C13.6,89.1,13.9,88.7,13.9,88.7z"
							/>
					</g>
				</g>
			</g>
		</g>
		<g>
			<path class="st8" d="M124.2,71.5c-3.4,2.8-17.8,8.1-18,8.2c-0.7,0.5-1.1,1.2-1.8,1.7c-0.8,0.5-1.7,0.8-2.6,0.9
				c-3.3,0.3-6.2-2.1-7.3-5.1c-1.2-3.1-0.2-7.4,3-8.8c2.6-1.1,4.4-1,4.4-1c-1.9-14.7,5.4-17.3,6.5-17.3c3.3-4.4,8.6-1.6,9.1-0.7
				c2.8-0.7,5.2,5.4,2.1,7.1c0,0,0,0-0.1,0c0.1,3.4,0.5,5.9,3.7,7.1C126.7,65,127.6,68.7,124.2,71.5z"/>
			<g>
				<path class="st9" d="M91.1,49l-4.5,1.3c-1.7-1.5-2.1-2.7-2.8-4.8c-0.3-0.8-1.4-4.1-0.5-4.3c0.3-0.1,0.8,0.3,1.1,0.8
					c-0.3-0.9-0.4-1.9-0.4-2.4c0-0.4,0.1-0.7,0.4-0.8c0.2-0.1,0.5,0.1,0.7,0.4c0-0.1,0.2-0.9,0.5-1c0.3-0.1,0.7,0.3,1,1
					c0,0.1,0.1,0.2,0.1,0.3c0-0.1,0-0.2,0-0.2c0.1-0.2,0.2-0.4,0.4-0.4c0.6-0.2,1.1,1,1.2,1.4c0.6,1.4,1.3,2.8,1.7,4.3
					c0.2,0.7,0.5,1.4,0.7,2.1C90.8,46.8,91.2,49,91.1,49z"/>
				<path class="st9" d="M90.8,44.1c0.2,1.8,0.1,3.3-0.3,3.3c-0.4,0.1-1-1.3-1.2-3.1c-0.2-1.8-0.4-3.2,0.3-3.3
					C90.2,40.9,90.5,42.3,90.8,44.1z"/>
			</g>
			<path class="st9" d="M99.5,62.6l-0.8,4.3h-5.1L92.9,66L89,61c-0.8-1-1.3-2.2-1.7-3.4l-2-9l5.5-1.4l2.4,7.6
				c0.4,1.4,1.2,2.6,2.2,3.7L99.5,62.6z"/>
			<g>
				<path class="st9" d="M133.9,44.4l4.2,1.3c1.2-1.7,1.7-4,1.9-6.1c0.1-0.8,0.4-4.1-0.5-4.1c-0.3,0-0.7,0.4-0.9,1
					c0.1-0.9,0-1.8-0.1-2.3c-0.1-0.4-0.2-0.6-0.5-0.7c-0.2,0-0.4,0.2-0.6,0.6c0-0.1-0.3-0.8-0.6-0.8c-0.3,0-0.6,0.4-0.8,1.1
					c0,0.1,0,0.2-0.1,0.3c0-0.1,0-0.1-0.1-0.2c-0.1-0.2-0.2-0.3-0.4-0.3c-0.6-0.1-0.8,1.1-0.9,1.5c-0.3,1.5-0.6,2.9-0.7,4.4
					c0,0.7-0.1,1.4-0.1,2.1C133.9,42.3,133.8,44.4,133.9,44.4z"/>
				<path class="st9" d="M133.2,39.9c0.4,1.7,1.1,2.9,1.5,2.8s0.4-1.5,0-3.2c-0.4-1.7-0.8-3-1.5-2.8
					C132.6,36.9,132.8,38.3,133.2,39.9z"/>
			</g>
			<path class="st9" d="M127.6,58.6l2.8-4.3c0.4-0.5,0.6-1.1,0.8-1.7l2.7-10.5l5.6,0.5l-2.4,11.3c-0.1,0.5-0.2,1-0.4,1.5l-2.7,6.4
				l-3.6,1.6L127.6,58.6z"/>
			<g>
				<path class="st9" d="M128.3,144.6l-0.2,3l-1.8,23.4l-0.1,1.1l-5.6-0.9v-1.1c0,0,0,0,0,0l0-23.8c0-1.5-0.2-2.9-0.5-4.4
					c-1.6-6.7-6.4-27-6.1-27.5l10.6-1.1l3.5,25.6l0.1,0.6C128.4,141.2,128.5,142.9,128.3,144.6z"/>
				<path class="st10" d="M120.4,175c0.1,1.3,1,1.3,1.4,1.3c1.1,0,10.8,0,10.9,0c0,0,0-1-0.8-1.8c-0.5-0.6-5.3-3.3-5.7-3.5
					c-3,1.6-5.7-0.9-5.7-0.9S120.3,173.6,120.4,175z"/>
			</g>
			<g>
				<path class="st9" d="M118.5,114.9c0,0-4.5,18.4-9.7,25.3c-0.7,0.9-1.3,1.6-2,2c-1.5,1-3.4,0.6-5.7-1c-3.9-2.6-8.9-8.3-14.7-15.7
					c-0.3-0.3-0.5-0.6-0.8-1l2.2-3.8l2.9,1l11.6,10.1l4.4-18.3L118.5,114.9z"/>
				<path class="st10" d="M86.9,118.5c-1.1-0.8-1.7,0-1.9,0.3c-0.7,0.8-6.9,8.3-6.9,8.4c0,0,0.8,0.7,1.9,0.6c0.8-0.1,5.9-2,6.3-2.1
					c0.7-3.4,4.3-3.8,4.3-3.8S88.1,119.3,86.9,118.5z"/>
			</g>
			<path class="st11" d="M113.1,131.6c0.3-1.2,0.7-2.4,1.1-3.7c0.4-1.2,0.8-2.4,1.1-3.6l1.2-3.6c0.4-1.2,0.8-2.4,1.3-3.6l0.2,0.1
				c-0.3,1.2-0.7,2.4-1.1,3.7l-1.2,3.6c-0.4,1.2-0.8,2.4-1.2,3.6c-0.4,1.2-0.8,2.4-1.3,3.6L113.1,131.6z"/>
			<path class="st12" d="M129.8,116.5c-19.1,9.9-30.6-0.6-33.5-5c4.1-4.5,6.7-10.8,8-14.8c0.8-2.3,1.1-3.9,1.1-3.9l16.1-1.3l1.8-0.1
				c0,0,0,0.1,0.1,0.3c0.1,0.5,0.4,1.6,0.8,3.2C126,101.2,129.5,114.7,129.8,116.5z"/>
			<path class="st13" d="M124.3,94.8c-3.2,2.5-10.7,3.7-19.9,1.9c0.8-2.3,1.1-3.9,1.1-3.9l16.1-1.3l1.9,0.1
				C123.6,92.1,123.9,93.2,124.3,94.8z"/>
			<path class="st6" d="M134,61.7c-0.7,1.5-2.5,4.9-4.6,8.5c-1.7,2.8-2.6,5.6-3.3,8.9c-1,4.6-2.4,9.8-1,12.7c1.2,2.4-4,3-9.8,3.3
				c-4.6,0.2-12.3,0.2-10.9-2.3c2.6-4.7-0.2-10.9-1-13.4c-1-3.3-5.3-8-7.8-10.5c-1.1-1.1-1.9-1.9-1.9-1.9s4.4-0.8,5.9-4.3
				c1,1,4.4,4,6.3,5.7c0.8,0.7,1.9,1,3,0.8l3.6-0.6h3.8c1.4,0.2,2.4,0.3,3.2,0.4c1.2,0.1,2.4-0.5,3.1-1.6l5.1-8.7
				C127.6,58.6,131.1,62,134,61.7z"/>
			<path class="st9" d="M117.3,72.6h-6.8c0,0,0,0,0,0v-9.3h6.8L117.3,72.6C117.3,72.6,117.3,72.6,117.3,72.6z"/>
			<g>
				<path class="st11" d="M110.5,65.4c0,0,4.1,5.8,6.8-0.6C117.4,64.8,110.5,65.4,110.5,65.4z"/>
				<path class="st9" d="M118.3,58.8c0.1,1.2,0.2,2.2,0.1,3.2c-0.1,0.6-0.2,1.2-0.5,1.8c-1.8,3.7-6.9,4-9.5-1.2
					c-2.2-4.4-1.2-9-1.2-9l5.8-2.5l5.6,2.7C118.2,55.9,118.3,57.5,118.3,58.8z"/>
			</g>
			<path class="st8" d="M119.6,56.6c-4.6,0.8-7-0.4-9.1-2.9c-1.3,1-1,1.9-0.9,3.4c0.1,1.2-0.2,2.4-3.1,2.4l-1.2-4.2l1.3-3.1l5.8-2.4
				l6.9,1.1L119.6,56.6z"/>
			<g>
				<path class="st14" d="M112.6,59c0,0.3-0.2,0.6-0.4,0.6c-0.2,0-0.4-0.2-0.4-0.6c0-0.3,0.2-0.6,0.4-0.6
					C112.4,58.4,112.6,58.7,112.6,59z"/>
				<path class="st14" d="M112.8,58c-0.1-0.1-0.3-0.2-0.5-0.3c-0.2,0-0.4,0-0.6,0c-0.2,0.1-0.4,0.1-0.5,0.3
					c-0.2,0.1-0.3,0.3-0.5,0.4l-0.1-0.1c0.1-0.2,0.2-0.4,0.4-0.6c0.2-0.2,0.4-0.3,0.6-0.4c0.2-0.1,0.5-0.1,0.7,0
					c0.2,0.1,0.4,0.3,0.5,0.5L112.8,58z"/>
				<path class="st14" d="M115.5,58.7c0,0.3,0.2,0.6,0.4,0.6c0.2,0,0.4-0.3,0.4-0.6c0-0.3-0.2-0.6-0.4-0.6
					C115.7,58.1,115.5,58.4,115.5,58.7z"/>
				<path class="st14" d="M115,57.8c0.1-0.2,0.2-0.4,0.4-0.5c0.2-0.1,0.4-0.2,0.6-0.3c0.5,0,0.8,0.2,1.1,0.5l-0.1,0.1
					c-0.2-0.1-0.3-0.1-0.5-0.2c-0.2,0-0.3-0.1-0.5-0.1c-0.2,0-0.3,0.1-0.4,0.1c-0.1,0.1-0.3,0.2-0.4,0.3L115,57.8z"/>
				<path class="st15" d="M113.3,62.8l2.5-0.3l0,0C115.6,63.6,114,64.3,113.3,62.8L113.3,62.8z"/>
				<path class="st11" d="M114.4,58.8c0,0.3,0.1,0.5,0.2,0.8c0.1,0.1,0.1,0.2,0.2,0.3l0.2,0.1L115,60c0,0,0.1,0.1,0.1,0.1
					c0.3,0.3,0.3,0.7,0,1c-0.3,0.3-0.7,0.2-0.9,0l0.1-0.1c0.2,0.1,0.5,0,0.6-0.1c0.1-0.1,0.1-0.4,0-0.5c0,0-0.1-0.1-0.1-0.1
					l-0.2-0.1c-0.1-0.1-0.2-0.3-0.3-0.4c-0.1-0.3-0.1-0.6,0-0.9L114.4,58.8z"/>
				<circle class="st16" cx="111.2" cy="61.7" r="1.6"/>
				<path class="st16" d="M118.4,62c-0.1,0-0.1,0-0.2,0c-0.9,0-1.6-0.8-1.5-1.7c0-0.9,0.8-1.6,1.7-1.5C118.4,60,118.5,61,118.4,62z"
					/>
			</g>
			<g>
				<path class="st9" d="M108.7,59.6c-1-0.8-2-0.9-2.5,0c-0.5,1.1,1.1,3.6,2.7,2.8C109,62.2,108.7,59.6,108.7,59.6z"/>
				<path class="st11" d="M108,60.5c-0.1-0.3-0.3-0.5-0.5-0.7c-0.2-0.1-0.5-0.1-0.7,0.1l-0.1,0c0.1-0.2,0.2-0.3,0.4-0.3
					c0.2,0,0.4,0,0.5,0.1c0.2,0.1,0.3,0.2,0.4,0.4C108,60.1,108.1,60.3,108,60.5L108,60.5z"/>
			</g>
			<g class="st17">
				<path class="st10" d="M110.5,73.9c0.6,0.4,1.2,0.7,1.8,0.9c0.6,0.2,1.2,0.3,1.8,0.3c0.6,0,1.2-0.1,1.8-0.4
					c0.6-0.2,1.1-0.6,1.7-1c-0.2,0.7-0.7,1.3-1.3,1.7c-0.6,0.4-1.4,0.6-2.1,0.7c-0.7,0-1.5-0.2-2.1-0.5
					C111.3,75,110.8,74.5,110.5,73.9z"/>
			</g>
			<g class="st17">
				<path class="st10" d="M117.6,91.5c0.7-0.3,1.4-0.5,2.1-0.8c0.7-0.3,1.3-0.7,1.9-1.2c0.5-0.5,0.9-1.1,1.2-1.8
					c0.3-0.7,0.5-1.4,0.6-2.2c0,0.8-0.1,1.5-0.3,2.3c-0.2,0.7-0.6,1.5-1.2,2c-0.6,0.5-1.3,0.9-2,1.2
					C119.1,91.3,118.3,91.4,117.6,91.5z"/>
			</g>
			<g>
				<path class="st11" d="M88.7,43.5c-0.3,0.5-0.5,1-0.5,1.5c0,0.5,0.1,1,0.4,1.5l-0.1,0.1c-0.3-0.2-0.4-0.4-0.6-0.7
					c-0.1-0.3-0.2-0.6-0.1-0.9c0.1-0.6,0.4-1.2,0.8-1.6L88.7,43.5z"/>
				<path class="st11" d="M84.8,43.9c0.2-0.2,0.5-0.4,0.7-0.5c0.3-0.1,0.5-0.3,0.8-0.4c0.3-0.1,0.6-0.2,0.9-0.2
					c0.3-0.1,0.6-0.1,0.9-0.1l0,0.1c-0.6,0.2-1.1,0.4-1.7,0.6c-0.3,0.1-0.5,0.2-0.8,0.3c-0.3,0.1-0.5,0.2-0.8,0.4L84.8,43.9z"/>
			</g>
			<g>
				<path class="st11" d="M134.9,38.5c0.5,0.3,0.9,0.8,1.1,1.3c0.1,0.3,0.1,0.6,0.1,0.9c0,0.3-0.2,0.6-0.4,0.8l-0.1-0.1
					c0.2-0.5,0.2-1,0.1-1.5c-0.2-0.5-0.5-0.9-0.9-1.3L134.9,38.5z"/>
				<path class="st11" d="M138.7,38.6c-0.3-0.1-0.5-0.2-0.8-0.2c-0.3-0.1-0.6-0.1-0.9-0.1c-0.6-0.1-1.2-0.1-1.7-0.2l0-0.1
					c0.3,0,0.6,0,0.9,0c0.3,0,0.6,0,0.9,0.1c0.3,0.1,0.6,0.1,0.9,0.2c0.3,0.1,0.6,0.2,0.8,0.4L138.7,38.6z"/>
			</g>
			<path class="st16" d="M128.3,144.6l-0.2,3c-3.6-4.2-2.6-6.9,0-8.7l0.1,0.6C128.4,141.2,128.5,142.9,128.3,144.6z"/>
			<path class="st16" d="M108.8,140.2c-0.7,0.9-1.3,1.6-2,2c-1.5,1-3.4,0.6-5.7-1C103.5,138.5,106.1,138.2,108.8,140.2z"/>
		</g>
		<g>
			<g>
				<path class="st6" d="M29,157.3c-1.2,0.9-0.9,2-0.7,2.4c0.5,1.1,4,9.8,7.1,10.5c0.6,0.1,1-0.6,1.3-1.9c0.2-0.9-0.1-7.2-0.1-7.8
					c-3.5-2-2.7-6-2.7-6.1l0,0C33.9,154.5,30.3,156.4,29,157.3z"/>
				<path class="st9" d="M37.9,151.7l-3.9,2.8l0,0c0,0.2-0.8,4.1,2.7,6.1l4.7-4L37.9,151.7z"/>
			</g>
			<g>
				<path class="st6" d="M50.8,174.3c0.1,1.5,1.2,1.5,1.6,1.5c1.2,0,12.6,0,12.7,0c0,0,0-1.2-0.9-2.1c-0.6-0.7-6.1-3.8-6.6-4.1
					c-3.6,1.9-6.5-0.9-6.6-1l0,0C51.1,168.6,50.7,172.7,50.8,174.3z"/>
				<path class="st9" d="M50.8,163.8l0.3,4.8l0,0c0.1,0.1,3.1,2.9,6.6,1l-0.9-6.1L50.8,163.8z"/>
			</g>
			<path class="st8" d="M47.1,115.1L45,134.9c-0.1,0.8-0.3,1.6-0.8,2.3l-8.2,13.5l6.3,9.3l10.7-15.5L47.1,115.1z"/>
			<path class="st12" d="M44,107.1c1.3,3.6,2.1,7.4,2.3,11.2l3.1,47H60l-1.2-61.6l-0.1-6.9L43,95.5c-0.3,0.8-0.5,1.5-0.5,2.4
				C42.1,100.7,42.8,103.8,44,107.1z"/>
			<path class="st10" d="M66,48.6c1.1-0.9,1.6-2.5,1-4c-0.2-0.5-0.7-0.8-1.3-0.8c1.1-1.1,0.5-2.3,0.2-2.9c-0.2-0.4-0.5-0.8-0.9-1
				c-0.5-0.3-1.4-0.4-2.4-0.1c0.1-1-0.4-1.3-0.6-1.5c-0.4-0.4-0.9-0.8-1.5-0.9c-0.8-0.2-2-0.1-2.6,0.6c-0.1,0.1-0.2,0.6-0.4,0.6
				c-0.1,0-0.2-0.1-0.3-0.2c-0.4-0.6-1.1-0.8-1.7-0.8c-0.6,0-1.1,0.1-1.6,0.5c-0.4,0.4-0.6,1.1-0.2,1.5c-0.9-0.5-2.2-0.6-3,0.1
				s-1.2,2-0.5,2.8c-0.5,0-1,0.3-1.3,0.7c-0.3,0.4-0.5,0.9-0.6,1.5c-0.3,2,0.5,4.1,2.1,5.3c0.8,0.6,1.8,1,2.9,1
				c0.8,0,1.6-0.1,2.4-0.3c1.4-0.3,2.9-0.5,4.2-1.1c1-0.4,1.9-0.9,2.7-1.5c0.3-0.3,0.5,1.1,0.9,1.2C64.5,49.5,65.4,49.2,66,48.6z"/>
			<g>
				<g>
					<path class="st11" d="M70.8,76l3.7,4.2c0,0,4.9-4.2,7.3-8c0-0.1,0.1-0.2,0.1-0.2c0.3-0.5,0.6-1,0.8-1.5c0,0,0,0,0,0
						c0.1-0.3,0-0.6-0.2-0.8c-0.3-0.2-0.4-0.1-0.9,0.4c0.5-1.1,0.9-1.7,1.1-2.3c0.2-0.5,0.2-0.9-0.1-1.1c-0.2-0.2-0.6-0.1-1,0.2
						c0-0.1,0.2-1.1-0.2-1.3c-0.3-0.3-0.9,0.1-1.6,0.7c-0.1,0.1-0.2,0.2-0.3,0.3c0-0.1,0-0.2,0.1-0.3c0-0.3-0.1-0.5-0.2-0.6
						c-0.6-0.5-1.6,0.7-1.9,1.1c-1.3,1.4-2.6,2.8-3.6,4.4c-0.5,0.7-1,1.5-1.5,2.3C72.1,73.7,70.7,75.9,70.8,76z"/>
				</g>
				<path class="st11" d="M74.5,80.2c0,0-10.5,9-14.1,8.6c-3.6-0.4-4.7-8-4.7-8L70.8,76l4.1,1.5L74.5,80.2z"/>
			</g>
			<polygon class="st9" points="51.8,50.9 51.8,63.6 59,63.6 59,52.1 			"/>
			<g>
				<path class="st11" d="M54.2,55.5c0.3,1.1,1.5,3.5,4.8,4v-3.7L54.2,55.5z"/>
				<path class="st9" d="M53.1,53.8c1.3,2.6,3.9,4.5,6.8,3.6c1.5-0.5,2.4-1.6,2.9-3.2c0.3-0.9,0.5-2,0.6-3.2c0.2-1.8,0.2-3.8,0.3-6
					L58,41.4l-5.5,3.1C52.6,44.5,51.8,51.3,53.1,53.8z"/>
			</g>
			<path class="st13" d="M42.5,97.8c2.6,3.7,10,5.7,16.3,5.9l-0.1-6.9L43,95.5C42.8,96.2,42.6,97,42.5,97.8z"/>
			<path class="st5" d="M43.2,97.5c4.6,2.4,10.5,2.8,16.9,2.4c0.8,0.1,1.5-0.5,1.5-1.3c0.1-2.6,0.1-5.1,0.2-7.7c0.1-3,0.1-6,0.2-9
				c0-0.6,0-1.2,0-1.7c0.1-3.8,0.4-7.6,0.3-11.4c-0.1-3.9-2.1-6.5-5.7-7.8c-2.6-0.9-5.8-1.6-7.8,0.9c-3.4,4.3-3.7,10-4.9,15.1
				c-1.3,5.5-2,11.1-2.7,16.7C41,95.2,41.3,96.3,43.2,97.5z"/>
			<path class="st18" d="M50.1,80.8c0.6,3.8,3.1,10.8,11.6,10.2c0.1-3,0.1-6,0.2-9c0-0.6,0-1.2,0-1.7L50.1,80.8z"/>
			<path class="st9" d="M49.6,80.2c0,0,0.9,3.2,2.8,5.2c0.6,0.6,1.2,1.1,2,1.4c0.8,0.3,2.2,0.3,3.8-0.1c3.8-0.9,9.3-3.7,14.2-7.5
				l1.5-6.9c-4.8-0.7-11,3.8-16.2,5.8L49.6,80.2z"/>
			<path class="st10" d="M51.5,47.2c0.6,0.8,1.4,1.3,2.4,1.4c0.7,0.1,1.4-0.1,2-0.4c0.1-0.1,0.2-0.1,0.4-0.2
				c0.2-0.1,0.3-0.2,0.5-0.3c0.1-0.1,0.3-0.2,0.4-0.3c0.1-0.1,0.7-0.6,0.6-0.7c0.3,0.8,1.2,0.9,2,0.8c0.4,0,0.7-0.2,1-0.4
				c0.2-0.2,0.4-0.5,0.4-0.8c0.1,0.8,0.9,1.4,1.6,1.5c0.3,0,0.7,0,1-0.1c0.5-0.1,0.9-0.3,1.2-0.8c0.3-0.4,0.5-1.1,0.2-1.6
				c-0.1-0.2-0.3-0.4-0.5-0.5c-0.1-0.1-0.2-0.1-0.3-0.2c-0.1-0.1-0.1-0.3-0.1-0.4c-0.1-0.6-0.7-0.8-1.1-1.2c-0.4-0.3-0.7-0.8-1.1-1
				c-0.6-0.3-1.2-0.2-1.8-0.3c-0.5-0.1-1-0.3-1.5-0.4c-0.9-0.2-1.8,0.1-2.5,0.7c-0.2,0.1-0.3,0.3-0.5,0.4c-0.1,0.1-0.3,0.1-0.5,0.1
				c-0.3,0.1-0.7,0.1-1,0.3c-0.3,0.2-0.6,0.4-0.6,0.7c-0.5,0.1-1,0.4-1.3,0.9c-0.3,0.5-0.4,1.1-0.2,1.6
				C51.7,46.3,51.5,46.8,51.5,47.2z"/>
			<g>
				<path class="st9" d="M69.1,74.8c0,0,3.4,4.4,3.4,4.4s5.2-3.9,7.8-7.5c0-0.1,0.1-0.1,0.2-0.2c0.3-0.5,0.6-1,0.9-1.5c0,0,0,0,0,0
					c0.1-0.3,0-0.6-0.2-0.8c-0.3-0.3-0.7,0.2-1.3,0.6c0.7-0.9,1.3-1.9,1.6-2.5c0.2-0.5,0.2-0.8-0.1-1.1c-0.2-0.2-0.6-0.1-1,0.2
					c0-0.1,0.2-1.1-0.1-1.3c-0.3-0.3-0.9,0-1.6,0.6c-0.1,0.1-0.2,0.2-0.3,0.3c0-0.1,0.1-0.2,0.1-0.3c0-0.3,0-0.5-0.2-0.7
					c-0.6-0.5-1.7,0.6-2,1c-1.3,1.3-2.8,2.6-3.9,4.1c-0.6,0.7-1.1,1.4-1.6,2.2C70.6,72.5,69,74.6,69.1,74.8z"/>
				<path class="st9" d="M71.4,70c-0.9,2.4-1.3,4.5-0.7,4.7c0.5,0.2,1.7-1.6,2.6-4c0.9-2.4,1.6-4.3,0.7-4.7
					C73.2,65.7,72.3,67.6,71.4,70z"/>
			</g>
			<path class="st18" d="M49.6,66.3c-2.7,4.8-3.2,13-1.9,16.2l0.9-0.3L49.6,66.3z"/>
			<path class="st5" d="M57.8,78.1c0,0-0.2-12.2-4.7-13c-4.4-0.8-5.7,2.1-4.5,17.2C48.7,82.3,57.8,78.1,57.8,78.1z"/>
			<path class="st19" d="M65,44.9c0.1,0.1,0.1,0.3,0.2,0.4"/>
			<path class="st12" d="M48.6,82.4c0.8-0.3,1.6-0.6,2.4-1c0.8-0.3,1.6-0.7,2.3-1c0.8-0.4,1.5-0.7,2.3-1.1c0.8-0.4,1.5-0.7,2.3-1.2
				L57.8,78c-0.8,0.3-1.6,0.6-2.4,0.9c-0.8,0.3-1.6,0.7-2.3,1c-0.8,0.4-1.5,0.7-2.3,1.1c-0.8,0.4-1.5,0.7-2.3,1.2L48.6,82.4z"/>
			<path class="st12" d="M54.3,65.8c0.2,0.2,0.4,0.4,0.6,0.6c0.1,0.1,0.2,0.2,0.3,0.3c0.1,0.1,0.2,0.2,0.3,0.3
				c0.3,0.4,0.6,0.9,0.8,1.4c0.4,1,0.7,2.1,0.9,3.1c0.1,0.5,0.2,1.1,0.2,1.6c0,0.5,0.1,1.1,0.1,1.6c0.1,1.1,0.1,2.2,0.2,3.3l0.2,0
				c0-0.6,0-1.1,0.1-1.7c0-0.6,0-1.1,0-1.7c0-1.1-0.1-2.2-0.3-3.3c-0.2-1.1-0.5-2.2-1-3.2c-0.2-0.5-0.5-1-0.9-1.4
				c-0.4-0.4-0.9-0.8-1.3-1.1L54.3,65.8z"/>
			<path class="st16" d="M52.4,85.4c0.6,0.6,1.2,1.1,2,1.4c0.9,0.4,2.7,0.2,4.5-0.3C57.8,83.9,53.5,84.1,52.4,85.4z"/>
			<g>
				<path class="st11" d="M78.6,65.6c-0.6,0.5-1.1,1-1.6,1.6c-0.3,0.3-0.5,0.6-0.8,0.8c-0.2,0.3-0.5,0.6-0.7,0.9l0.1,0.1
					c0.3-0.2,0.6-0.5,0.8-0.8c0.3-0.3,0.5-0.5,0.8-0.8c0.5-0.6,1-1.1,1.5-1.7L78.6,65.6z"/>
				<path class="st11" d="M80.3,66.3c-0.6,0.6-1.2,1.2-1.8,1.8c-0.3,0.3-0.6,0.6-0.8,1c-0.3,0.3-0.5,0.7-0.8,1l0.1,0.1
					c0.3-0.3,0.6-0.6,0.9-0.9c0.3-0.3,0.6-0.6,0.9-0.9c0.6-0.6,1.1-1.3,1.6-2L80.3,66.3z"/>
				<path class="st11" d="M80,69.5c-0.4,0.3-0.7,0.6-1,0.9c-0.2,0.2-0.3,0.3-0.5,0.5c-0.1,0.2-0.3,0.4-0.4,0.6l0.1,0.1
					c0.2-0.1,0.4-0.3,0.5-0.4c0.2-0.2,0.3-0.3,0.5-0.5C79.6,70.3,79.9,70,80,69.5L80,69.5z"/>
			</g>
			<g>
				<path class="st20" d="M58,50c0,0.4-0.2,0.6-0.5,0.6c-0.2,0-0.4-0.3-0.4-0.7c0-0.4,0.2-0.6,0.5-0.6C57.8,49.3,58,49.6,58,50z"/>
				<path class="st20" d="M58.5,48.9c-0.2-0.4-0.7-0.6-1.1-0.6c-0.2,0-0.4,0.1-0.6,0.2c-0.2,0.1-0.3,0.3-0.4,0.5l0.1,0.1
					c0.2-0.1,0.3-0.2,0.5-0.3c0.2-0.1,0.3-0.1,0.5-0.2c0.2,0,0.3,0,0.5,0.1c0.2,0.1,0.3,0.1,0.5,0.3L58.5,48.9z"/>
				<path class="st20" d="M61.1,50c0,0.4,0.1,0.7,0.4,0.7c0.2,0,0.5-0.3,0.5-0.6c0-0.4-0.1-0.7-0.4-0.7C61.3,49.4,61.1,49.7,61.1,50
					z"/>
				<path class="st20" d="M60.7,49c0.3-0.2,0.7-0.3,1-0.3c0.2,0,0.3,0.1,0.5,0.2c0.1,0.1,0.3,0.2,0.4,0.4l0.1-0.1
					c-0.1-0.2-0.2-0.4-0.3-0.6c-0.2-0.2-0.4-0.3-0.6-0.3c-0.5,0-0.9,0.2-1.2,0.5L60.7,49z"/>
				<path class="st15" d="M58.2,53.6l2.7-0.1l0,0C60.3,54.8,59.4,55.2,58.2,53.6L58.2,53.6z"/>
				<path class="st11" d="M59.6,49.7c-0.1,0.3-0.1,0.7-0.1,1c0,0.2,0.1,0.4,0.3,0.5c0.1,0.1,0.3,0.2,0.3,0.3
					c0.2,0.2,0.1,0.5-0.1,0.7c-0.2,0.2-0.6,0.2-0.8,0l-0.1,0.1c0.3,0.2,0.7,0.3,1.1,0.1c0.2-0.1,0.3-0.3,0.3-0.5
					c0-0.2,0-0.4-0.1-0.6c-0.1-0.2-0.3-0.2-0.4-0.4c-0.1-0.1-0.2-0.2-0.2-0.4c-0.1-0.3-0.1-0.6-0.1-1L59.6,49.7z"/>
				<circle class="st16" cx="55.8" cy="52.6" r="1.6"/>
				<path class="st16" d="M62.7,54.3c0.3-0.9,0.5-2,0.6-3.2c-0.8,0-1.5,0.6-1.6,1.4C61.6,53.2,62,54,62.7,54.3z"/>
			</g>
			<g>
				<path class="st9" d="M53.3,49.5c-0.5-0.6-1.2-1-2-0.8c-1.2,0.2-1,4.8,1.9,4C53.7,52.6,53.3,49.5,53.3,49.5z"/>
				<path class="st11" d="M52.3,50.3c0.1-0.3,0.1-0.7-0.2-0.9c-0.1-0.1-0.4-0.2-0.5-0.1c-0.2,0.1-0.3,0.2-0.4,0.3l0.1,0.1
					c0.1-0.1,0.2-0.1,0.4-0.1c0.1,0,0.2,0,0.3,0.1c0.2,0.1,0.2,0.4,0.3,0.7L52.3,50.3z"/>
			</g>
		</g>
	</g>
	<g>
		<rect x="10" y="175.9" class="st8" width="176.6" height="0.5"/>
	</g>
</g>
</svg>
