<?xml version="1.0" encoding="utf-8"?>
<!-- Generator: Adobe Illustrator 24.0.3, SVG Export Plug-In . SVG Version: 6.00 Build 0)  -->
<svg version="1.1" id="Layer_1" xmlns="http://www.w3.org/2000/svg" xmlns:xlink="http://www.w3.org/1999/xlink" x="0px" y="0px"
	 viewBox="0 0 106 79" style="enable-background:new 0 0 106 79;" xml:space="preserve">
<style type="text/css">
	.st0{fill:#2E5B99;}
	.st1{fill:#E6F6FF;}
	.st2{fill:#FFFFFF;}
	.st3{fill:#0F4599;}
	.st4{fill:#BAE2FF;}
	.st5{fill:#1480CC;}
	.st6{fill:#EBF3FF;}
	.st7{fill:#3397FF;}
	.st8{fill:#E3EEFF;}
	.st9{fill:#CCE5FF;}
	.st10{fill:#66B8FF;}
	.st11{opacity:0.5;enable-background:new    ;}
	.st12{fill:#61B3F2;}
	.st13{fill:#2E97E6;}
	.st14{fill:#0E0E0E;}
	.st15{fill:#2475B3;}
	.st16{fill:#3F9EE6;}
	.st17{fill:#1A5380;}
	.st18{fill:#E6E6E6;}
	.st19{fill:#999999;}
	.st20{fill:#808080;}
	.st21{fill:#666666;}
	.st22{fill:#F7AF0C;}
	.st23{fill:#CC840A;}
	.st24{fill:#803D00;}
	.st25{fill:#E6950B;}
	.st26{fill:#F7E4AD;}
	.st27{fill:#4582E6;}
	.st28{fill:#3D73CC;}
	.st29{fill:#002E73;}
	.st30{fill:#231F20;}
	.st31{fill:#F7A594;}
	.st32{fill:#E6836F;}
	.st33{fill:#73382A;}
	.st34{fill:#D9FFFF;}
	.st35{fill:#007880;}
	.st36{fill:#008F99;}
</style>
<g id="shadow">
	<path class="st0" d="M93.8,69.4H9.2c-0.2,0-0.3-0.1-0.3-0.3s0.1-0.3,0.3-0.3h84.6c0.2,0,0.3,0.1,0.3,0.3S94,69.4,93.8,69.4z"/>
	<rect x="67.4" y="14.8" class="st1" width="27.2" height="25.4"/>
	<rect x="22.3" y="43.5" class="st1" width="18.3" height="16.4"/>
</g>
<g id="folder">
	<g>
		<path class="st2" d="M63.9,30.6v-2.3c0-1,0.8-1.9,1.9-1.9h20c1,0,1.9,0.8,1.9,1.9v40.4H35.9V30.6H63.9z"/>
		<path class="st3" d="M63.7,30.6v-2.3c0-1,0.8-1.9,1.9-1.9h20c1,0,1.9,0.8,1.9,1.9v40.4H35.8V30.6H63.7z"/>
		<polygon class="st4" points="85.8,32.2 85.8,68.7 37.9,68.7 37.9,32 		"/>
		<polygon class="st5" points="83.1,32.2 83.1,68.7 35.2,68.7 35.2,32 		"/>
		<path class="st2" d="M33.3,30.6h47.3c1,0,1.7,0.7,1.8,1.6v36.5H30.8V33.1C30.8,31.8,32,30.6,33.3,30.6z"/>
		<g>
			<g>
				
					<rect x="54" y="19.9" transform="matrix(2.800557e-03 -1 1 2.800557e-03 30.6226 98.1443)" class="st6" width="21" height="27.7"/>
				
					<rect x="54.9" y="20.4" transform="matrix(2.800537e-03 -1 1 2.800537e-03 30.7937 97.9823)" class="st7" width="19.3" height="26.2"/>
				<polygon class="st8" points="75.4,41.7 58.5,41.7 67.8,32.8 				"/>
				<polygon class="st8" points="67.7,41.7 53.6,41.6 61.2,34.3 				"/>
				<ellipse class="st8" cx="62.5" cy="30.8" rx="2" ry="2"/>
			</g>
		</g>
		<g>
			<g>
				
					<rect x="48.7" y="17.7" transform="matrix(3.204657e-03 -1 1 3.204657e-03 29.0719 90.2919)" class="st6" width="22.3" height="25.6"/>
				
					<rect x="49.6" y="18.3" transform="matrix(3.223715e-03 -1 1 3.223715e-03 29.2618 90.1342)" class="st7" width="20.5" height="24.2"/>
			</g>
			<g>
				<rect x="60" y="23" class="st9" width="9.6" height="0.8"/>
				<rect x="50" y="25.3" class="st9" width="19.6" height="0.8"/>
				<rect x="50" y="27.6" class="st9" width="19.6" height="0.8"/>
			</g>
		</g>
		<path class="st10" d="M33.1,30.6h47.3c1,0,1.7,0.7,1.8,1.6v36.7H30.6V33.1C30.6,31.8,31.7,30.6,33.1,30.6z"/>
		<rect x="82.4" y="68.5" class="st2" width="5.2" height="0.2"/>
		<polygon class="st11" points="87.6,46.1 85.8,47.3 83.2,47.3 82.4,47.9 82.4,47.4 30.8,47.4 30.8,46.1 		"/>
		<g>
			<g>
				<rect x="29.7" y="40" class="st12" width="58.6" height="6.6"/>
				<rect x="29.7" y="40" class="st13" width="53.4" height="6.6"/>
			</g>
		</g>
		<g>
			<polygon class="st14" points="68.4,40 68.4,46.6 63.7,46.6 67,40 			"/>
			<g>
				<g>
					<path class="st15" d="M66.8,43.3c0,0.9,0.2,1.7,0.4,2.3c0.3,0.6,0.6,1,1,1h1.2V40h-1.2C67.4,40,66.8,41.5,66.8,43.3z
						 M67.9,44.4c-0.2-0.1-0.4-0.5-0.4-1.1c0-0.6,0.2-1,0.4-1.1c0.2,0.1,0.4,0.5,0.4,1.1C68.3,43.9,68.2,44.3,67.9,44.4z"/>
					<g>
						<path class="st16" d="M67.4,43.3c0,0.9,0.2,1.7,0.4,2.3c0.3,0.6,0.7,1,1.1,1h0.5V40h-0.5C68.1,40,67.4,41.5,67.4,43.3z
							 M68,43.3c0-0.6,0.3-1,0.6-1.1c0.2,0.1,0.4,0.5,0.4,1.1c0,0.6-0.2,1-0.4,1.1C68.3,44.3,68,43.9,68,43.3z"/>
					</g>
				</g>
				<g>
					<path class="st15" d="M67.3,43.3c0,0.9,0.2,1.7,0.4,2.3c0.3,0.6,0.6,1,1,1H70V40h-1.2C68,40,67.3,41.5,67.3,43.3z M68.5,44.4
						c-0.2-0.1-0.4-0.5-0.4-1.1c0-0.6,0.2-1,0.4-1.1c0.2,0.1,0.4,0.5,0.4,1.1C68.9,43.9,68.7,44.3,68.5,44.4z"/>
					<g>
						<path class="st12" d="M68,43.3c0,0.9,0.2,1.7,0.4,2.3c0.3,0.6,0.7,1,1.1,1H70V40h-0.5C68.6,40,68,41.5,68,43.3z M68.6,43.3
							c0-0.6,0.2-1,0.4-1.1c0.2,0.1,0.4,0.5,0.4,1.1c0,0.6-0.2,1-0.4,1.1C68.7,44.3,68.6,43.9,68.6,43.3z"/>
					</g>
					<path class="st17" d="M68.8,46.7c-0.1,0-0.3,0-0.7-0.3c-0.4-0.3-0.8-1.1-0.8-2.9c0-1.7,0.4-2.5,0.7-3c0.4-0.5,0.7-0.5,0.7-0.5
						c0,0,0,0,0.1,0c0,0,0,0,0,0.1l0,0c0,0-0.3,0.1-0.7,0.5c-0.3,0.4-0.7,1.3-0.7,2.9c0,1.7,0.4,2.5,0.8,2.8
						C68.5,46.6,68.8,46.6,68.8,46.7C68.8,46.6,68.9,46.6,68.8,46.7C68.8,46.7,68.8,46.7,68.8,46.7L68.8,46.7z"/>
				</g>
			</g>
			<g>
				<path class="st18" d="M69,44.3c0.1,0,0.1,0,0.2,0c0,0,0,0,0,0c2.3,0.7,4.1,2.9,4.1,5.4v5.5h1.9v-5.5c0-3.6-2.5-6.6-5.9-7.3
					c-0.1,0-0.2,0-0.2-0.1C68.4,42.3,68.4,44.2,69,44.3z"/>
				<path class="st18" d="M66.8,42.3v1.9c-2.4,0.3-4.3,2.1-4.9,4.4c0,0.1,0,0.1,0,0.2c0,0.1,0,0.2-0.1,0.4c0,0.2,0,0.5,0,0.7v5.5
					h-1.8v-5.5C59.9,45.9,63,42.7,66.8,42.3z"/>
				<path class="st19" d="M68.9,43.8c4.4,0.8,4.9,5.5,4.9,5.5v6h-0.7v-5.5c0-2.6-1.8-4.8-4.2-5.5c-0.2-0.1-0.3-0.6-0.3-0.6
					S68.8,43.7,68.9,43.8z"/>
				<path class="st20" d="M66.8,43.8v0.4c-2.4,0.3-4.3,2.1-4.9,4.4C62,47.2,63.2,44.3,66.8,43.8z"/>
				<path class="st21" d="M69,44.3c0.1,0,0.1,0,0.2,0c0-0.1-0.3-0.4-0.3-0.9c0-0.6,0.2-1,0.4-1c-0.1,0-0.2,0-0.2-0.1
					C68.4,42.3,68.4,44.2,69,44.3z"/>
			</g>
			<g>
				<rect x="58.3" y="53.8" class="st22" width="18.3" height="15"/>
				<g>
					<path class="st23" d="M67.8,57.6c-0.1,0-0.1,0-0.2,0c-1.2,0-2.3,1-2.3,2.3c0,0.9,0.6,1.7,1.3,2.1v3.9c0,0.5,0.4,0.9,0.9,0.9
						c0,0,0.1,0,0.2,0h0c0.4-0.1,0.7-0.5,0.7-0.9v-3.9c0.8-0.3,1.3-1.2,1.3-2.1C69.9,58.6,69,57.6,67.8,57.6z"/>
					<path class="st24" d="M67.8,57.6c-1.2,0.1-2.1,1.1-2.1,2.3c0,0.9,0.6,1.7,1.3,2.1v3.9c0,0.5,0.3,0.8,0.7,0.9h0
						c0.4-0.1,0.7-0.5,0.7-0.9v-3.9c0.8-0.3,1.3-1.2,1.3-2.1C69.9,58.6,69,57.6,67.8,57.6z"/>
				</g>
				<path class="st25" d="M64.2,68.8h-5.8v-15h1.6C59.9,53.8,59.5,64.9,64.2,68.8z"/>
				<path class="st26" d="M72.8,68.8c1.4-3,1.1-11,1.1-15h1.8v15H72.8z"/>
			</g>
		</g>
	</g>
</g>
<g id="super_hero">
	<g>
		<g>
			<path class="st27" d="M53.8,54.9c0,0-1.9-0.1-3.7,0c-1.9,0.1-3.8,0.3-3.5,1c0.1,0.2,0.1,0.3,0,0.4c-0.4,1.8-7.4,3.1-9,2
				c-1.2-0.8-4.4,0.2-5.7,0.8c-2.5-16.7-2.5-33.7-0.3-34.9c2.2-1.2,8.3,0.3,8.3,0.3s3.1,0.8,4.4,9.3C45.5,42.4,53.8,54.9,53.8,54.9z
				"/>
			<path class="st28" d="M46.5,56c0.1,0.2,0.1,0.3,0,0.4c-1.9-5.8-6.4-22.4-4.8-17.9c1.6,4.4,6.5,13.2,8.3,16.4
				C48.2,55.1,46.3,55.3,46.5,56z"/>
			<g>
				<g>
					<g>
						<path class="st29" d="M31.4,28.8c-1.8,2.2-2.1,2.8-3.8,2.9c0.6,0.4,0.9,0.8,1.1,1.4l0,0c0.5,1.1,0.6,2.4,1.4,3.1l-1,1
							l-0.3,0.3c0,0,0,0-0.1-0.1c-0.5-0.4-2.3-2.1-3.3-3.7c-0.6-0.9-1-1.8-0.7-2.3c0.4-1.6,1.5-4.8,4.4-5.7c1.8-2,3.7-0.9,4.3-0.1
							C34.1,26.6,33.3,29,31.4,28.8z"/>
						<path class="st30" d="M30.1,36.1l-1,1l-0.4,0.2c-0.4-0.4-2.1-1.9-3.1-3.4c-0.1-0.1-0.1-0.2-0.2-0.3c0.5,0,2.3-0.1,3.3-0.6l0,0
							c0,0.1,0.1,0.2,0.1,0.3C29.2,34.3,29.3,35.4,30.1,36.1z"/>
						<path class="st10" d="M28.8,33.3c-1.2,0.7-2.5,0.7-3.2,0.6c-0.1-0.1-0.1-0.2-0.2-0.3c0.5,0,2.3-0.1,3.3-0.6l0,0
							C28.7,33.1,28.8,33.2,28.8,33.3z"/>
					</g>
					<path class="st30" d="M29.3,35.1c0,0,1.2,0.1,1.6,0.4c0.3,0.3,0.1,0.6,0.1,0.6c0.6,0.4,0,1.7-1.1,2.1c-1.1,0.3-1.8-1.8-1.8-1.8
						S28.2,35.2,29.3,35.1z"/>
				</g>
				<g>
					<g>
						<path class="st30" d="M44.3,68.9h-4c-0.1-0.1-0.2-0.1-0.2-0.2c-0.2-3-0.5-4.4-0.5-4.4l2.8-0.1l0.6,2.2
							C44,67.1,45.1,68.5,44.3,68.9z"/>
						<path class="st30" d="M40,69h4.8c0.1,0,0.1-0.7,0-0.7l-4.7,0C39.8,68.3,39.8,69,40,69z"/>
					</g>
					<path class="st29" d="M38.3,37c0.7,1.7,3.4,9.8,2.6,15.6c1.1,3.8,0.7,7.1,1.7,12.7l-2.9,0.2c-1.2-6.8-2.4-5.5-2.8-12.3
						c-2.4-5.3-3.6-10.4-4.2-15.5C32.2,33.7,37,31.6,38.3,37z"/>
					<g>
						<path class="st30" d="M39.8,65.8c0,0-0.2-2-1.6-5.9c-0.4-1.2-0.7-2-0.8-2.5c-0.1-0.5-0.1-0.7-0.1-0.7c0.7-0.8,1.6-2.1,2.4-3.5
							c0.9,1.4,1.9,2.7,1.9,2.7s0,0.3,0.1,0.8c0.2,2.2,0.8,8,1.1,9.3C43.3,67.5,40.7,68.4,39.8,65.8z"/>
						<path class="st10" d="M41.8,56.7c-0.5-0.5-1.3-1.5-2-2.5c-0.3,1.1-1.6,2.5-2.3,3.1c-0.1-0.5-0.1-0.7-0.1-0.7
							c0.7-0.8,1.6-2.1,2.4-3.5c0.9,1.4,1.9,2.7,1.9,2.7S41.7,56.2,41.8,56.7z"/>
					</g>
				</g>
				<g>
					<path class="st29" d="M34.9,37.8c-0.2,7.6-1.6,14.1-1.6,14.1c0.6,5.2-0.7,6.2-1.3,13.6l-2.6,0c0-3-0.2-6.8-0.4-12.8
						c-1.6-6.3-0.8-11-0.2-14.8C29.5,33.6,35.3,32.1,34.9,37.8z"/>
					<path class="st30" d="M32,65.5c0.2,1.2,0.4,2.2,0.3,3.3L26.1,69c0,0-0.6-0.6,0.2-1.5c0.8-0.9,2.3-0.4,3.2-2L32,65.5z"/>
					<path class="st30" d="M25.8,69h6.7c0.1,0,0.1-0.7,0-0.7l-6.6,0C25.7,68.3,25.7,69,25.8,69z"/>
					<g>
						<path class="st30" d="M33.3,57.1c0,0,0,0.2-0.1,0.6c-0.3,1.6-1.2,6.2-1.1,8.3c-1.2,1.4-2.7-0.2-2.7-0.2l-0.6-11.3l0-0.8
							C30.4,55.6,32.1,56.6,33.3,57.1z"/>
						<path class="st10" d="M33.3,57.1c0,0,0,0.2-0.1,0.6c-2.3-0.7-3.7-2.2-4.4-3.2l0-0.8C30.4,55.6,32.1,56.6,33.3,57.1z"/>
					</g>
				</g>
				<path class="st29" d="M29,37.4c0,1.3,9.4,0.9,9.4-0.4c0-2.2,0.3-4,0.7-5.4c2.8-2.8,2.6-4.9,1.9-6c-1.2-2-7.4-1.9-9.7-1
					c-0.9,0.3-2.1,1.7-2.5,3.9c-0.2,1.1,0.7,2.5,0.8,3.4C30,34,29.1,37.1,29,37.4z"/>
				<path class="st31" d="M34.9,25.4c0.5-0.4,2.3-0.9,2.8-1.3l-0.1-3.2l-1.8-0.2c-0.5,0-1.1,0.2-1.5,0.3l-0.4,2.1l-0.1,0.5
					C33.5,24.1,33.9,24.6,34.9,25.4z"/>
				<path class="st32" d="M37,21.6c-0.3,0.4-1.5,1.6-3.1,1.6l0.3-1.8L37,21.6z"/>
				<g>
					<g>
						<path class="st31" d="M33,17.4c-0.1,0.6-0.4,2-0.4,2.6c0.1,1,1,2.1,1.8,2.2c0.9,0.1,2.1-0.2,2.8-0.7c0.4-0.4,1.1-1.5,1.4-2.4
							c0.7-1.9-0.7-3.5-2.3-3.9C34.5,14.8,33.4,15.4,33,17.4z"/>
						<path class="st33" d="M38,20.3c0.3-0.6-0.1-0.9-0.6-0.4c0.1-0.5,0.6-1.8,0.2-2.3c-0.5-0.5-2.9-0.3-4.2-1.6c0,0,0.9-2.1,4-0.8
							C40.9,17,38,20.3,38,20.3z"/>
						
							<ellipse transform="matrix(0.6391 -0.7691 0.7691 0.6391 -1.7563 36.509)" class="st31" cx="38" cy="20.1" rx="0.8" ry="0.6"/>
					</g>
				</g>
				<path class="st29" d="M33.9,23c0.3,0.6,3.5,0.3,3.8-0.2l0.2,1.8l-3,1.7l-1.6-1.7L33.9,23z"/>
				<path class="st30" d="M39.1,17.1c-0.1-1.6-3.1-3.7-5.2-2.9c-1.5,0.6-1.1,2.1,0.2,2.4C35.1,16.8,38.2,15.5,39.1,17.1z"/>
				<path class="st30" d="M33.6,14.2c0,0,0.1-0.4,0.3-0.8c-1.7,1.1-0.8,2.4-0.8,2.5c0.7-2,2.3-1.9,2.8-1.9
					C34.4,13.3,33.6,14.1,33.6,14.2z"/>
				<path class="st10" d="M28.9,37.9c2.4,1.1,8.1,0.8,9.8,0l0.4,1.4c-3.7,0.9-7.2,0.9-10.5,0L28.9,37.9z"/>
				<g>
					<g>
						<path class="st29" d="M45.3,34.5c-1.6,1.7-5,3.7-5,3.7l-1.1-1.5c1.1-0.6,1.7-2.1,2.7-3.2c0.3-0.4,0.8-0.7,1.2-0.9
							c-1.6-0.4-2.5-0.8-3.9-3.3c-1.9-0.1-2.3-2.6-1.3-3.6c0.8-0.7,2.8-1.4,4.2,0.9c2.6,1.5,3.7,4.6,3.8,6.3
							C46.2,33.3,45.9,33.9,45.3,34.5z"/>
					</g>
					<path class="st30" d="M40.1,35.9c0,0-1.2-0.1-1.6,0.1c-0.3,0.2-0.2,0.6-0.2,0.6c-0.7,0.2-0.3,1.7,0.7,2.3s2.1-1.4,2.1-1.4
						S41.2,36.2,40.1,35.9z"/>
					<path class="st30" d="M45.3,34.5c-0.1,0.1-0.2,0.2-0.3,0.3c-1.7,1.6-4.7,3.4-4.7,3.4l-1.1-1.5c0.9-0.5,1.5-1.7,2.3-2.7
						c0.1-0.2,0.3-0.3,0.4-0.5C42.3,33.7,43.5,34.4,45.3,34.5z"/>
					<path class="st10" d="M45.3,34.5c-0.1,0.1-0.2,0.2-0.3,0.3c-1.5-0.1-2.8-0.6-3.5-0.9c0.1-0.2,0.3-0.3,0.4-0.5
						C42.3,33.7,43.5,34.4,45.3,34.5z"/>
				</g>
				<g>
					<g>
						<g>
							<g>
								<path class="st34" d="M32.9,27.6C32.9,27.6,32.9,27.6,32.9,27.6C32.9,27.6,32.9,27.6,32.9,27.6L32.9,27.6z"/>
								<path class="st34" d="M32.9,27.6C32.9,27.6,32.9,27.6,32.9,27.6C32.9,27.6,32.9,27.6,32.9,27.6L32.9,27.6z"/>
								<path class="st2" d="M34.4,27c0.3,0.5,0.8,0.9,1.4,1.1c0,0,0,0.3-0.2,1.4c-0.2,1.5-1.5,2-1.7,2.1c-0.2-0.1-1.4-1-1.2-2.5
									c0.1-1.1,0.2-1.3,0.2-1.4C33.4,27.6,34,27.3,34.4,27z"/>
							</g>
						</g>
						<path class="st22" d="M34.3,27.7L34.3,27.7c-0.3,0.2-0.7,0.4-1.1,0.4l-0.1,0.9c-0.1,0.4,0.1,0.8,0.3,1.2
							c0.2,0.2,0.3,0.4,0.5,0.5c0,0,0,0,0,0c0.1,0,0.3-0.2,0.6-0.3c0.3-0.3,0.6-0.7,0.6-1.1l0.1-0.9C34.8,28.3,34.5,28,34.3,27.7z"
							/>
					</g>
				</g>
			</g>
			<path class="st10" d="M33.5,24.1c0.2,0.4,0.7,0.8,1.3,1.1c1.2-0.2,2.1-0.6,3.1-1.1c0.9,0,1.5,0.3,2.2,0.6l-5.3,0.9l-3.1-1.2
				C32,24.2,32.6,24.1,33.5,24.1z"/>
		</g>
		<g>
			<g>
				<g>
					<g>
						<path class="st2" d="M43.8,30.9c1.8,1.9,4.8,3.5,7.9,4.2c0,0.2,0,1.4,0.1,6.6c0.1,7-6.6,10.5-7.7,11.1
							c-1-0.5-7.9-3.9-7.9-10.9c-0.1-5.3-0.1-6.4-0.1-6.6C39.1,34.5,42,32.9,43.8,30.9z"/>
					</g>
				</g>
				<g>
					<path class="st35" d="M43.8,32.2c1.8,1.6,4.3,2.9,7,3.6l0.1,6c0,2.7-1,5.2-3.2,7.4c-1.4,1.4-2.9,2.3-3.6,2.7c0,0-0.1,0-0.1-0.1
						L43.8,32.2C43.8,32.2,43.8,32.2,43.8,32.2z"/>
					<path class="st36" d="M43.8,32.2l0.1,19.5c-0.8-0.4-2.2-1.2-3.6-2.6C38.1,47,37,44.6,37,41.8l-0.1-6
						C39.6,35.1,42,33.8,43.8,32.2z"/>
				</g>
			</g>
			<g>
				<path class="st2" d="M40.7,40.8l0,4.6c0,0.5,6.3,0.5,6.3,0l0-4.6L40.7,40.8z M43.1,42.5c0-0.4,0.3-0.8,0.8-0.8s0.8,0.3,0.8,0.8
					c0,0.3-0.2,0.6-0.5,0.7l0,1.3c0,0.2-0.1,0.3-0.3,0.3c-0.2,0-0.3-0.1-0.3-0.3l0-1.3C43.3,43.1,43.1,42.8,43.1,42.5z"/>
				<path class="st2" d="M41.3,40.5h0.6v-0.3c0-1.1,0.9-2,2-2c1.1,0,2,0.9,2,1.9v0.3h0.6v-0.3c0-1.4-1.2-2.6-2.6-2.6
					c-1.4,0-2.6,1.2-2.6,2.6L41.3,40.5z"/>
			</g>
		</g>
	</g>
</g>
</svg>
