<?xml version="1.0" encoding="utf-8"?>
<!-- Generator: Adobe Illustrator 24.0.3, SVG Export Plug-In . SVG Version: 6.00 Build 0)  -->
<svg version="1.1" id="Layer_1" xmlns="http://www.w3.org/2000/svg" xmlns:xlink="http://www.w3.org/1999/xlink" x="0px" y="0px"
	 viewBox="0 0 398 276" style="enable-background:new 0 0 398 276;" xml:space="preserve">
<style type="text/css">
	.st0{display:none;}
	.st1{display:inline;}
	.st2{fill:#407BFF;}
	.st3{opacity:0.9;fill:#FFFFFF;enable-background:new    ;}
	.st4{fill:#EBEBEB;}
	.st5{fill:#E0E0E0;}
	.st6{fill:#F5F5F5;}
	.st7{fill:#0D2A35;}
	.st8{opacity:0.1;fill:#FFFFFF;enable-background:new    ;}
	.st9{fill:#263238;}
	.st10{opacity:0.2;fill:#FFFFFF;enable-background:new    ;}
	.st11{fill:#FFFFFF;}
	.st12{opacity:0.7;fill:#FFFFFF;enable-background:new    ;}
	.st13{fill:#4191FF;}
	.st14{opacity:0.5;fill:#FFFFFF;enable-background:new    ;}
	.st15{opacity:0.6;fill:#FFFFFF;enable-background:new    ;}
	.st16{opacity:0.1;enable-background:new    ;}
	.st17{opacity:0.2;enable-background:new    ;}
	.st18{opacity:0.2;}
	.st19{opacity:0.3;fill:#FFFFFF;enable-background:new    ;}
	.st20{opacity:0.5;enable-background:new    ;}
	.st21{opacity:0.5;}
	.st22{opacity:0.4;fill:#FFFFFF;enable-background:new    ;}
	.st23{opacity:0.3;enable-background:new    ;}
	.st24{opacity:0.8;fill:#FFFFFF;enable-background:new    ;}
	.st25{fill:#EBB376;}
	.st26{fill:#D58745;}
	.st27{fill:#DE5753;}
</style>
<g class="st0">
	<g class="st1">
		<path class="st2" d="M17.9,58C50.3-10.9,165.2-1.2,209.6,47.3s58.8,79.6,98.8,61.4c40-18.1,91.1-13.3,94,44.3
			s-44,125.6-118.4,145.7s-74.4,91.3-172.9,77c-53.7-7.8-54.9-65.9-47.3-114C71.3,213.6-19.7,138,17.9,58L17.9,58z"/>
		<path class="st3" d="M17.9,58C50.3-10.9,165.2-1.2,209.6,47.3s58.8,79.6,98.8,61.4c40-18.1,91.1-13.3,94,44.3
			s-44,125.6-118.4,145.7s-74.4,91.3-172.9,77c-53.7-7.8-54.9-65.9-47.3-114C71.3,213.6-19.7,138,17.9,58L17.9,58z"/>
	</g>
</g>
<g>
	<polygon class="st4" points="123.7,238 127.1,238.5 123.7,239.1 123.1,242.6 122.6,239.1 119,238.5 122.6,238 123.1,234.4 	"/>
	<polygon class="st4" points="124,238.5 126,241.4 123.1,239.4 120.2,241.4 122.3,238.5 120.2,235.6 123.1,237.7 126,235.6 	"/>
	<path class="st5" d="M124,238.5c0,0.5-0.4,0.8-0.8,0.8s-0.8-0.4-0.8-0.8s0.4-0.8,0.8-0.8S124,238.1,124,238.5z"/>
	<polygon class="st4" points="277.1,97.6 280.6,98.1 277.1,98.7 276.6,102.2 276,98.7 272.4,98.1 276,97.6 276.6,94 	"/>
	<polygon class="st4" points="277.4,98.1 279.4,101.1 276.6,98.9 273.7,101.1 275.8,98.1 273.7,95.2 276.6,97.3 279.4,95.2 	"/>
	<path class="st5" d="M277.4,98.1c0,0.5-0.4,0.8-0.8,0.8s-0.8-0.4-0.8-0.8s0.4-0.8,0.8-0.8C277,97.3,277.4,97.7,277.4,98.1z"/>
	<polygon class="st4" points="276.8,231.2 280.2,231.8 276.8,232.4 276.2,235.9 275.6,232.4 272.1,231.8 275.6,231.2 276.2,227.7 	
		"/>
	<polygon class="st4" points="276.9,231.8 279,234.7 276.2,232.7 273.2,234.7 275.3,231.8 273.2,228.9 276.2,231 279,228.9 	"/>
	<path class="st5" d="M276.9,231.8c0,0.5-0.4,0.8-0.8,0.8s-0.8-0.4-0.8-0.8s0.4-0.8,0.8-0.8C276.6,231,276.9,231.4,276.9,231.8z"/>
	<polygon class="st4" points="289,158.2 292,158.7 289,159.3 288.4,162.2 288,159.3 285,158.7 288,158.2 288.4,155.2 	"/>
	<polygon class="st4" points="289.2,158.7 290.9,161.2 288.4,159.4 286,161.2 287.8,158.7 286,156.3 288.4,158 290.9,156.3 	"/>
	<circle class="st5" cx="288.4" cy="158.7" r="0.8"/>
	<polygon class="st4" points="132.7,175 135.7,175.4 132.7,176 132.2,179 131.7,176 128.8,175.4 131.7,175 132.2,172 	"/>
	<polygon class="st4" points="132.9,175.4 134.7,177.9 132.2,176.2 129.7,177.9 131.6,175.4 129.7,173 132.2,174.9 134.7,173 	"/>
	<circle class="st5" cx="132.2" cy="175.4" r="0.8"/>
	<polygon class="st4" points="195.8,228.5 198.7,229 195.8,229.5 195.3,232.5 194.8,229.5 191.8,229 194.8,228.5 195.3,225.6 	"/>
	<polygon class="st4" points="196,229 197.8,231.4 195.3,229.7 192.8,231.4 194.6,229 192.8,226.5 195.3,228.3 197.8,226.5 	"/>
	<path class="st5" d="M196,229c0,0.4-0.3,0.8-0.8,0.8s-0.8-0.3-0.8-0.8s0.3-0.8,0.8-0.8S196,228.6,196,229z"/>
	<polygon class="st4" points="226.7,90.3 229.7,90.8 226.7,91.3 226.2,94.3 225.6,91.3 222.7,90.8 225.6,90.3 226.2,87.4 	"/>
	<polygon class="st4" points="226.9,90.8 228.6,93.3 226.2,91.5 223.7,93.3 225.4,90.8 223.7,88.3 226.2,90.1 228.6,88.3 	"/>
	<path class="st5" d="M226.9,90.8c0,0.4-0.3,0.8-0.8,0.8c-0.4,0-0.8-0.3-0.8-0.8c0-0.4,0.3-0.8,0.8-0.8
		C226.6,90.1,226.9,90.4,226.9,90.8z"/>
	<polygon class="st4" points="151.5,104.5 154.9,105.1 151.5,105.6 150.9,109.2 150.3,105.6 146.8,105.1 150.3,104.5 150.9,101 	"/>
	<polygon class="st4" points="151.7,105.1 153.8,107.9 150.9,105.8 148,107.9 150,105.1 148,102.2 150.9,104.2 153.8,102.2 	"/>
	<path class="st5" d="M151.7,105.1c0,0.5-0.4,0.8-0.8,0.8s-0.8-0.4-0.8-0.8s0.4-0.8,0.8-0.8S151.7,104.6,151.7,105.1z"/>
	<polygon class="st4" points="97.3,215.6 100.7,216.2 97.3,216.8 96.6,220.3 96,216.8 92.6,216.2 96,215.6 96.6,212.1 	"/>
	<path class="st5" d="M97.5,216.2c0,0.5-0.4,0.8-0.8,0.8s-0.8-0.4-0.8-0.8c0-0.5,0.4-0.8,0.8-0.8S97.5,215.7,97.5,216.2z"/>
	<polygon class="st4" points="239.2,172 242.8,172.6 239.2,173.1 238.8,176.7 238.1,173.1 234.5,172.6 238.1,172 238.8,168.5 	"/>
	<polygon class="st4" points="239.5,172.6 241.6,175.4 238.8,173.4 235.8,175.4 237.9,172.6 235.8,169.7 238.8,171.8 241.6,169.7 	
		"/>
	<path class="st5" d="M239.5,172.6c0,0.5-0.4,0.8-0.8,0.8c-0.4,0-0.8-0.4-0.8-0.8c0-0.4,0.4-0.8,0.8-0.8S239.5,172.1,239.5,172.6z"
		/>
	<ellipse class="st6" cx="143.3" cy="51.9" rx="11.2" ry="11.2"/>
	<circle class="st6" cx="219.1" cy="244.4" r="11.2"/>
	<circle class="st6" cx="194.1" cy="186.3" r="6.4"/>
	<ellipse class="st6" cx="99.4" cy="164.4" rx="6.4" ry="6.4"/>
	<path class="st7" d="M187.8,31.1c55.2-1.6,127.1,54.1,127,135.2c-0.1,43.9-67.1,110.8-134.7,102c-67.4-8.7-99.2-65.6-103.6-111.6
		C72.2,110.7,104.1,33.6,187.8,31.1L187.8,31.1z"/>
	<path class="st8" d="M214.1,52.1c-37.3-5.8-74.2,14.7-73.2,19.3s9.8,1.1,15,1.1c5.3-0.1-22.5,18.7-25.3,29.4
		c-2.8,10.6,26.4-21.2,52.6-26.3c26.3-5.2,14.8-7.7,13-11.9s26-8.9,47.8,2c21.7,11,34.6,26.8,40.6,36.2
		C284.6,101.9,270.1,61,214.1,52.1z"/>
	<path class="st8" d="M204.2,99c1.8-8.8,24.2-10.3,41,1.1c16.8,11.5,19.2,24,15.5,23.6c-3.6-0.4,15.3,10,22.1,34.8
		s-0.4,53.7-22.1,69.8c0,0,14.3-14.7,11.7-41.6c-2.6-26.9-33.1-32.4-39.4-39.7c-6.2-7.4-1.3-18.5,10-20.2s1.7-15.6-10.5-15.9
		c-12.3-0.4-21.7,2.6-23.5,0.3c-1.6-2.3-32.4,3-38.6,26.5c-6.1,23.5-14.9,16.8-9.5,0s41.1-33.3,47.7-34.6
		C215.4,101.8,203.8,101.1,204.2,99L204.2,99z"/>
	<path class="st8" d="M130.3,135.1c12.3-5.7-0.8,24.5,3.1,53.1c3.8,28.6,38.9,52,64,49.2c25.2-2.8,40.9-36.9,21.3-49.8
		c0,0,19.7,1,24.1,21.3c4.4,20.4-5.9,38.8-21,39.9c-15,1.1-22.9,10.7-28.4,10.6c-5.6-0.1,2-3.1-1.1-7.2s-25.6-0.4-52.7-13.1
		c-27.2-12.7-32.9-25.7-38-44.1s5.8,2.9,11.5-0.6c5.6-3.4,0.5-12.5,1.1-21.5c0.7-8.9,4.6-17.4,10-11.5
		C129.6,167.5,124.4,137.9,130.3,135.1L130.3,135.1z"/>
	<polygon class="st9" points="114.7,203.7 115.4,202.8 114.5,203.5 114.3,202.4 114.2,203.5 113.4,202.8 113.9,203.7 113,203.9 
		113.9,203.9 113.4,204.8 114.2,204.2 114.3,205.2 114.5,204.2 115.4,204.8 114.7,203.9 115.8,203.9 	"/>
	<polygon class="st9" points="290.6,184.7 291.2,183.9 290.4,184.5 290.2,183.6 290.1,184.5 289.3,183.9 289.9,184.7 288.8,184.9 
		289.9,185.1 289.3,186 290.1,185.4 290.2,186.3 290.4,185.4 291.2,186 290.6,185.1 291.6,184.9 	"/>
	<polygon class="st9" points="203.6,217.3 204.2,216.4 203.3,217 203.2,216 203.1,217 202.3,216.4 202.9,217.3 201.9,217.4 
		202.9,217.5 202.3,218.4 203.1,217.7 203.2,218.8 203.3,217.7 204.2,218.4 203.6,217.5 204.6,217.4 	"/>
	<polygon class="st9" points="121,179.4 122.1,178.1 120.6,179.1 120.4,177.3 120.1,179.1 118.7,178.1 119.7,179.4 118,179.8 
		119.7,180.1 118.7,181.5 120.1,180.5 120.4,182.2 120.6,180.5 122.1,181.5 121,180.1 122.7,179.8 	"/>
	<polygon class="st9" points="98.4,135 99.4,133.6 98.1,134.7 97.8,132.9 97.5,134.7 96,133.6 97,135 95.4,135.2 97,135.6 96,136.9 
		97.5,136 97.8,137.7 98.1,136 99.4,136.9 98.4,135.6 100.2,135.2 	"/>
	<polygon class="st9" points="214.3,53.2 215.4,51.8 214,52.8 213.7,51.1 213.4,52.8 212,51.8 213,53.2 211.3,53.5 213,53.8 
		212,55.2 213.4,54.2 213.7,55.9 214,54.2 215.4,55.2 214.3,53.8 216.1,53.5 	"/>
	<polygon class="st9" points="183.3,56 184.4,54.6 183,55.6 182.7,53.9 182.4,55.6 180.9,54.6 182,56 180.3,56.3 182,56.5 180.9,58 
		182.4,56.9 182.7,58.7 183,56.9 184.4,58 183.3,56.5 185.1,56.3 	"/>
	<polygon class="st10" points="114.5,203.7 115.8,203.9 114.5,204 114.3,205.2 114.1,204 113,203.9 114.1,203.7 114.3,202.4 	"/>
	<polygon class="st10" points="114.6,203.9 115.4,204.8 114.3,204 113.4,204.8 114.1,203.9 113.4,202.8 114.3,203.6 115.4,202.8 	
		"/>
	<path class="st11" d="M114.6,203.9c0,0.1-0.1,0.3-0.3,0.3c-0.1,0-0.3-0.1-0.3-0.3c0-0.1,0.1-0.3,0.3-0.3
		C114.5,203.6,114.6,203.7,114.6,203.9z"/>
	<polygon class="st10" points="290.4,184.7 291.6,184.9 290.4,185.2 290.2,186.3 290.1,185.2 288.8,184.9 290.1,184.7 290.2,183.6 	
		"/>
	<polygon class="st10" points="290.5,184.9 291.2,186 290.2,185.2 289.3,186 290,184.9 289.3,183.9 290.2,184.7 291.2,183.9 	"/>
	<path class="st11" d="M290.5,184.9c0,0.1-0.1,0.3-0.3,0.3c-0.1,0-0.3-0.1-0.3-0.3c0-0.1,0.1-0.3,0.3-0.3
		C290.4,184.7,290.5,184.7,290.5,184.9z"/>
	<polygon class="st10" points="203.4,217.2 204.6,217.4 203.4,217.5 203.2,218.8 203.1,217.5 201.9,217.4 203.1,217.2 203.2,216 	
		"/>
	<polygon class="st10" points="203.5,217.4 204.2,218.4 203.2,217.7 202.3,218.4 203,217.4 202.3,216.5 203.2,217.2 204.2,216.5 	
		"/>
	<path class="st11" d="M203.5,217.4c0,0.1-0.1,0.3-0.3,0.3s-0.3-0.1-0.3-0.3s0.1-0.3,0.3-0.3C203.4,217.1,203.5,217.3,203.5,217.4z"
		/>
	<polygon class="st10" points="120.7,179.4 122.7,179.8 120.7,180.1 120.4,182.2 120,180.1 118,179.8 120,179.4 120.4,177.3 	"/>
	<polygon class="st10" points="120.8,179.8 122.1,181.5 120.4,180.3 118.7,181.5 119.9,179.8 118.7,178.1 120.4,179.3 122.1,178.1 	
		"/>
	<circle class="st11" cx="120.4" cy="179.8" r="0.5"/>
	<polygon class="st10" points="98.1,134.9 100.2,135.2 98.1,135.7 97.8,137.7 97.4,135.7 95.4,135.2 97.4,134.9 97.8,132.9 	"/>
	<polygon class="st10" points="98.2,135.2 99.4,136.9 97.8,135.8 96,136.9 97.3,135.2 96,133.6 97.8,134.8 99.4,133.6 	"/>
	<path class="st11" d="M98.2,135.2c0,0.3-0.2,0.5-0.5,0.5s-0.5-0.2-0.5-0.5s0.2-0.5,0.5-0.5C98.1,134.7,98.2,135,98.2,135.2z"/>
	<polygon class="st10" points="214,53.2 216.1,53.5 214,53.8 213.7,55.9 213.3,53.8 211.3,53.5 213.3,53.2 213.7,51.1 	"/>
	<polygon class="st10" points="214.2,53.5 215.4,55.2 213.7,54 212,55.2 213.2,53.5 212,51.8 213.7,53 215.4,51.8 	"/>
	<circle class="st11" cx="213.7" cy="53.5" r="0.5"/>
	<polygon class="st10" points="183,55.9 185.1,56.3 183,56.6 182.7,58.7 182.3,56.6 180.3,56.3 182.3,55.9 182.7,53.9 	"/>
	<polygon class="st10" points="183.1,56.3 184.4,58 182.7,56.7 180.9,58 182.2,56.3 180.9,54.6 182.7,55.8 184.4,54.6 	"/>
	<circle class="st11" cx="182.7" cy="56.3" r="0.5"/>
	<polygon class="st12" points="267.8,73.2 271.2,73.8 267.8,74.4 267.2,77.9 266.5,74.4 263.1,73.8 266.5,73.2 267.2,69.8 	"/>
	<polygon class="st12" points="179.3,211.5 182.9,212.1 179.3,212.7 178.7,216.2 178.2,212.7 174.7,212.1 178.2,211.5 178.7,208 	
		"/>
	<polygon class="st12" points="126.3,81.4 129.9,82 126.3,82.6 125.7,86.1 125.2,82.6 121.7,82 125.2,81.4 125.7,77.9 	"/>
	<polygon class="st9" points="88.4,170.7 89.1,170 88.2,170.4 88,169.5 87.8,170.4 87,170 87.6,170.7 86.7,170.8 87.6,171 87,171.9 
		87.8,171.2 88,172.3 88.2,171.2 89.1,171.9 88.4,171 89.4,170.8 	"/>
	<polygon class="st10" points="88.2,170.7 89.4,170.8 88.2,171 88,172.3 87.8,171 86.7,170.8 87.8,170.7 88,169.5 	"/>
	<polygon class="st10" points="88.3,170.8 89.1,171.9 88,171.2 87,171.9 87.8,170.8 87,170 88,170.6 89.1,170 	"/>
	<path class="st11" d="M88.3,170.8c0,0.1-0.1,0.3-0.3,0.3s-0.3-0.1-0.3-0.3c0-0.1,0.1-0.3,0.3-0.3S88.3,170.7,88.3,170.8z"/>
	<polygon class="st9" points="167.4,154.9 168,154.1 167.2,154.7 167.1,153.7 166.9,154.7 166.1,154.1 166.7,154.9 165.6,155 
		166.7,155.2 166.1,156.1 166.9,155.4 167.1,156.5 167.2,155.4 168,156.1 167.4,155.2 168.4,155 	"/>
	<polygon class="st10" points="167.3,154.8 168.4,155 167.3,155.2 167.1,156.5 166.9,155.2 165.6,155 166.9,154.8 167.1,153.7 	"/>
	<polygon class="st10" points="167.3,155 168,156.1 167.1,155.4 166.1,156.1 166.7,155 166.1,154.1 167.1,154.8 168,154.1 	"/>
	<path class="st11" d="M167.3,155c0,0.1-0.1,0.3-0.3,0.3s-0.3-0.1-0.3-0.3s0.1-0.3,0.3-0.3S167.3,154.9,167.3,155z"/>
	<polygon class="st9" points="140.5,119.4 141,118.6 140.2,119.1 140,118.2 139.9,119.1 139,118.6 139.6,119.4 138.6,119.5 
		139.6,119.7 139,120.5 139.9,119.9 140,121 140.2,119.9 141,120.5 140.5,119.7 141.4,119.5 	"/>
	<polygon class="st10" points="140.2,119.3 141.4,119.5 140.2,119.7 140,121 139.8,119.7 138.6,119.5 139.8,119.3 140,118.2 	"/>
	<polygon class="st10" points="140.4,119.5 141,120.5 140,119.8 139,120.5 139.8,119.5 139,118.6 140,119.2 141,118.6 	"/>
	<path class="st11" d="M140.4,119.5c0,0.1-0.1,0.3-0.3,0.3c-0.1,0-0.3-0.1-0.3-0.3c0-0.1,0.1-0.3,0.3-0.3
		C140.2,119.2,140.4,119.4,140.4,119.5z"/>
	<circle class="st13" cx="133.6" cy="52.7" r="8.3"/>
	<circle class="st10" cx="133.6" cy="52.7" r="8.3"/>
	<path class="st14" d="M125.2,53.3c1.1-0.5,1.5-1,1.4-0.3c-0.1,0.6,0,1.5,0,1.5s0.2,0.3,0.7,0.2s0.5-0.2,0.7-0.2
		c0.2,0,1.6,0.1,1.1,0.6s-0.3,0.8-0.7,1c-0.4,0.1-0.5,0.7-0.6,0.8c-0.1,0.1-0.5,0.5-0.5,0.5l-1,0.3c0.3,0.4,0.6,0.8,1,1.1
		c0.2,0.2,0.4,0.4,0.7,0.6c0.2-0.1,0.5-0.3,0.8-0.3c0.5,0,0.5,0.3,0.8,0.3c0.3,0.1,0.2,0,0.2,0s0.2,0.3,0.5,0.1c0.3-0.1,1.1,0,1.1,0
		s0.8-0.3,1.1-0.1s0.3,0.1,0.4,0.4c0,0.2,0,0.6-0.4,1.2c0.9,0.1,1.8,0,2.6-0.2c-0.3-0.2-0.2-1.5-0.5-2.1s-0.3-0.8-0.2-1
		c0.1-0.3,0.3,0,0.5,0s0.5-0.2,0.5-0.6c0.1-0.4,0.2-0.9,0.2-0.9s0.3-0.6,0.5-0.6c0.1,0,0.6,0.1,0.8-0.1c0.1-0.1,0.1-0.2,0.2-0.4
		c0.1-0.2,0.1-1.1-0.1-1c-0.2,0.1-0.5-0.1-0.5-0.1s-0.5-0.1-0.7-0.1s-0.1-0.3-0.1-0.3s0.7-0.4,0.7-0.5s-0.3-0.2-0.3-0.6
		c-0.1-0.5,0.3-0.5,0.8-0.3c0.4,0.1,0,0.2,0,0.5s0.1,0.3,0.5,0c0.5-0.3,0.3,0,0.5,0c0.1,0,0.7,0.1,0.7,0.1s-0.1,0.9,0,1.8
		c0.1,1,1.3,0.1,1.8-0.3c0.2-0.1,0.8-0.1,1.2,0.2c0.5-2.2,0.1-4.6-1.3-6.5c0,0-0.1,0.1-0.1,0c-0.1-0.1-0.7,0.1-0.8,0s-0.6,0.1-0.8,0
		c-0.3-0.1-0.4-0.4-0.5-0.8c0-0.4-0.2-0.9-0.4-1.3c-0.1-0.1-0.1-0.2,0-0.3c-2-1.2-4.5-1.5-6.8-0.9c0.3,0.5,0.5,1.1,0.2,1.3
		c-0.7,0.5-0.3,1,0.1,1.3c0.5,0.4,0.1,0.8,0,1s-0.4,0.5-0.1,0.7c0.3,0.2,0.8,0.4,0.4,0.6s-0.1,0.8-0.8,0.3c-0.6-0.5-0.4-1-0.9-1
		s-0.5,0.5-1.1,0.8c-0.6,0.2-0.7,0.1-0.9,0.1c-0.2-0.1-0.2-0.5-0.6-1s-0.9-0.1-1,0.1s-0.2,1.1,0,1.1s-0.1,0.7-0.4,0.8
		c-0.3,0.1-0.8-0.5-0.9-0.1v0.1v0.1C125.2,51.7,125.1,52.5,125.2,53.3L125.2,53.3z M133.8,57.3c-0.6,0.1,0,0-0.6-0.7
		s0.3-0.2,0.3-0.2s0.2-0.6,0.3-1c0.1-0.5,0.6,0,1,0c0.3,0,0.6,0.5,0.3,1c0,0,0,0.3-0.3,0.3C134.4,56.6,134.4,57.1,133.8,57.3z
		 M133.6,58.3c0.2-0.1,0.6,0.1,0.5,0.6l-0.5,0.1c0,0-0.4-0.3-0.5-0.5C132.8,58.4,133.4,58.4,133.6,58.3z M129.1,51.9
		c0-0.3,0.1-0.7,0.4-0.8c0.5-0.1,0.6,0.3,1,0.4s0.3,1.1,0.3,1.1s0.1,0.6-0.6,0.4c-0.8-0.2-1.1-0.1-1.1-0.3
		C128.9,52.5,129.1,52.2,129.1,51.9z"/>
	<path class="st13" d="M147,49.2c0,0.8-0.6,1.2-1.2,1.2c-0.7,0-1.2-0.6-1.2-1.2c0-0.7,0.6-1.2,1.2-1.2C146.4,47.9,147,48.5,147,49.2
		z"/>
	<path class="st15" d="M147,49.2c0,0.8-0.6,1.2-1.2,1.2c-0.7,0-1.2-0.6-1.2-1.2c0-0.7,0.6-1.2,1.2-1.2C146.4,47.9,147,48.5,147,49.2
		z"/>
	<circle class="st16" cx="145" cy="49.6" r="0.3"/>
	<path class="st16" d="M146.2,49.1L146.2,49.1C146.1,49.2,146.1,49.1,146.2,49.1C146.1,49.1,146.1,49,146.2,49.1L146.2,49.1z"/>
	<path class="st16" d="M145.5,50.1C145.5,50.1,145.4,50.2,145.5,50.1C145.4,50.2,145.4,50.1,145.5,50.1
		C145.4,50.1,145.4,50,145.5,50.1C145.4,50,145.5,50,145.5,50.1z"/>
	<path class="st16" d="M146,48.1C146,48.1,145.9,48.1,146,48.1C145.9,48.1,145.9,48.1,146,48.1L146,48.1
		C145.9,48.1,146,48.1,146,48.1z"/>
	<path class="st16" d="M146.8,49.2L146.8,49.2C146.7,49.3,146.7,49.2,146.8,49.2C146.7,49.2,146.7,49.2,146.8,49.2L146.8,49.2z"/>
	<path class="st16" d="M144.9,48.8L144.9,48.8C144.8,48.9,144.8,48.8,144.9,48.8C144.8,48.8,144.8,48.7,144.9,48.8L144.9,48.8z"/>
	<path class="st16" d="M145.4,48.5C145.4,48.6,145.3,48.6,145.4,48.5h-0.2C145.2,48.4,145.3,48.4,145.4,48.5
		C145.3,48.4,145.4,48.3,145.4,48.5z"/>
	<path class="st16" d="M146.4,49.9C146.4,50,146.3,50,146.4,49.9h-0.2C146.2,49.8,146.3,49.8,146.4,49.9
		C146.3,49.8,146.4,49.8,146.4,49.9z"/>
	<path class="st13" d="M313.7,144.2c2.9-0.7,5.7,1.1,6.4,4.1c0.7,2.9-1.1,5.7-4.1,6.4c-2.9,0.7-5.7-1.1-6.4-4.1
		C308.9,147.7,310.7,144.9,313.7,144.2L313.7,144.2z"/>
	<path class="st14" d="M313.7,144.2c2.9-0.7,5.7,1.1,6.4,4.1c0.7,2.9-1.1,5.7-4.1,6.4c-2.9,0.7-5.7-1.1-6.4-4.1
		C308.9,147.7,310.7,144.9,313.7,144.2L313.7,144.2z"/>
	<path class="st16" d="M319.7,147.1c-0.1,0.1-0.2-0.1-0.5,0.1c-0.5,0.3-1.1,0.3-1.1,0.3s0,0-0.1,0.1s-0.8-0.1-0.8-0.3
		c0-0.3,0,0,0.5-0.1s0,0,0.1-0.4c0.1-0.3-0.1-0.2-0.3-0.5c-0.1-0.2-0.3-0.2-0.5-0.1c-0.1,0.1-0.1,0.3-0.3,0.3
		c-0.1,0-0.1,0.1-0.1,0.2c-0.1,0.1-0.2,0-0.3,0c-0.1-0.1-0.2-0.1-0.3,0l-0.1,0.1h-0.2c-0.1,0-0.1-0.1-0.1-0.1v-0.1
		c0-0.1,0.1-0.1,0.1-0.2c0.1-0.1,0.1-0.1,0.2-0.1c0-0.1,0-0.1-0.1-0.2h0.2c0.1,0,0.2-0.5,0.2-0.5c0-0.1,0-0.1-0.1-0.1h-0.2
		c-0.1,0-0.2-0.2-0.4-0.2c-0.1,0-0.1,0-0.1,0.1c-0.1,0.1-0.1,0.1-0.1,0.1s-0.1,0-0.1,0.1v0.1c0,0,0,0.1-0.1,0.1
		c0.1,0-0.1,0.1-0.1,0.1c-0.1,0.1-0.4-0.1-0.5-0.1h-0.1v-0.1c-0.1-0.1-0.1-0.2-0.1-0.3c-0.1-0.2-0.1-0.4,0.1-0.5
		c0.1-0.1,0.3,0,0.4-0.2v-0.1c0.1-0.1,0.1,0.1,0.1,0.1v0.3c0.1,0.1,0.2,0.2,0.3,0.1c-0.1-0.1,0.1-0.2,0.1-0.2c0.1,0,0.2,0.1,0.3,0
		c0.1-0.1,0.1-0.1,0.1-0.2s-0.1-0.1-0.1-0.3c-0.1,0.1-0.3,0-0.3-0.1c-0.1-0.1-0.1-0.1-0.3-0.1l0.1-0.1c-0.1-0.1-0.1-0.1-0.2-0.1
		s0.1,0,0.1,0s0-0.1,0.1-0.1c0.3,0,0.8,0.1,1.1,0.1c-0.1,0.2-0.1,0.5,0.4,0.8c0.8,0.3,0,0,0.7-0.3c0.5,0.3,1,0.6,1.3,1
		c-0.1,0.1-0.1,0.1-0.3,0.2c-0.3,0.2,0.1,0.3,0.1,0.3s0,0,0.4,0c0.2,0,0.2,0,0.2-0.1C319.3,146.4,319.5,146.7,319.7,147.1
		L319.7,147.1z"/>
	<path class="st17" d="M311.6,147.5L311.6,147.5c-0.1,0.2-0.3,0.1-0.4,0.2c-0.3,0.1-0.2,0.6-0.5,0.8c-0.1,0.1-0.3,0-0.5,0.1
		c-0.1,0.1-0.1,0.1-0.3,0.2c-0.1,0.1-0.3,0.2-0.5,0.1c0.1-1.1,0.5-2,1.1-2.8h0.1c0.1,0,0.2,0.1,0.2,0.3v0.3c0.1-0.1,0.1-0.1,0.2-0.1
		c0.1,0.1,0.1,0.2,0.1,0.3c-0.1,0.1-0.2,0.1-0.3,0.1c-0.1,0-0.3,0.1-0.3,0.2s0.1,0.2,0.1,0.3c0.1,0.1,0.1,0.2,0.1,0.3
		c0.1-0.1,0.3-0.2,0.5-0.3h0.1C311.5,147.3,311.6,147.4,311.6,147.5L311.6,147.5z"/>
	<path class="st17" d="M312,146.8L312,146.8c0,0.2,0.2,0.2,0.2,0.1c0.1,0,0.1-0.1,0.1-0.1c0.1-0.1,0.1-0.1,0.1-0.2v-0.3
		c0-0.1-0.1-0.2-0.1-0.3c-0.1-0.1-0.2,0-0.3,0.1c-0.1,0.1,0,0.2-0.1,0.3s-0.1,0.1-0.1,0.2C311.8,146.6,311.8,146.7,312,146.8z"/>
	<path class="st17" d="M314.3,144.5c-0.1,0.1-0.4-0.1-0.6,0.1c-0.1,0.1-0.1,0.2-0.3,0.2h-0.2c-0.1,0-0.1,0.1-0.1,0.1s0,0.1,0.1,0.1
		l0.2,0.2c0,0.1,0,0.1-0.1,0.2h-0.2c-0.1,0-0.1,0-0.1-0.1c-0.1,0-0.1-0.1-0.1-0.1l0.1-0.1c0.1-0.1,0.1-0.1,0.1-0.1
		c0-0.1-0.1-0.1-0.1-0.1s-0.1,0-0.1,0.1c-0.1,0.1-0.2,0.1-0.3,0.2c-0.1,0.1-0.3,0.1-0.4,0.1c0,0-0.1,0-0.1-0.1v-0.1V145
		c0.5-0.3,1.1-0.6,1.7-0.8c0.2-0.1,0.4-0.1,0.6-0.1C314.3,144.3,314.4,144.4,314.3,144.5L314.3,144.5z"/>
	<path class="st17" d="M313.1,145.9C313,145.9,313,145.9,313.1,145.9c-0.1,0.2,0,0.2,0,0.2V145.9c0,0.2,0.1,0.2,0.1,0.2
		C313.2,146,313.2,145.9,313.1,145.9C313.2,145.9,313.1,145.9,313.1,145.9z"/>
	<path class="st17" d="M315.5,147.5c-0.1-0.1-0.3-0.1-0.4-0.1s-0.3-0.1-0.3-0.2c0-0.1,0.1-0.1,0.3-0.1c0-0.2-0.1-0.4-0.3-0.3
		c0.1,0.1,0.1,0.2,0,0.3s-0.2,0.2-0.3,0.1c-0.2-0.1,0.1-0.5-0.1-0.6c-0.1-0.1-0.2-0.1-0.3,0c-0.3,0.1-0.7,0.2-0.8,0.5H313
		c-0.1,0.1-0.1,0.3-0.1,0.3v0.1c0,0.1,0.1,0.1,0.1,0.1c0,0.1-0.1,0.1-0.1,0.1c-0.1,0.1,0.2,0.3,0.3,0.3c0.1,0.1,0.3,0,0.4,0.1
		s0.1,0.2,0.1,0.3h-0.1c0.1,0.1,0,0.3-0.1,0.5c0.2-0.1,0.3,0,0.5,0.1l0.1,0.1c0,0,0.1,0,0.1-0.1c0.1-0.1,0.3-0.2,0.3-0.3h0.1
		c0-0.1,0-0.2-0.1-0.1l-0.1,0.1c-0.1,0.1-0.2,0-0.2-0.1s0.1-0.1,0.1-0.3c0-0.1,0.1-0.1,0.1-0.1c0.1-0.1,0.1-0.2,0.3-0.3
		c0.2-0.1,0.4,0.2,0.5,0.3s0.1,0.2,0,0.2h-0.1c-0.1,0,0,0.1-0.1,0.1h-0.1c-0.1,0-0.1,0.1,0,0.2c0.1,0.1,0.1-0.1,0.1-0.1
		c0.1-0.1,0.3,0.1,0.4,0c0.1,0,0.1-0.1,0.1-0.1c0.1-0.1,0.3-0.1,0.4-0.3c0-0.1-0.1-0.2-0.1-0.3C315.5,147.8,315.6,147.6,315.5,147.5
		z"/>
	<path class="st16" d="M311.6,148.7L311.6,148.7c0.2,0,0.4,0.1,0.4,0.2C312,149,311.7,148.8,311.6,148.7c0.1,0.1,0.1,0.2,0.1,0.4
		s-0.1,0.2-0.1,0.3c0.1-0.1,0.2,0.1,0.3,0.1c0.1,0,0.3-0.1,0.5-0.1v-0.2c0.1,0,0.1-0.1,0.1-0.1c0.1-0.1,0.1-0.1,0.2-0.1
		c0.1-0.1,0-0.1,0-0.2c-0.1-0.1-0.1-0.1-0.1-0.1s0-0.1,0.1-0.2h0.2c0.1,0,0.1-0.1,0.1-0.1v-0.1h-0.1c0,0.1,0,0.1-0.1,0.1h-0.1
		c0-0.1,0-0.3-0.1-0.5h-0.2c0,0.1-0.1,0.1-0.1,0.1l-0.1-0.1c-0.1,0-0.1-0.1-0.1-0.1L312,148c0,0.3-0.1,0.2-0.2,0.3
		C311.6,148.5,311.5,148.6,311.6,148.7L311.6,148.7z"/>
	<path class="st16" d="M311.8,151c-0.1,0-0.3,0-0.4-0.1c-0.1,0-0.1-0.1-0.2-0.1s-0.1,0.1-0.1,0.1c0,0.1,0.1,0.1,0.1,0.1
		c0.1,0.1,0.1,0.3,0,0.5c-0.3,0.1-0.5,0-0.8-0.2l-0.1-0.1c-0.1-0.1,0.1-0.2,0.1-0.3s-0.2-0.2-0.1-0.3c0-0.1,0.1-0.1,0.2-0.1
		s0.1-0.1,0.1-0.2c-0.1-0.1-0.3,0-0.5,0.1c-0.1,0-0.1-0.1-0.1-0.3c0-0.1-0.1-0.3-0.2-0.2c-0.1,0-0.1,0.1-0.1,0.1
		c-0.1,0.3,0.1,0.5,0.3,0.7c0.1,0.1,0.1,0.1,0.1,0.1c0,0.1-0.1,0.1-0.1,0.1c0.1,0.1,0.1,0.2,0.2,0.3l0.1,0.1v0.1
		c-0.1,0.1-0.1,0.2-0.2,0.3c-0.2-0.4-0.4-0.9-0.5-1.3c-0.1-0.4-0.1-0.9-0.1-1.2c0.1-0.1,0.1-0.1,0.1-0.1c0.1,0,0.1,0,0.2-0.1
		s0.3-0.3,0.4-0.3c0.1-0.1,0.3,0,0.4,0.1s0.1,0.3,0.1,0.4c0,0.1-0.1,0.2-0.1,0.3c0.1,0.2,0.3,0.2,0.5,0.2c0,0.1,0.1,0.3,0.1,0.3
		c0.1,0.1,0.3-0.1,0.3-0.1c0.1,0,0.3,0.1,0.3,0.2c0,0.1-0.1,0.1-0.1,0.2c-0.1,0.1-0.1,0.1-0.1,0.2c0.1,0.1,0.2,0,0.3,0.1
		C312,150.9,311.8,151,311.8,151L311.8,151z"/>
	<path class="st17" d="M316,154.8h-0.2c-0.1-0.1,0-0.2,0-0.3c0.1-0.1,0.2-0.2,0.3-0.3c0.1-0.1,0.1-0.1,0.1-0.3
		c0.1-0.2,0.4-0.1,0.6-0.1c-0.1-0.1,0-0.2,0.1-0.3s0.2-0.1,0.3-0.1s0.3,0,0.3-0.1l0.1-0.1h0.1c0.2,0,0.4,0.1,0.6,0.1
		c0-0.1-0.1-0.2-0.3-0.3c-0.1,0-0.3,0-0.4-0.1c-0.1,0.3-0.5,0.4-0.8,0.3h-0.1c-0.1-0.1,0.1-0.2,0.1-0.3c-0.1-0.1-0.2-0.1-0.3-0.1
		s-0.1,0-0.1-0.1s0-0.1,0.1-0.2c0.1-0.1,0-0.3-0.1-0.5c-0.1-0.1,0-0.3,0.1-0.3h0.1c0.1,0,0.1-0.1,0.1-0.1c0.1-0.2,0.2-0.3,0.4-0.4
		l0.1-0.1c0.1-0.1,0.3-0.3,0.3-0.5c-0.1,0.1-0.2,0.2-0.3,0.3c-0.1,0.1-0.3,0.2-0.4,0.1c0,0.2-0.1,0.4-0.3,0.5s-0.4-0.1-0.5-0.3v-0.3
		h0.1c0.2,0,0.3-0.1,0.5-0.2c-0.2,0-0.4-0.1-0.5-0.3s-0.1-0.5,0.1-0.5h-0.1c0.1-0.1,0.2-0.3,0.3-0.3h0.3c0.1,0,0.1-0.1,0.1-0.1
		c-0.1-0.1-0.1-0.2-0.1-0.3s0.1-0.2,0.2-0.2c-0.1,0-0.1-0.1-0.1-0.1c0-0.1,0.1-0.1,0.1-0.1h0.2c0.2,0,0.4,0.1,0.5,0.2
		s0.1,0.3,0.1,0.4v0.5c0,0.2,0,0.4,0.1,0.5s0.2,0.1,0.3,0.1c0.3,0,0.5-0.1,0.8-0.1c0.1-0.1,0.3-0.1,0.3-0.3c0.1-0.1,0.1-0.3,0.1-0.4
		c0-0.3,0.1-0.8-0.2-0.9c-0.1-0.1-0.2-0.1-0.3,0s-0.1,0.1-0.1,0.1h-0.3c-0.1,0-0.1,0.1-0.1,0.1c0,0.1-0.1,0.1-0.1,0.1
		c-0.1,0,0-0.1,0-0.2s-0.1-0.3-0.1-0.4s0.1-0.2,0.3-0.3c0.1-0.1,0.1-0.2,0.2-0.3s0.2,0,0.3,0.1c0.1,0.1,0.2,0.1,0.3,0.1
		c0.1,0.1-0.1,0.3,0.1,0.3h0.1v0.1c0,0.1,0.1,0.3,0.2,0.3h0.1v0.2c0-0.2,0-0.3-0.1-0.5l-0.1-0.1v-0.2c0-0.1,0-0.1,0.1-0.1V148
		c0.1-0.1,0.1,0,0.1,0c0.1,0,0.1-0.1,0.1-0.1h0.2c0.1,0.1,0.1,0.3,0.1,0.5C320.8,151.2,319,154.2,316,154.8L316,154.8z"/>
	<path class="st17" d="M315.2,153.1v0.3c-0.1,0.1-0.3,0.1-0.4,0.1c-0.1,0.3,0,0.6,0.3,0.8c-0.1,0.1-0.2,0.1-0.3,0.1
		c-0.1-0.1-0.2-0.1-0.3-0.2c-0.2-0.2-0.4-0.3-0.7-0.5c-0.1,0.1-0.1,0.2,0.1,0.3c0.1,0.1,0.3,0.1,0.3,0.1c0.1,0.1,0,0.3,0.1,0.4
		c0.1,0.1,0.1,0.1,0.2,0.1c0.1,0.1,0.1,0.2,0.1,0.3v0.1c-0.9-0.1-1.6-0.3-2.4-0.7v-0.1c0-0.2,0.2-0.3,0.3-0.5
		c0.1-0.1,0.3-0.3,0.3-0.5c-0.3,0.1-0.3,0.4-0.6,0.5c-0.1,0.1-0.1,0.1-0.2,0.1c-0.1,0.1-0.2,0.1-0.3,0.2c-0.5-0.3-1-0.8-1.3-1.3
		c0.1-0.1,0.1-0.3,0.1-0.5c0.1-0.1,0.1,0.1,0.3,0.1c0.2,0,0.1-0.1,0.3-0.1c0.2,0,0.1,0.3,0.3,0.3c0.1,0,0.2-0.1,0.3-0.1
		c0.1,0,0.3,0.1,0.3,0.1c0.4-0.1,0.1-0.5,0.1-0.8c0-0.1,0.1-0.1,0.3-0.2c0.1-0.1,0.2-0.3,0.2-0.4c0-0.1-0.1-0.3-0.1-0.5
		c-0.1-0.1-0.1-0.3,0-0.4s0.4-0.1,0.6-0.1c0.1-0.1,0.2-0.3,0.3-0.4c0.1-0.1,0.3-0.1,0.4-0.1h0.1c0.1,0.1,0.1,0.1,0.1,0.2
		c-0.1,0.2-0.1,0.5-0.2,0.7c0.2,0.1,0.4,0.1,0.5,0c0-0.1,0.1-0.1,0.1-0.1c0.1-0.1,0.1-0.1,0.2,0l0.2,0.4c-0.3,0-0.7,0.2-0.8,0.5
		c0,0.1,0,0.1-0.1,0.1c-0.1,0.1-0.1,0.1-0.2,0.1c-0.2,0-0.4-0.1-0.6-0.2c-0.2-0.1-0.5,0-0.5,0.2c0.2-0.1,0.3,0.1,0.5,0.2
		c0.1,0.1,0.2,0.1,0.3,0.1c0.3,0,0.5,0.1,0.8,0.2c0.1-0.1,0.3-0.3,0.3-0.4c0.1,0.2,0.4,0.4,0.8,0.4c-0.1,0.2-0.1,0.5,0,0.7
		C315.2,152.7,315.4,152.9,315.2,153.1C315.3,152.9,315.2,152.9,315.2,153.1L315.2,153.1z"/>
	<path class="st13" d="M235.8,39.9c3.1-0.8,6.2,1.2,6.9,4.4c0.8,3.1-1.2,6.2-4.4,6.9c-3.1,0.8-6.2-1.2-6.9-4.4
		C230.7,43.7,232.6,40.6,235.8,39.9z"/>
	<path class="st17" d="M241.3,43.9c0.3,0,0.6-0.3,0.6-0.6s-0.3-0.6-0.6-0.6s-0.6,0.3-0.6,0.6C240.8,43.6,241.1,43.9,241.3,43.9z"/>
	<path class="st17" d="M239.3,40.9c0,0.3,0.3,0.6,0.6,0.6s0.6-0.3,0.6-0.6v-0.1c-0.3-0.2-0.5-0.4-0.8-0.5
		C239.5,40.6,239.3,40.8,239.3,40.9L239.3,40.9z"/>
	<path class="st17" d="M233,46.5c-0.5,0-1,0.4-1,1s0.4,1,1,1c0.5,0,1-0.4,1-1S233.5,46.5,233,46.5z"/>
	<path class="st17" d="M242.6,43.8c-0.1-0.3-0.2-0.6-0.3-0.9V43C242.3,43.4,242.4,43.6,242.6,43.8z"/>
	<path class="st17" d="M232.6,43.7c0-0.4-0.3-0.8-0.7-0.9c-0.3,0.5-0.5,1.1-0.6,1.7c0.1,0.1,0.2,0.1,0.3,0.1
		C232.1,44.7,232.6,44.3,232.6,43.7z"/>
	<path class="st17" d="M241.9,46.3c0,0.4,0.3,0.8,0.7,0.9c0.2-0.6,0.3-1.1,0.2-1.8C242.3,45.3,241.9,45.8,241.9,46.3z"/>
	<path class="st17" d="M236.3,42.5c0-0.5-0.4-1-1-1s-1,0.4-1,1s0.4,1,1,1C235.8,43.4,236.3,43.1,236.3,42.5z"/>
	<circle class="st17" cx="239.3" cy="47.8" r="0.6"/>
	<path class="st17" d="M241.5,48.1c0,0.3,0.2,0.5,0.4,0.5c0.2-0.3,0.4-0.7,0.5-1.1c-0.1-0.1-0.2-0.1-0.3-0.1
		C241.8,47.6,241.5,47.8,241.5,48.1z"/>
	<path class="st17" d="M240,50.4v0.2c0.7-0.4,1.1-0.9,1.6-1.4c-0.1,0-0.2-0.1-0.3-0.1C240.6,49,240,49.7,240,50.4z"/>
	<path class="st17" d="M231.9,46c0-0.5-0.3-0.9-0.6-1.1c-0.1,0.7-0.1,1.2,0.1,1.9c0,0.1,0.1,0.1,0.1,0.2
		C231.8,46.8,231.9,46.4,231.9,46L231.9,46z"/>
	<path class="st17" d="M234.6,40.4L234.6,40.4c-1,0.4-1.8,1.1-2.4,2c0.1,0,0.3,0.1,0.3,0.1C233.7,42.4,234.6,41.5,234.6,40.4z"/>
	<path class="st17" d="M237.4,40.7c0.5,0,1-0.3,1.1-0.8c-0.8-0.2-1.5-0.3-2.4-0.1C236.4,40.3,236.8,40.7,237.4,40.7L237.4,40.7z"/>
	<path class="st17" d="M237,49.8c-0.3,0-0.6,0.3-0.6,0.6c0,0.3,0.3,0.6,0.6,0.6s0.6-0.3,0.6-0.6C237.7,50,237.4,49.8,237,49.8z"/>
	<path class="st17" d="M235.8,50.8c-0.2,0-0.3,0.1-0.5,0.2c0.3,0.1,0.7,0.2,1,0.2C236.3,51.1,236.1,50.8,235.8,50.8z"/>
	<path class="st17" d="M233.5,49.5c-0.2,0-0.3,0.1-0.5,0.2c0.3,0.3,0.6,0.5,1,0.8c0.1-0.1,0.1-0.2,0.1-0.3
		C234.1,49.8,233.8,49.5,233.5,49.5z"/>
	<path class="st17" d="M240.3,44.5C240.4,44.5,240.4,44.4,240.3,44.5v-0.2C240.2,44.3,240.2,44.4,240.3,44.5
		C240.1,44.5,240.2,44.5,240.3,44.5z"/>
	<path class="st17" d="M241.1,42.3C241.1,42.3,241.1,42.2,241.1,42.3v-0.2C241,42.1,241,42.2,241.1,42.3L241.1,42.3z"/>
	<path class="st17" d="M242.1,44.5C242.2,44.5,242.2,44.4,242.1,44.5v-0.2C242,44.3,242,44.4,242.1,44.5
		C241.9,44.5,242,44.5,242.1,44.5z"/>
	<path class="st17" d="M237.3,41.1C237.4,41.1,237.4,41,237.3,41.1c0.1-0.2,0-0.2,0-0.2C237.2,40.9,237.2,41,237.3,41.1
		C237.2,41,237.2,41.1,237.3,41.1z"/>
	<path class="st17" d="M235.6,43.6C235.5,43.6,235.5,43.7,235.6,43.6v0.2C235.7,43.8,235.7,43.7,235.6,43.6
		C235.8,43.7,235.8,43.6,235.6,43.6z"/>
	<path class="st17" d="M234.7,47.5C234.7,47.4,234.6,47.4,234.7,47.5c-0.2-0.1-0.2,0-0.2,0C234.5,47.6,234.6,47.6,234.7,47.5
		C234.6,47.6,234.7,47.5,234.7,47.5z"/>
	<path class="st17" d="M232.4,45.8C232.4,45.9,232.5,45.9,232.4,45.8c0.2,0.1,0.2,0,0.2,0C232.6,45.7,232.5,45.7,232.4,45.8
		C232.5,45.7,232.4,45.8,232.4,45.8z"/>
	<path class="st17" d="M238.4,46.5C238.4,46.6,238.5,46.6,238.4,46.5c0.2,0.1,0.2,0,0.2,0C238.6,46.4,238.5,46.4,238.4,46.5
		C238.5,46.4,238.4,46.4,238.4,46.5z"/>
	<circle class="st17" cx="238.4" cy="44.9" r="0.1"/>
	<path class="st17" d="M239.6,49C239.5,49,239.5,49.1,239.6,49v0.2C239.7,49.2,239.7,49.1,239.6,49C239.7,49.1,239.7,49,239.6,49z"
		/>
	<path class="st17" d="M233.6,42.9C233.7,42.9,233.7,42.8,233.6,42.9c0.1-0.2,0-0.2,0-0.2C233.5,42.7,233.5,42.8,233.6,42.9
		C233.5,42.8,233.5,42.9,233.6,42.9z"/>
	<path class="st17" d="M236.5,42.7C236.6,42.7,236.6,42.6,236.5,42.7c0.1-0.2,0-0.2,0-0.2C236.4,42.5,236.4,42.6,236.5,42.7
		C236.4,42.6,236.4,42.7,236.5,42.7z"/>
	<path class="st17" d="M236.4,49.5C236.3,49.5,236.3,49.6,236.4,49.5v0.2C236.5,49.7,236.5,49.6,236.4,49.5L236.4,49.5z"/>
	<path class="st17" d="M236,47.8C235.9,47.8,235.9,47.9,236,47.8c-0.1,0.2,0,0.2,0,0.2C236.1,48,236.1,47.9,236,47.8
		C236.2,47.9,236.1,47.8,236,47.8z"/>
	<path class="st17" d="M232.7,48.6C232.6,48.6,232.6,48.7,232.7,48.6c-0.1,0.2,0,0.2,0,0.2C232.8,48.8,232.8,48.7,232.7,48.6
		C232.8,48.7,232.8,48.6,232.7,48.6z"/>
	<path class="st17" d="M238,50.8C237.9,50.8,237.9,50.9,238,50.8c-0.1,0.2,0,0.2,0,0.2C238.1,51,238.1,50.9,238,50.8
		C238.1,50.9,238.1,50.8,238,50.8z"/>
	<path class="st17" d="M238.8,42.9c0.2,0,0.3-0.1,0.3-0.3s-0.1-0.3-0.3-0.3s-0.3,0.1-0.3,0.3C238.5,42.8,238.6,42.9,238.8,42.9z"/>
	<path class="st17" d="M238.8,41.3c0.2,0,0.3-0.1,0.3-0.3s-0.1-0.3-0.3-0.3s-0.3,0.1-0.3,0.3S238.6,41.3,238.8,41.3z"/>
	<path class="st17" d="M235.3,41.3c0.2,0,0.3-0.1,0.3-0.3s-0.1-0.3-0.3-0.3S235,40.8,235,41S235.1,41.3,235.3,41.3z"/>
	<path class="st17" d="M238,49.5c0-0.2-0.1-0.3-0.3-0.3s-0.3,0.1-0.3,0.3s0.1,0.3,0.3,0.3S238,49.7,238,49.5z"/>
	<path class="st17" d="M234.7,49.8c-0.2,0-0.3,0.1-0.3,0.3c0,0.2,0.1,0.3,0.3,0.3s0.3-0.1,0.3-0.3C235,49.8,234.9,49.8,234.7,49.8z"
		/>
	<circle class="st17" cx="233.6" cy="48.9" r="0.3"/>
	<path class="st17" d="M238.8,50c-0.2,0-0.3,0.1-0.3,0.3c0,0.2,0.1,0.3,0.3,0.3s0.3-0.1,0.3-0.3C239,50.2,238.9,50,238.8,50z"/>
	<path class="st17" d="M236.6,46.2c0.2,0,0.3-0.1,0.3-0.3s-0.1-0.3-0.3-0.3s-0.3,0.1-0.3,0.3S236.4,46.2,236.6,46.2z"/>
	<path class="st17" d="M241.1,47.2c0.2,0,0.3-0.1,0.3-0.3c0-0.2-0.1-0.3-0.3-0.3s-0.3,0.1-0.3,0.3S240.9,47.2,241.1,47.2z"/>
	<path class="st17" d="M233.9,45.3c-0.2,0-0.3,0.1-0.3,0.3s0.1,0.3,0.3,0.3s0.3-0.1,0.3-0.3S234.1,45.3,233.9,45.3z"/>
	<circle class="st17" cx="232.6" cy="45" r="0.3"/>
	<path class="st13" d="M260.3,235.2c-11,5.1-18.6,12.3-16.8,15.9c1.7,3.6,12.1,2.6,23.1-2.5c11-5.1,18.6-12.3,16.8-15.9
		C281.6,229.1,271.4,230.2,260.3,235.2z M265.7,247c-9.7,4.5-18.7,5.6-20,2.6c-1.3-3.1,5.3-9.1,14.9-13.6c9.7-4.5,18.7-5.6,20-2.6
		C282,236.4,275.3,242.6,265.7,247z"/>
	<path class="st15" d="M260.3,235.2c-11,5.1-18.6,12.3-16.8,15.9c1.7,3.6,12.1,2.6,23.1-2.5c11-5.1,18.6-12.3,16.8-15.9
		C281.6,229.1,271.4,230.2,260.3,235.2z M265.7,247c-9.7,4.5-18.7,5.6-20,2.6c-1.3-3.1,5.3-9.1,14.9-13.6c9.7-4.5,18.7-5.6,20-2.6
		C282,236.4,275.3,242.6,265.7,247z"/>
	<path class="st13" d="M260.6,235.9c-8.9,4.1-15,9.8-13.7,12.6c1.3,2.9,9.6,1.9,18.5-2.2c8.9-4.1,15-9.8,13.7-12.6
		C277.7,230.8,269.5,231.7,260.6,235.9z M264.8,245c-7.8,3.6-15,4.6-16.1,2.2s4.3-7.2,12.1-10.7c7.8-3.6,15-4.6,16.1-2.2
		C278,236.6,272.6,241.4,264.8,245z"/>
	<path class="st14" d="M260.6,235.9c-8.9,4.1-15,9.8-13.7,12.6c1.3,2.9,9.6,1.9,18.5-2.2c8.9-4.1,15-9.8,13.7-12.6
		C277.7,230.8,269.5,231.7,260.6,235.9z M264.8,245c-7.8,3.6-15,4.6-16.1,2.2s4.3-7.2,12.1-10.7c7.8-3.6,15-4.6,16.1-2.2
		C278,236.6,272.6,241.4,264.8,245z"/>
	<path class="st13" d="M260.9,236.4c-7,3.3-11.8,7.7-10.8,10c1.1,2.2,7.6,1.4,14.5-1.8c7-3.3,11.8-7.7,10.8-10
		C274.3,232.5,267.8,233.1,260.9,236.4z M264.2,243.7c-6.1,2.9-11.8,3.6-12.6,1.8c-0.9-1.8,3.4-5.6,9.6-8.4
		c6.1-2.9,11.8-3.6,12.6-1.8C274.6,237,270.2,240.8,264.2,243.7z"/>
	<path class="st12" d="M260.9,236.4c-7,3.3-11.8,7.7-10.8,10c1.1,2.2,7.6,1.4,14.5-1.8c7-3.3,11.8-7.7,10.8-10
		C274.3,232.5,267.8,233.1,260.9,236.4z M264.2,243.7c-6.1,2.9-11.8,3.6-12.6,1.8c-0.9-1.8,3.4-5.6,9.6-8.4
		c6.1-2.9,11.8-3.6,12.6-1.8C274.6,237,270.2,240.8,264.2,243.7z"/>
	<ellipse class="st13" cx="263.4" cy="241.9" rx="10.5" ry="10.5"/>
	<path class="st10" d="M255.8,234.8c2.2-2.2,5.3-3.5,8.6-3.3c0.3,0,0.5,0.1,0.8,0.1c2.5,0.4,4.7,1.7,6.2,3.4
		c0.2,0.2,0.3,0.4,0.5,0.7c0.5,0.7,1,1.3,1.1,2.1c0.2,0.4,0.3,0.8,0.5,1.1c0.3,1.1,0.5,2.4,0.4,3.6v0.2c-0.1,0.3-0.1,0.6-0.1,1
		c-0.2,1.1-0.5,2-1,2.9c-0.2,0.3-0.3,0.7-0.6,1c-2,3.2-5.7,5.1-9.8,4.7c-1.1-0.1-2.3-0.4-3.3-0.9c-0.1,0-0.2-0.1-0.3-0.1
		c-1-0.5-1.9-1.1-2.7-1.8c-0.1,0-0.1-0.1-0.1-0.1c-0.9-0.8-1.5-1.7-2-2.8c-0.1-0.3-0.3-0.5-0.3-0.8c-0.1-0.2-0.2-0.5-0.3-0.7
		c-0.1-0.4-0.2-0.8-0.3-1.1c-0.3-1-0.3-2.1-0.2-3.2C253.2,238.6,254.2,236.5,255.8,234.8L255.8,234.8z"/>
	<g class="st18">
		<path class="st11" d="M272.1,247.9c-2,3.1-5.7,5-9.6,4.5c-1.1-0.1-2-0.3-3-0.8C262.8,251.4,267.8,250.9,272.1,247.9z"/>
		<path class="st11" d="M263.5,239.9c2.2-0.9,6.8-1.8,8.8-3.3c0.1,0.1,0.2,0.3,0.3,0.4c-1,0.6-2.1,1.6-3.2,2.6
			c-2.2,2-3.4,3.9-7.1,4.1C258.7,243.9,261.1,240.9,263.5,239.9L263.5,239.9z"/>
		<path class="st11" d="M257,250.4c3.3-0.4,11.3-1.8,16.7-6.1c-0.1,0.4-0.2,0.8-0.3,1.1c-3.4,1.8-9.9,5.2-15.2,5.7
			C257.7,250.9,257.3,250.7,257,250.4L257,250.4z"/>
		<path class="st11" d="M254.5,247.6c2-0.3,4.3-0.8,6.3-1.3c4.2-1.2,10.1-4.3,12.8-6.6c0.1,0.6,0.2,1.1,0.3,1.8
			c-3.4,2.2-11.6,7.3-18.4,7.5C255.1,248.6,254.8,248.1,254.5,247.6L254.5,247.6z"/>
		<path class="st11" d="M254.4,236.7c0.1-0.3,0.3-0.5,0.5-0.8c3.2-1,9.3-2.4,12.1-3.8c0.4,0.1,0.9,0.3,1.2,0.5
			C264.6,233.4,257.4,235.9,254.4,236.7z"/>
		<path class="st11" d="M253.5,238.4c2.5-0.9,6-1.4,7.5-1.4c1.7,0,6.7-2,8.5-3.4c0.1,0.1,0.3,0.2,0.4,0.3c-4.3,1.8-9.7,6.4-12.1,7.7
			c-1.5,0.9-3.4,1.5-4.7,2c-0.1-0.8-0.1-1.5-0.1-2.4C253,240.1,253.2,239.3,253.5,238.4L253.5,238.4z"/>
	</g>
	<path class="st17" d="M253.1,244.2c0.7-0.1,1.4-0.3,2.2-0.7c2.9-1,8.1-5.2,12.6-7.1c1.7-0.8,2.7-1.1,3.3-1.3
		c0.2,0.2,0.3,0.4,0.5,0.7c-0.8,0.5-2.2,1.2-4.1,2c-2.9,1.2-6,2.9-7.8,4.4c-1.3,1.1-4.9,2.6-6.4,3.2
		C253.3,245,253.2,244.6,253.1,244.2z"/>
	<path class="st17" d="M253.7,246.1c1.5-0.4,4.8-1.1,8-1.4c4.5-0.5,6.2-2.6,8.1-4.5c1-1.1,2.2-1.8,3.2-2.2c0.2,0.4,0.3,0.8,0.5,1.1
		c-1.4,1.1-3.8,3-6.9,4.4c-4.3,2-10.2,3.1-12.5,3.3C253.9,246.5,253.9,246.3,253.7,246.1z"/>
	<path class="st17" d="M256.1,249.6c2.1-0.3,6.6-1.1,11.4-3.4c2.9-1.4,5-2.6,6.4-3.4v0.2c-0.1,0.3-0.1,0.6-0.1,1
		C270.4,245.7,262.8,249.3,256.1,249.6C256.2,249.6,256.2,249.6,256.1,249.6L256.1,249.6z"/>
	<path class="st17" d="M255.8,234.8c2.2-2.2,5.3-3.5,8.6-3.3c0.3,0,0.5,0.1,0.8,0.1C262.9,232.7,258.8,234.4,255.8,234.8
		L255.8,234.8z"/>
	<path class="st17" d="M258.9,251.4c2.6-0.6,9.4-2.3,12.3-3.9c0.8-0.4,1.2-0.7,1.6-0.8c-0.2,0.3-0.3,0.7-0.6,1c-2,1-6,2.5-8.2,2.9
		c-2,0.3-3.7,0.7-4.8,1C259,251.5,258.9,251.5,258.9,251.4L258.9,251.4z"/>
	<path class="st17" d="M267.8,233.4c0,0-3.8,2.4-5.6,2.7s-3.2,0.3-3.2,0.3S264.6,233.5,267.8,233.4z"/>
	<path class="st13" d="M279.3,232.3c0.7,0.3,1.1,0.7,1.3,1.1c1.3,3.1-5.3,9.1-14.9,13.6c-9.7,4.5-18.7,5.6-20,2.6
		c-0.3-0.5-0.3-1.1,0-1.8l-2.4,1.1c-0.3,0.9-0.3,1.6,0.1,2.3c1.7,3.6,12.1,2.6,23.1-2.5s18.6-12.3,16.8-15.9c-0.3-0.7-1-1.1-1.7-1.5
		L279.3,232.3L279.3,232.3z"/>
	<path class="st15" d="M279.3,232.3c0.7,0.3,1.1,0.7,1.3,1.1c1.3,3.1-5.3,9.1-14.9,13.6c-9.7,4.5-18.7,5.6-20,2.6
		c-0.3-0.5-0.3-1.1,0-1.8l-2.4,1.1c-0.3,0.9-0.3,1.6,0.1,2.3c1.7,3.6,12.1,2.6,23.1-2.5s18.6-12.3,16.8-15.9c-0.3-0.7-1-1.1-1.7-1.5
		L279.3,232.3L279.3,232.3z"/>
	<path class="st13" d="M276.4,233.6c0.2,0.2,0.4,0.4,0.5,0.6c1.1,2.4-4.3,7.2-12.1,10.7c-7.8,3.6-15,4.6-16.1,2.2
		c-0.1-0.3-0.1-0.5-0.1-0.8l-1.9,0.9c-0.1,0.4,0,0.8,0.1,1.1c1.3,2.9,9.6,1.9,18.5-2.2s15-9.8,13.7-12.6c-0.1-0.3-0.4-0.6-0.8-0.9
		L276.4,233.6L276.4,233.6z"/>
	<path class="st14" d="M276.4,233.6c0.2,0.2,0.4,0.4,0.5,0.6c1.1,2.4-4.3,7.2-12.1,10.7c-7.8,3.6-15,4.6-16.1,2.2
		c-0.1-0.3-0.1-0.5-0.1-0.8l-1.9,0.9c-0.1,0.4,0,0.8,0.1,1.1c1.3,2.9,9.6,1.9,18.5-2.2s15-9.8,13.7-12.6c-0.1-0.3-0.4-0.6-0.8-0.9
		L276.4,233.6L276.4,233.6z"/>
	<path class="st13" d="M273.5,235c0.1,0.1,0.1,0.1,0.1,0.2c0.9,1.8-3.4,5.6-9.6,8.4s-11.8,3.6-12.6,1.8c0-0.1-0.1-0.1-0.1-0.2
		l-1.5,0.8c0,0.2,0.1,0.3,0.1,0.5c1.1,2.2,7.6,1.4,14.5-1.8c7-3.3,11.8-7.7,10.8-10c-0.1-0.1-0.1-0.3-0.3-0.4L273.5,235L273.5,235z"
		/>
	<path class="st12" d="M273.5,235c0.1,0.1,0.1,0.1,0.1,0.2c0.9,1.8-3.4,5.6-9.6,8.4s-11.8,3.6-12.6,1.8c0-0.1-0.1-0.1-0.1-0.2
		l-1.5,0.8c0,0.2,0.1,0.3,0.1,0.5c1.1,2.2,7.6,1.4,14.5-1.8c7-3.3,11.8-7.7,10.8-10c-0.1-0.1-0.1-0.3-0.3-0.4L273.5,235L273.5,235z"
		/>
	<path class="st13" d="M70.5,142.4l-2.4,1c0,0-0.4,2,0.8,3.4s2.6,1.3,2.6,1.3l1.7-3.3L70.5,142.4L70.5,142.4z"/>
	<path class="st19" d="M73.3,144.9l-1.7,3.3c0,0-1.1,0-2-0.8c-0.2-0.1-0.4-0.3-0.6-0.6c-1.1-1.3-0.8-3.4-0.8-3.4l2.4-1L73.3,144.9z"
		/>
	<path class="st16" d="M73.3,144.9l-1.7,3.3c0,0-1.1,0-2-0.8C69.4,147.4,73.3,144.9,73.3,144.9z"/>
	<path class="st13" d="M72.9,145.6l-2.2,2.5c0,0,0.5,2.1,2.6,2.2c2,0.1,2.8-1,2.8-1l0.1-2.9C76.1,146.4,72.9,145.6,72.9,145.6z"/>
	<path class="st19" d="M72.9,145.6l-2.2,2.5c0,0,0.5,2.1,2.6,2.2c2,0.1,2.8-1,2.8-1l0.1-2.9C76.1,146.4,72.9,145.6,72.9,145.6z"/>
	<path class="st13" d="M86.5,135.2c-2.9,2.9-6.6,13.8-6.5,15.2c0.2,1.4-4.1,4-4.1,4L74,132.9c0,0,3-2.6,4.2-3s3.9,2.6,6.1,0.8
		C86.6,128.9,86.5,135.2,86.5,135.2L86.5,135.2z"/>
	<path class="st14" d="M80,150.4c0.1,0.8-1.1,2-2.4,2.9c-1,0.7-1.8,1.1-1.8,1.1L74,132.9c0,0,1.3-1.1,2.7-2.1
		c0.6-0.4,1.1-0.8,1.5-0.9c1.2-0.4,3.9,2.6,6.1,0.8c0.2-0.2,0.4-0.3,0.6-0.3c0.8-0.1,1.1,1,1.3,2.2c0.2,1.2,0.1,2.6,0.1,2.6
		C83.6,138.1,79.8,148.9,80,150.4L80,150.4z"/>
	<path class="st16" d="M80,150.4c0.1,0.8-1.1,2-2.4,2.9c1.4-1.5,1.2-3,1.5-6c0.3-3.1,2.1-9.2,2.1-9.2s-0.1-2-1.8-4.7
		c-1.1-1.5-2-2.3-2.8-2.4c0.6-0.4,1.1-0.8,1.5-0.9c1.2-0.4,3.9,2.6,6.1,0.8c0.2-0.2,0.4-0.3,0.6-0.3l1.3,2.2
		c0.2,1.2,0.1,2.6,0.1,2.6C83.6,138.1,79.8,148.9,80,150.4L80,150.4z"/>
	<path class="st13" d="M70.5,142.4c0,0,15.1-16.2,17.1-17.4s3.5-0.9,3.5-0.9s2.8-0.8,3.6-0.1c0.9,0.7,0.2,1.6-1.6,4.2
		c-3.4,4.7-17.8,18.9-17.8,18.9S70.6,146.2,70.5,142.4L70.5,142.4z"/>
	<path class="st12" d="M94,127.2c-0.2,0.3-0.5,0.7-0.8,1.1c-3.4,4.7-17.8,18.9-17.8,18.9s-4.8-1-4.9-4.7c0,0,15.1-16.2,17.1-17.4
		c0.9-0.5,1.5-0.8,2.2-0.9c0.9-0.1,1.3,0,1.3,0s0.1,0,0.3-0.1c0.2-0.1,0.5-0.1,0.9-0.1c0.9-0.1,2-0.2,2.5,0.2
		C95.7,124.6,95.3,125.4,94,127.2z"/>
	<path class="st20" d="M89.1,128.1l-0.3-0.3c-0.3-0.2-0.3-0.6-0.1-0.9c0.5-0.7,1.4-1.8,1.3-2.9c0.9-0.1,1.3,0,1.3,0s0.1,0,0.3-0.1
		c0.3,1.3-1.1,3.2-1.8,3.9C89.6,128.2,89.2,128.3,89.1,128.1z"/>
	<path class="st16" d="M94,127.2c-1.3-1.3-1.5-2.6-1.5-3.3c0.9-0.1,2-0.2,2.5,0.2C95.7,124.6,95.3,125.4,94,127.2z"/>
	<g class="st18">
		<path d="M76.8,143.6v-0.2c0.2,0,0.5-0.1,0.6-0.3c0.3-0.3,0.3-0.5,0.1-0.5c-0.3-0.3-1,0.8-1.4,0.2c-0.2-0.2-0.3-0.5,0.1-1
			c0.1-0.1,0.4-0.3,0.5-0.3l0.1,0.2c-0.2,0.1-0.4,0.1-0.5,0.3c-0.2,0.3-0.3,0.5-0.1,0.5c0.3,0.3,1-0.8,1.4-0.2
			c0.2,0.2,0.2,0.5-0.1,1C77.3,143.5,77,143.6,76.8,143.6z"/>
		<path d="M78.7,140.3c0.3,0.3,0.3,0.7-0.1,1.1l-0.3,0.3l0.4,0.4l-0.2,0.2l-1.3-1.3l0.5-0.5C78,140,78.4,139.9,78.7,140.3z
			 M78.5,140.5c-0.2-0.2-0.5-0.2-0.7,0.1l-0.3,0.3l0.6,0.6l0.3-0.3C78.7,140.9,78.7,140.7,78.5,140.5z"/>
		<path d="M80.5,139.4l-0.8,0.8l0.2,0.5l-0.2,0.2l-0.8-2l0.2-0.2l2,0.8l-0.2,0.2L80.5,139.4L80.5,139.4z M80.3,139.4l-1-0.4l0.4,1
			L80.3,139.4z"/>
		<path d="M80.8,138.6c-0.4-0.4-0.4-1,0-1.4c0.2-0.2,0.5-0.3,0.8-0.3v0.3c-0.2,0-0.4,0.1-0.5,0.2c-0.3,0.3-0.3,0.8,0,1.1
			s0.8,0.3,1.1,0c0.1-0.1,0.2-0.3,0.2-0.5h0.2c0,0.3-0.1,0.5-0.3,0.8C81.9,138.9,81.2,139,80.8,138.6L80.8,138.6z"/>
		<path d="M84,136.3l0.2,0.2l-1,1l-1.3-1.3l1-1l0.2,0.2l-0.8,0.8l0.4,0.4l0.7-0.8l0.2,0.1l-0.7,0.8l0.5,0.5
			C83.3,137.1,84,136.3,84,136.3z"/>
		<path d="M85.1,134.7c0.3,0.3,0.3,0.6-0.1,1c-0.2,0.2-0.5,0.3-0.7,0.3l-0.1-0.3c0.2,0,0.4-0.1,0.5-0.3c0.2-0.2,0.2-0.4,0.1-0.6
			c-0.1-0.1-0.3-0.1-0.7,0.2l-0.3,0.3l-0.7-0.8l0.8-0.8l0.2,0.2l-0.6,0.6l0.3,0.4l0.1-0.1C84.6,134.5,84.8,134.5,85.1,134.7
			L85.1,134.7z"/>
		<path d="M85.4,132.5L85.4,132.5l0.9,1.9l-0.2,0.2l-0.7-1.7l-0.6,0.7l0.3,0.3l-0.2,0.2l-0.4-0.4L85.4,132.5L85.4,132.5z"/>
	</g>
	<path class="st16" d="M86.5,129.7l0.5-0.5c0.2-0.2,0.6-0.3,0.8-0.1l1.3,1.1c0.3,0.2,0.3,0.6,0.1,0.9l-0.5,0.5
		c-0.2,0.2-0.6,0.3-0.8,0l-1.3-1.1C86.3,130.2,86.3,129.9,86.5,129.7z"/>
	<path class="st13" d="M248.6,221.5h-28.1c-3.3,0-5.7-2.6-5.7-5.7v-9.9c0-3.3,2.6-5.7,5.7-5.7h18.7l4.6-5.8l-0.7,5.8h5.6
		c3.3,0,5.7,2.6,5.7,5.7v9.9C254.5,218.9,251.9,221.5,248.6,221.5L248.6,221.5z"/>
	<path class="st11" d="M221.9,210.3c0-1.8,1.4-3.3,3.4-3.3s3.4,1.3,3.4,3.3c0,1.9-1.4,3.3-3.4,3.3
		C223.3,213.4,221.9,212.1,221.9,210.3z M227.7,210.3c0-1.3-1.1-2.4-2.4-2.4s-2.4,1.1-2.4,2.4s1.1,2.4,2.4,2.4
		S227.7,211.7,227.7,210.3z"/>
	<path class="st11" d="M229.4,211c0-1.4,1.1-2.4,2.5-2.4s2.4,1,2.4,2.4s-1.1,2.4-2.4,2.4S229.4,212.5,229.4,211z M233.5,211
		c0-1-0.7-1.6-1.5-1.6c-1,0-1.5,0.7-1.5,1.6s0.7,1.6,1.5,1.6C232.8,212.8,233.5,212.1,233.5,211z"/>
	<path class="st11" d="M240.4,211c0,1.4-1,2.4-2.4,2.4c-0.7,0-1.2-0.3-1.6-0.8v2.4h-0.9v-6.5h0.9v0.8c0.4-0.5,1-0.8,1.7-0.8
		C239.4,208.5,240.4,209.6,240.4,211z M239.5,211c0-1-0.7-1.6-1.5-1.6c-0.9,0-1.5,0.7-1.5,1.6s0.7,1.6,1.5,1.6
		C238.8,212.8,239.5,212.1,239.5,211z"/>
	<path class="st11" d="M241.1,212.9l0.3-0.7c0.4,0.3,1.1,0.5,1.6,0.5c0.8,0,1.1-0.3,1.1-0.7c0-1.1-3.1-0.1-3.1-2
		c0-0.9,0.8-1.4,2-1.4c0.6,0,1.3,0.1,1.7,0.5l-0.4,0.7c-0.5-0.3-1-0.4-1.3-0.4c-0.8,0-1.1,0.3-1.1,0.7c0,1.1,3.1,0.2,3.1,2
		c0,0.9-0.8,1.3-2,1.3C242.2,213.4,241.4,213.1,241.1,212.9z"/>
	<path class="st11" d="M245.8,212.9c0-0.3,0.3-0.6,0.6-0.6s0.6,0.3,0.6,0.6s-0.3,0.6-0.6,0.6C246.1,213.4,245.8,213.1,245.8,212.9z
		 M246,207.1h1l-0.2,4.3h-0.7L246,207.1z"/>
	<path class="st13" d="M114.4,149.5l-6.5,1.6l-1-3.8l17.7-4.5l1,3.8l-6.5,1.6l4.1,16.6l-4.7,1.1L114.4,149.5L114.4,149.5z
		 M136,160.5c-1.9-0.5-3.5-1.3-5-2.8c-1.3-1.3-2.3-3.1-2.8-5c-0.5-2-0.5-3.9,0.1-5.7c0.5-1.8,1.5-3.4,3.1-4.7
		c1.4-1.3,3.3-2.2,5.4-2.9c2.1-0.5,4.1-0.5,6-0.1s3.5,1.3,5,2.8c1.3,1.3,2.3,3.1,2.9,5c0.6,1.9,0.5,3.9-0.1,5.7s-1.5,3.4-3.1,4.7
		c-1.4,1.3-3.3,2.2-5.4,2.8C139.9,161,137.9,161.1,136,160.5L136,160.5z M144,154.8c0.9-0.8,1.3-1.8,1.7-2.9c0.4-1.1,0.3-2.3,0-3.5
		s-0.9-2.3-1.6-3.2c-0.8-0.9-1.8-1.4-2.9-1.7c-1.1-0.3-2.2-0.3-3.4,0c-1.1,0.3-2.2,0.9-3.1,1.6c-0.9,0.8-1.3,1.8-1.7,2.9
		c-0.3,1.1-0.3,2.3,0,3.5s0.9,2.3,1.6,3.2c0.8,0.9,1.8,1.4,2.9,1.7c1.1,0.3,2.2,0.3,3.4,0C142.2,156.2,143.1,155.6,144,154.8z
		 M162,146.6l-2,3.5l1.3,5.2l-4.7,1.1l-5.2-20.3l4.7-1.1l2.4,9.5l6.6-11.8l5.2-1.3l-6.1,11.2l11.8,9l-5.5,1.3L162,146.6L162,146.6z
		 M192.8,143.3l1,3.7l-15.7,3.9l-5.2-20.3l15.4-3.9l1,3.7l-10.6,2.7l1.1,4.4l9.4-2.4l1,3.6l-9.4,2.4l1.1,4.7L192.8,143.3
		L192.8,143.3z M211.1,121.2l5.2,20.3l-3.9,1l-13.2-9.8l3.1,12.3l-4.7,1.1l-5.2-20.3l3.9-1l13.2,9.8l-3.1-12.3L211.1,121.2
		L211.1,121.2z"/>
	<path class="st13" d="M191.1,97.8c0.5-0.8,1.1-1.5,1.9-2.4c0.6-0.6,1.1-1.1,1.3-1.5c0.3-0.4,0.4-0.9,0.4-1.3c0-0.7-0.3-1.1-0.8-1.5
		c-0.5-0.3-1.1-0.5-1.9-0.5s-1.5,0.3-2.2,0.7c-0.7,0.5-1.1,1.1-1.5,1.8l-4.5-2.4c0.9-1.5,2-2.8,3.4-3.6c1.5-1,3.4-1.3,5.5-1.4
		c2.4-0.1,4.3,0.4,5.7,1.4c1.4,1.1,2.2,2.5,2.2,4.4c0,0.9-0.1,1.6-0.4,2.4c-0.3,0.7-0.6,1.2-1,1.8c-0.4,0.5-1,1-1.5,1.6
		c-0.7,0.7-1.1,1.1-1.5,1.6c-0.3,0.5-0.5,1-0.5,1.5l-5.4,0.2C190.4,99.4,190.6,98.6,191.1,97.8L191.1,97.8z M190.6,108.1
		c-0.7-0.7-1-1.4-1-2.4s0.3-1.8,1-2.4c0.7-0.7,1.4-1,2.4-1s1.8,0.3,2.5,0.9s1,1.3,1,2.4c0,1-0.3,1.8-1,2.4c-0.7,0.7-1.4,1.1-2.5,1.1
		C192,109,191.3,108.7,190.6,108.1L190.6,108.1z"/>
	<path class="st13" d="M204.3,163.1c0.5-0.5,1.1-1,2-1.4c0.6-0.3,1.1-0.7,1.3-1s0.5-0.6,0.6-1c0.1-0.5,0.1-1-0.3-1.3
		c-0.3-0.4-0.8-0.7-1.3-0.8c-0.7-0.1-1.2-0.1-1.8,0.1s-1.1,0.5-1.6,1.1l-3-2.9c1-1.1,2.2-1.7,3.5-2.1c1.3-0.4,2.9-0.3,4.6,0.1
		c1.9,0.5,3.3,1.2,4.2,2.4c1,1.1,1.1,2.4,0.8,3.9c-0.2,0.7-0.5,1.2-0.9,1.8c-0.4,0.5-0.8,0.9-1.1,1.1c-0.4,0.3-1,0.6-1.5,1
		c-0.7,0.3-1.1,0.7-1.5,1c-0.3,0.3-0.6,0.7-0.8,1.1l-4.2-1.1C203.4,164.2,203.8,163.6,204.3,163.1L204.3,163.1z M201.7,171
		c-0.4-0.7-0.5-1.3-0.3-2c0.2-0.8,0.7-1.3,1.2-1.7c0.7-0.4,1.3-0.5,2.2-0.3c0.8,0.2,1.3,0.6,1.8,1.1c0.4,0.6,0.5,1.3,0.3,2
		c-0.2,0.8-0.7,1.3-1.2,1.7c-0.7,0.4-1.3,0.5-2.2,0.3C202.8,172.1,202.1,171.7,201.7,171z"/>
	<path class="st13" d="M162,182.8c0.1-0.4,0.2-1,0.5-1.4c0.1-0.4,0.3-0.8,0.3-1c0.1-0.3,0.1-0.5-0.1-0.7c-0.1-0.3-0.3-0.5-0.6-0.5
		c-0.3-0.1-0.6,0-1,0.1s-0.7,0.4-0.9,0.8c-0.2,0.4-0.3,0.8-0.4,1.1l-2.6-0.3c0.1-0.9,0.4-1.6,1-2.4c0.5-0.8,1.3-1.2,2.2-1.7
		c1.1-0.5,2.1-0.7,3-0.5s1.5,0.8,1.8,1.6c0.2,0.4,0.3,0.8,0.3,1.1s-0.1,0.8-0.1,1c-0.1,0.3-0.2,0.7-0.4,1.1
		c-0.2,0.5-0.3,0.8-0.4,1.1c-0.1,0.3-0.1,0.5,0.1,0.8l-2.4,1.1C162,183.7,161.9,183.3,162,182.8L162,182.8z M163.8,187.7
		c-0.4-0.2-0.8-0.5-1-1s-0.2-0.9,0-1.3c0.2-0.4,0.5-0.8,1-1s1-0.2,1.3-0.1s0.8,0.5,1,1s0.2,0.9,0,1.3s-0.5,0.8-1,1
		C164.6,187.8,164.2,187.8,163.8,187.7z"/>
	<path class="st13" d="M134.5,235.4c1.6-1.1,3.8-2.4,6.4-3.4c1.8-0.8,3.3-1.5,4.3-2.2s1.7-1.4,2.1-2.5c0.6-1.3,0.5-2.7-0.3-3.9
		s-2-2.2-3.8-2.9s-3.6-0.9-5.5-0.5c-1.8,0.3-3.5,1.1-5.2,2.4l-7.8-9.6c3.3-2.6,6.9-4.3,11.1-4.9c4.1-0.6,8.6,0,13.4,1.8
		c5.4,2,9.2,4.8,11.5,8.4c2.3,3.6,2.6,7.5,0.8,11.8c-0.8,2-1.8,3.5-3.1,4.9c-1.2,1.2-2.6,2.2-3.8,3c-1.3,0.8-3,1.4-4.9,2.2
		c-2.1,0.8-3.7,1.5-4.9,2.3s-2,1.7-2.5,3.1l-12.1-4.5C131.6,238.4,132.9,236.6,134.5,235.4z M124.2,257.7c-0.9-2-0.9-4.1,0.1-6.2
		c0.9-2.2,2.3-3.6,4.3-4.5c2-0.9,4.1-0.9,6.4,0c2.2,0.9,3.8,2.2,4.7,4.1s0.9,3.9,0,6.1c-0.9,2.1-2.3,3.6-4.4,4.5c-2,1-4.2,1-6.4,0.1
		C126.7,261.2,125,259.7,124.2,257.7z"/>
	<path class="st13" d="M261.9,141.4l21-1.5l0.2-0.8c0.7-3.3,3.2-15.4,2.8-23.2c-0.1-1.5-0.3-3-0.7-4.1c-2.6-7.9-27.8-24-27.8-24
		l-1.2,9.7L271,116C266.5,126.2,261.9,141.4,261.9,141.4z"/>
	<path class="st12" d="M261.9,141.4l21-1.5l0.2-0.8c0.7-3.3,3.2-15.4,2.8-23.2c-0.1-1.5-0.3-3-0.7-4.1c-2.6-7.9-27.8-24-27.8-24
		l-1.2,9.7L271,116C266.5,126.2,261.9,141.4,261.9,141.4z"/>
	<path class="st13" d="M245,167.9c-2.6,1.8-5.3,3.7-7.8,5.6c-1.3,1-2.6,1.8-3.9,2.7s-2.6,1.7-3.7,2.4c-0.3,0.2-0.5,0.3-0.8,0.5
		c-0.3,0.1-0.4,0.2-0.3,0.2h0.3h0.1h-0.1h-0.1l-0.5,0.1l-1.1,0.2c-1.5,0.3-3.1,0.5-4.7,0.8c-3.2,0.5-6.4,1-9.8,1.7h-0.1
		c-1.6,0.4-2.6,2-2.3,3.6c0.3,1.1,1.1,2,2.2,2.2c3.4,0.9,6.7,1.3,10.1,1.6c1.7,0.2,3.4,0.3,5.2,0.3h1.3h0.8h0.2h0.1h0.2
		c0.3-0.1,0.6-0.1,0.9-0.1c0.9-0.2,1.4-0.4,2-0.6c0.5-0.2,1-0.4,1.4-0.6c1.8-0.8,3.3-1.6,4.9-2.5c1.5-0.9,3-1.8,4.4-2.7
		c2.9-1.8,5.6-3.7,8.3-5.8c2.6-2,3.1-5.7,1.1-8.3C251.1,166.6,247.6,166,245,167.9L245,167.9z"/>
	<path class="st12" d="M245,167.9c-2.6,1.8-5.3,3.7-7.8,5.6c-1.3,1-2.6,1.8-3.9,2.7s-2.6,1.7-3.7,2.4c-0.3,0.2-0.5,0.3-0.8,0.5
		c-0.3,0.1-0.4,0.2-0.3,0.2h0.3h0.1h-0.1h-0.1l-0.5,0.1l-1.1,0.2c-1.5,0.3-3.1,0.5-4.7,0.8c-3.2,0.5-6.4,1-9.8,1.7h-0.1
		c-1.6,0.4-2.6,2-2.3,3.6c0.3,1.1,1.1,2,2.2,2.2c3.4,0.9,6.7,1.3,10.1,1.6c1.7,0.2,3.4,0.3,5.2,0.3h1.3h0.8h0.2h0.1h0.2
		c0.3-0.1,0.6-0.1,0.9-0.1c0.9-0.2,1.4-0.4,2-0.6c0.5-0.2,1-0.4,1.4-0.6c1.8-0.8,3.3-1.6,4.9-2.5c1.5-0.9,3-1.8,4.4-2.7
		c2.9-1.8,5.6-3.7,8.3-5.8c2.6-2,3.1-5.7,1.1-8.3C251.1,166.6,247.6,166,245,167.9L245,167.9z"/>
	<path class="st13" d="M228.3,179.3c0,0,4.3,6.4,3.3,10.2l1.3-0.5c0,0-0.3-7.1-4.3-10L228.3,179.3L228.3,179.3z"/>
	<path class="st13" d="M211.1,182.3l-5.7,0.8l3.4,5.4c0,0,5.1-1,4.5-3.5L211.1,182.3L211.1,182.3z"/>
	<polygon class="st13" points="200.9,186.6 205.4,190.2 208.8,188.4 205.3,183.1 	"/>
	<g class="st21">
		<path class="st11" d="M211.1,182.3l-5.7,0.8l3.4,5.4c0,0,5.1-1,4.5-3.5L211.1,182.3L211.1,182.3z"/>
		<polygon class="st11" points="200.9,186.6 205.4,190.2 208.8,188.4 205.3,183.1 		"/>
	</g>
	<path class="st13" d="M211.1,182.3c0,0,2.4,2.9,0.4,5.3l0.8,0.3c0,0,3.1-2,0.1-5.8L211.1,182.3L211.1,182.3z"/>
	<path class="st22" d="M228.3,179.3c0,0,4.3,6.4,3.3,10.2l1.3-0.5c0,0-0.3-7.1-4.3-10L228.3,179.3L228.3,179.3z"/>
	<path class="st22" d="M211.1,182.3c0,0,2.4,2.9,0.4,5.3l0.8,0.3c0,0,3.1-2,0.1-5.8L211.1,182.3L211.1,182.3z"/>
	<path class="st13" d="M258.7,91l-1,5.6c0,0.3-1.1,0.9-1.5,0.9l-6.3-0.3c-0.7-0.1-1.1-0.8-1.1-1.3c0.4-2.8,0.7-4.1,1.1-7.6
		c0.3-2.2,0.6-6.4,1.3-9.3s3.6-2,3.5-0.8c-0.2,3.1,1.2,7.5,2.6,9.6C257.7,88.1,258.8,90.5,258.7,91L258.7,91z"/>
	<path class="st14" d="M259.2,91.3l-1.9,5.7c0,0.3-0.8,0.4-1.1,0.3L250,97c-0.7-0.1-1.1-0.8-1.1-1.3c0.4-2.8,0.7-4.1,1.1-7.6
		c0.3-2.2,0.6-6.4,1.3-9.3s3.6-2,3.5-0.8c-0.2,3.1,1.2,7.5,2.6,9.6C257.7,88.1,259.2,90.8,259.2,91.3L259.2,91.3z"/>
	<path class="st16" d="M283.1,139c0.7-3.3,3.2-15.4,2.8-23.2c-1.9,3.2-6.1,11.1-6.8,19.3C278.8,139.2,280.6,140.1,283.1,139
		L283.1,139z"/>
	<path class="st13" d="M263.2,144.6c0,0,1.7-12.5,14.8-14.8c0,0,9.5-12.1,21.3-24.1l-6.4-33.1l6.8-3.4c0,0,14.6,24.9,12.4,41.1
		c-2.2,16.3-26.2,39.2-26.2,39.2L263.2,144.6L263.2,144.6z"/>
	<path class="st12" d="M263.2,144.6c0,0,1.7-12.5,14.8-14.8c0,0,9.5-12.1,21.3-24.1l-6.4-33.1l6.8-3.4c0,0,14.6,24.9,12.4,41.1
		c-2.2,16.3-26.2,39.2-26.2,39.2L263.2,144.6L263.2,144.6z"/>
	<path class="st13" d="M285.1,131.7c0,2.4-1.8,4.3-4.2,4.5l-15.8,1.1c-2.1,0.1-4-1.1-4.6-3.2c-0.1-0.3-0.2-0.7-0.2-1.1v-0.3
		c0-2.4,1.8-4.3,4.2-4.5l15.8-1.1c1.5-0.1,3,0.6,3.8,1.7c0.5,0.7,0.9,1.5,1,2.5C285.1,131.5,285.1,131.6,285.1,131.7z"/>
	<path class="st10" d="M284.3,130.2c0,2.3-1.8,4.3-4.1,4.5l-15.8,1.1c-1.5,0.1-3-0.6-3.8-1.7c-0.1-0.3-0.2-0.7-0.2-1.1v-0.3
		c0-2.4,1.8-4.3,4.2-4.5l15.8-1.1c1.5-0.1,3,0.6,3.8,1.7c0.1,0.3,0.2,0.7,0.2,1.1C284.3,130,284.3,130.2,284.3,130.2z"/>
	<path class="st13" d="M287.5,150.6c0,0,0.3-7.8-8-10.6c-8.2-2.9-7.1,7.5-7.1,7.5l14.6,3.7L287.5,150.6L287.5,150.6z"/>
	<path class="st22" d="M287.5,150.6c0,0,0.3-7.8-8-10.6c-8.2-2.9-7.1,7.5-7.1,7.5l14.6,3.7L287.5,150.6L287.5,150.6z"/>
	<path class="st13" d="M277,140.7c0,0,8.3,2,10,8.7c1.6,6.8-10,21.7-14.8,24.3s-24.2,5.2-26.5,2.4c-7.9-9.6,9.1-25,14.9-28.8
		C266.4,143.6,277,140.7,277,140.7L277,140.7z"/>
	<path class="st12" d="M245.6,176.3c0.1,0.1,0.2,0.2,0.4,0.3c1.5,1,5.6,1.1,10.3,0.7c5.8-0.5,12.4-1.8,15.3-3.2
		c0.2-0.1,0.3-0.1,0.5-0.3c3.7-2,11.6-11.4,14.2-18.7c0.8-2.2,1.1-4.1,0.7-5.6c-1.6-6.8-10-8.7-10-8.7s-10.6,2.9-16.5,6.7
		C254.7,151.2,237.7,166.6,245.6,176.3z"/>
	<path class="st16" d="M246,176.6c1.5,1,5.6,1.1,10.3,0.7c9.6-10.3,4.1-18.2,4.1-18.2C252.4,158.2,246.7,169.4,246,176.6z"/>
	<path class="st13" d="M283.1,139c0,0-1.3-7.2-3.1-8c-1.6-0.9-19.2,0.8-21.4,1.5c-2.2,0.9-14.5,11.5-15.2,14.5
		c-0.8,3.1,2.9,10.8,2.9,10.8s12.5,2.5,17.7,0.4C269,155.9,281.7,142.9,283.1,139L283.1,139z"/>
	<path class="st14" d="M246.2,157.7c0,0,12.5,2.5,17.7,0.4c5.2-2.1,17.8-15.2,19.1-19.1c0,0-1.3-7.2-3.1-8.1
		c-1.6-0.9-19.2,0.8-21.4,1.5c-2.2,0.9-14.5,11.5-15.2,14.5c-0.2,0.8-0.1,1.7,0.1,2.8C244,153.1,246.2,157.7,246.2,157.7z"/>
	<path class="st10" d="M243.3,149.7c1.7,0.3,12.7,2.3,17.5,0.3c5.2-2.2,17.8-15.2,19.1-19.1c-1.6-0.9-19.2,0.8-21.4,1.5
		c-2.2,0.9-14.5,11.5-15.2,14.5C243.2,147.7,243.2,148.6,243.3,149.7z"/>
	<ellipse class="st9" cx="243.9" cy="162.6" rx="16.4" ry="16.4"/>
	<ellipse class="st12" cx="243.9" cy="162.6" rx="16.4" ry="16.4"/>
	<path class="st17" d="M249.5,177.3c8.1-3.1,12.3-12.1,9.2-20.3c-3.1-8.1-12.1-12.3-20.3-9.2c-8.1,3.1-12.3,12.1-9.2,20.3
		C232.1,176.3,241.2,180.5,249.5,177.3z"/>
	
		<ellipse transform="matrix(0.2416 -0.9704 0.9704 0.2416 30.7037 369.2233)" class="st23" cx="251.6" cy="165" rx="11.9" ry="8.8"/>
	<path class="st9" d="M246.1,170.9c0,0,3.1,3.1,4,2.2c1-0.8,2.7,1.5,4.1,0.3c1.4-1.3,4.4-5.2,2.9-8.8
		C255.8,161,246.5,165.5,246.1,170.9z"/>
	<path class="st24" d="M246.1,170.9c0,0,3.1,3.1,4,2.2c0.3-0.2,0.6-0.2,1-0.1c1,0.3,2.2,1.2,3.3,0.3c1.5-1.3,4.4-5.2,2.9-8.8
		c-0.6-1.5-2.7-1.6-4.9-0.8c-0.6,0.2-1.1,0.5-1.7,0.9c-2.2,1.3-4.2,3.5-4.5,5.9L246.1,170.9L246.1,170.9z"/>
	<path class="st17" d="M246.1,170.9c0,0,3.1,3.1,4,2.2c0.3-0.2,0.6-0.2,1-0.1c3.6-2.2,2-7.5,1.2-9.3c-0.6,0.2-1.1,0.5-1.7,0.9
		c-1.3,1.5-3.4,3.9-4.5,5.9V170.9L246.1,170.9z"/>
	<path class="st9" d="M239.5,170.6h0.3c3.2-0.1,2.3-6.4,0.8-10.1c-0.7-1.5-1.5-2.3-2.4-2.4c-1.1-0.1-2,1-2.2,2.8
		c-0.1,1.1,0.7,2.9,0.5,3.6C236.5,165.4,236.7,170.4,239.5,170.6L239.5,170.6z"/>
	<path class="st3" d="M239.5,170.6h0.3c3.2-0.1,2.3-6.4,0.8-10.1c-0.7-1.5-1.5-2.3-2.4-2.4c-1.1-0.1-2,1-2.2,2.8
		c-0.1,1.1,0.7,2.9,0.5,3.6C236.5,165.4,236.7,170.4,239.5,170.6L239.5,170.6z"/>
	<path class="st17" d="M239.5,170.6h0.3c3.2-0.1,2.3-6.4,0.8-10.1c-0.7-1.5-1.5-2.3-2.4-2.4c-0.2,0.1-0.5,0.3-0.7,0.6
		c-1.1,1.1,0,5.1,0,6.1C237.4,165.9,237.9,169.1,239.5,170.6z"/>
	<path class="st25" d="M250.8,160c1.1,4.7,2.2,7.5,0.6,10.6c-2.4,4.7-8.9,4.3-11.5,0.1c-2.4-3.9-3.9-11,0.1-14.3
		C243.9,153.1,249.7,155.2,250.8,160z"/>
	<path class="st9" d="M244.2,163.5c0.1,0.4,0,0.8-0.3,0.9c-0.3,0.1-0.5-0.2-0.7-0.5c-0.1-0.4,0-0.8,0.3-0.9
		C243.7,162.9,244,163.2,244.2,163.5z"/>
	<path class="st9" d="M239.8,164.9c0.1,0.4,0,0.8-0.3,0.9c-0.3,0.1-0.5-0.2-0.7-0.5c-0.1-0.4,0-0.8,0.3-0.9
		C239.4,164.2,239.7,164.5,239.8,164.9z"/>
	<path class="st26" d="M241.2,164.6c0,0-0.2,2.4-0.9,3.6c0.9,0.4,1.9-0.3,1.9-0.3L241.2,164.6z"/>
	<path class="st9" d="M243,161c0.1-0.1,0.1-0.1,0.3,0c0.9,0.6,1.6,0.3,1.7,0.3c0.1-0.1,0.3,0,0.3,0.1c0.1,0.1,0,0.3-0.1,0.3
		s-1.1,0.5-2.1-0.3C243,161.3,243,161.2,243,161C242.9,161.1,243,161,243,161L243,161z"/>
	<path class="st9" d="M238.5,162L238.5,162c0.2,0.1,0.3,0.2,0.2,0.3c-0.4,1.2-1.3,1.5-1.4,1.5c-0.1,0.1-0.3-0.1-0.3-0.1
		c-0.1-0.1,0.1-0.3,0.1-0.3c0.1,0,0.9-0.3,1.1-1.2C238.4,162.1,238.5,162,238.5,162L238.5,162z"/>
	<path class="st9" d="M245.8,170.4c-0.1,0.1-0.2,0.1-0.3,0.2l-2.3-1.1c0,0,0.1-0.1,0.2-0.3c0.5-0.7,1.6-2,2.6-2
		c0.1,0,0.2,0.1,0.3,0.1c0.3,0.1,0.8,0.4,1,0.8C247.8,168.6,247.6,169.4,245.8,170.4L245.8,170.4z"/>
	<path class="st11" d="M246.5,167.3l-2.7,2l-0.3-0.1c0.5-0.7,1.6-2,2.6-2C246.2,167.3,246.3,167.3,246.5,167.3z"/>
	<path class="st27" d="M245.8,170.4c-0.5-1,0.8-1.9,1.5-2.4C247.8,168.6,247.6,169.4,245.8,170.4z"/>
	<path class="st9" d="M245.4,173.1l-0.2-0.6c0.6-0.2,2.3-0.9,2.9-1.4c0.6-0.6,2-3.3,2.6-4.3l0.6,0.3c-0.1,0.1-1.9,3.6-2.6,4.4
		C247.8,172.5,245.5,173.1,245.4,173.1z"/>
	<path class="st9" d="M245.5,173.3l0.7-0.3c0.3-0.1,0.4-0.3,0.3-0.6c-0.1-0.3-0.3-0.4-0.6-0.3l-0.7,0.3c-0.3,0.1-0.4,0.3-0.3,0.6
		C244.9,173.3,245.2,173.4,245.5,173.3z"/>
	<path class="st25" d="M253.9,163.3c0,1.3-0.6,2.5-1.3,3.3c-1.1,1.1-2.6,0.3-2.9-1.2c-0.3-1.3-0.1-3.6,1.4-4.1
		C252.5,160.7,253.9,161.7,253.9,163.3L253.9,163.3z"/>
	<path class="st9" d="M240.1,158c1.4-0.5,5.3-1.1,6-0.3c0.9,0.8,2.6,10,4.5,10.5s5.2-2.6,5-5.4c-0.2-2.8-2-4.1-2-4.1
		s-0.5-7.3-8.1-6.8c-7.7,0.6-9.5,6.8-9.4,9C236.1,161,237.4,159,240.1,158L240.1,158z"/>
	<path class="st3" d="M240.1,158c1.4-0.5,5.3-1.1,6-0.3c0.9,0.8,2.6,10,4.5,10.5s5.2-2.6,5-5.4c-0.2-2.8-2-4.1-2-4.1
		s-0.5-7.3-8.1-6.8c-7.7,0.6-9.5,6.8-9.4,9C236.1,161,237.4,159,240.1,158L240.1,158z"/>
	<path class="st13" d="M234.3,148.7l1-0.3c0,0,3.7-2.6,9.6-2.9c5.8-0.2,14.5,5.2,16,15.5c0.1,0.4,0.1,0.8,0.1,1.1s0.1,0.6,0.1,1v0.1
		c0,0.5,0,0.8-0.1,1.1c-0.5,6.2-5.7,10.8-5.7,10.8c-2.9,2.9-6.7,4.1-6.7,4.1l-1.1-0.8c10.6-4.3,8.9-15.9,8.9-15.9l-3.6-6.8
		c0,0-9.6-10.9-21-4.5l-0.5-0.4C231.4,151.1,233.1,149.4,234.3,148.7L234.3,148.7z"/>
	<path class="st12" d="M231.4,151.1l0.5,0.4c11.3-6.4,21,4.5,21,4.5l3.6,6.8c0,0,1.6,11.6-8.9,15.9l1.1,0.8c0,0,1.3-0.5,3.1-1.4
		c1.1-0.7,2.5-1.5,3.6-2.8c0,0,5.2-4.7,5.7-10.8c0.1-0.3,0.1-0.7,0.1-1.1v-0.1c0-0.3,0-0.6-0.1-1c0-0.3-0.1-0.7-0.1-1.1
		c-1.4-10.3-10.1-15.7-16-15.5c-5.5,0.1-9,2.4-9.6,2.8c-0.1,0-0.1,0.1-0.1,0.1l-1,0.3C233.1,149.4,231.4,151.1,231.4,151.1
		L231.4,151.1z"/>
	<path class="st17" d="M231.4,151.1l0.5,0.4c11.3-6.4,21,4.5,21,4.5l3.6,6.8c0,0,1.6,11.6-8.9,15.9l1.1,0.8c0,0,1.3-0.5,3.1-1.4
		c2.9-2.6,7.6-10.4,5.5-14.7s-3.1-8-3.1-8s-8.5-9.3-18.8-6.7c-0.3,0.1-0.8,0.2-1.1,0.3C233.1,149.4,231.4,151.1,231.4,151.1
		L231.4,151.1z"/>
	<path class="st13" d="M253.5,155.2c1.1-0.4,2.4,0,3.5,1.1c1,0.3,1.8,1.3,2.4,2.7c0.5,1.3,0.5,2.6,0,3.5c-0.1,1.5-0.9,2.7-2,3.2
		c-1.9,0.8-4.3-1.1-5.4-3.9C250.9,158.9,251.6,156,253.5,155.2z"/>
	<path class="st14" d="M253.5,155.2c1.1-0.4,2.4,0,3.5,1.1c1,0.3,1.8,1.3,2.4,2.7c0.5,1.3,0.5,2.6,0,3.5c-0.1,1.5-0.9,2.7-2,3.2
		c-1.9,0.8-4.3-1.1-5.4-3.9C250.9,158.9,251.6,156,253.5,155.2z"/>
	<path class="st10" d="M254.5,160.8c0.8,2,2.4,3.3,3.7,2.7c1.3-0.5,1.8-2.5,1.1-4.5c-0.8-2-2.4-3.3-3.7-2.7
		C254.3,156.8,253.9,158.9,254.5,160.8z"/>
	<path class="st10" d="M231.3,155.8c1.5,0.2,2.7,0.5,3.4,0.8c1.2-1.7,2.9-3.4,5-5c0,0-1.8-0.9-5.2-0.1
		C234.5,151.5,232.4,153.3,231.3,155.8L231.3,155.8z"/>
	<path class="st10" d="M230.4,168.1c0,0,0.1-5.3,3.5-10.5c-1.1-0.5-2.1-1-3-1.2C229.6,159.4,228.5,163.7,230.4,168.1z"/>
	<path class="st13" d="M300.6,70.4l-6.7,4.3c-0.2,0.1-0.5,0.1-0.8-0.1l-3.7-5.2c-0.4-0.6-0.2-1.3,0.4-1.7c2.4-1.4,3.5-2,6.6-3.9
		c1.8-1.1,5.4-3.6,8-4.9c2.8-1.1,3.9,1.5,2.9,2.3c-2.5,1.8-5,5.7-5.7,8.1C301.3,69.9,300.9,70.2,300.6,70.4L300.6,70.4z"/>
	<path class="st14" d="M300.6,70.4l-6.7,4.3c-0.2,0.1-0.5,0.1-0.8-0.1l-3.7-5.2c-0.4-0.6-0.2-1.3,0.4-1.7c2.4-1.4,3.5-2,6.6-3.9
		c1.8-1.1,5.4-3.6,8-4.9c2.8-1.1,3.9,1.5,2.9,2.3c-2.5,1.8-5,5.7-5.7,8.1C301.3,69.9,300.9,70.2,300.6,70.4L300.6,70.4z"/>
	<polygon class="st13" points="301.3,69.8 301.6,71.2 293.1,75.5 292.6,74.3 	"/>
	<path class="st13" d="M257.3,87.5c0,0,2,6.4-1.5,10.1l1.1,0.8c0,0,4.3-4.4,1.7-10.1L257.3,87.5z"/>
	<path class="st13" d="M299,106.1l0.3-1.3c0,0,5.6-3.9,13.3,0.3v2.9C312.5,107.9,306,103.4,299,106.1z"/>
	<path class="st13" d="M284.6,110.1c0,0-7.1,9.4-13.8,6.6l-0.2-1.3c0,0,6.1,2.3,12.7-6.9L284.6,110.1z"/>
	<path class="st16" d="M271.7,174.1c0.2-0.1,0.3-0.1,0.5-0.3c3.7-2,11.6-11.4,14.2-18.7c-3.9,1.1-14,3.9-17.1,7
		C265.5,165.6,267.2,172.9,271.7,174.1L271.7,174.1z"/>
	<path class="st22" d="M257.3,87.5c0,0,2,6.4-1.5,10.1l1.1,0.8c0,0,4.3-4.4,1.7-10.1L257.3,87.5z"/>
	<path class="st22" d="M284.6,110.1c0,0-7.1,9.4-13.8,6.6l-0.2-1.3c0,0,6.1,2.3,12.7-6.9L284.6,110.1z"/>
	<polygon class="st22" points="301.3,69.8 301.6,71.2 293.1,75.5 292.6,74.3 	"/>
	<path class="st22" d="M299,106.1l0.3-1.3c0,0,5.6-3.9,13.3,0.3v2.9C312.5,107.9,306,103.4,299,106.1z"/>
	<path class="st2" d="M283.1,163.9c-0.3,0-0.7-0.2-0.9-0.5c-0.3-0.5-0.1-1.1,0.4-1.3c2.4-1.3,3.6-3.1,3.9-5.2
		c0.8-6.5-8.3-14.8-8.4-14.8c-0.4-0.4-0.5-1-0.1-1.3c0.4-0.4,1-0.5,1.3-0.1c0.4,0.4,10,9.1,9.1,16.6c-0.3,2.8-2,5-5,6.6
		C283.4,163.8,283.2,163.9,283.1,163.9L283.1,163.9z"/>
	<path class="st2" d="M281.9,167.8c-0.2,0-0.4-0.1-0.5-0.1c-0.5-0.3-0.6-1-0.3-1.3c2.7-4.1,2.5-8.5-0.5-13.2c-2.4-3.5-5.6-5.9-5.6-6
		c-0.5-0.3-0.5-1-0.2-1.3c0.3-0.4,1-0.5,1.3-0.2c0.1,0.1,14.2,10.3,6.7,21.8C282.5,167.6,282.2,167.8,281.9,167.8L281.9,167.8z"/>
	<path class="st13" d="M272.2,173.6c3.1-0.8,6.2-1.5,9.4-2.2c1.5-0.4,3.1-0.8,4.6-1.1s3.1-0.7,4.3-0.9c0.3-0.1,0.7-0.1,0.9-0.1
		c0.3-0.1,0.4-0.1,0.4-0.1c-0.1,0-0.1,0-0.3-0.1h-0.1h0.1h0.1l0.5,0.1l1.1,0.2c1.5,0.3,3.1,0.7,4.6,1.1c3.2,0.8,6.4,1.4,9.7,2h0.1
		c1.6,0.3,3.2-0.9,3.4-2.5c0.2-1.1-0.3-2.2-1.1-2.9c-2.9-2-5.7-3.7-8.7-5.3c-1.5-0.8-3.1-1.5-4.7-2.2c-0.4-0.2-0.8-0.3-1.2-0.5
		l-0.7-0.3l-0.1-0.1h-0.1l-0.2-0.1c-0.3-0.1-0.5-0.1-0.9-0.2c-0.9-0.1-1.5-0.1-2.1-0.2h-1.5c-2,0.1-3.6,0.3-5.5,0.5
		c-1.7,0.3-3.4,0.5-5.1,0.9c-3.4,0.7-6.6,1.3-9.9,2.4c-3.2,1-5,4.2-4,7.4C265.9,172.5,269,174.2,272.2,173.6L272.2,173.6
		L272.2,173.6z"/>
	<path class="st12" d="M272.2,173.6c3.1-0.8,6.2-1.5,9.4-2.2c1.5-0.4,3.1-0.8,4.6-1.1s3.1-0.7,4.3-0.9c0.3-0.1,0.7-0.1,0.9-0.1
		c0.3-0.1,0.4-0.1,0.4-0.1c-0.1,0-0.1,0-0.3-0.1h-0.1h0.1h0.1l0.5,0.1l1.1,0.2c1.5,0.3,3.1,0.7,4.6,1.1c3.2,0.8,6.4,1.4,9.7,2h0.1
		c1.6,0.3,3.2-0.9,3.4-2.5c0.2-1.1-0.3-2.2-1.1-2.9c-2.9-2-5.7-3.7-8.7-5.3c-1.5-0.8-3.1-1.5-4.7-2.2c-0.4-0.2-0.8-0.3-1.2-0.5
		l-0.7-0.3l-0.1-0.1h-0.1l-0.2-0.1c-0.3-0.1-0.5-0.1-0.9-0.2c-0.9-0.1-1.5-0.1-2.1-0.2h-1.5c-2,0.1-3.6,0.3-5.5,0.5
		c-1.7,0.3-3.4,0.5-5.1,0.9c-3.4,0.7-6.6,1.3-9.9,2.4c-3.2,1-5,4.2-4,7.4C265.9,172.5,269,174.2,272.2,173.6L272.2,173.6
		L272.2,173.6z"/>
	<path class="st13" d="M308.9,167.8l5.7-0.5l-2.2,6c0,0-5.2,0.1-5.2-2.5L308.9,167.8L308.9,167.8z"/>
	<polygon class="st13" points="319.7,169.8 316.1,174.2 312.4,173.2 314.7,167.3 	"/>
	<g class="st21">
		<path class="st11" d="M308.9,167.8l5.7-0.5l-2.2,6c0,0-5.2,0.1-5.2-2.5L308.9,167.8L308.9,167.8z"/>
		<polygon class="st11" points="319.7,169.8 316.1,174.2 312.4,173.2 314.7,167.3 		"/>
	</g>
	<path class="st13" d="M310.6,167.6c0,0-3.2,1.6-2.2,4.9l-1.3-0.1c0,0-1.5-3.2,2.9-5.4L310.6,167.6L310.6,167.6z"/>
	<path class="st13" d="M270.5,161.5c0,0-8.7,7.2,1,12.1l-1.1,0.5c0,0-5.3-0.3-5.4-6.1C264.7,162.2,270.5,161.5,270.5,161.5
		L270.5,161.5z"/>
	<path class="st13" d="M293.2,158.5c0,0-3.1,3.9-1.4,10.6l-0.8,0.1c0,0-1.8-5.5,1.3-10.8L293.2,158.5L293.2,158.5z"/>
	<path class="st22" d="M310.6,167.6c0,0-3.2,1.6-2.2,4.9l-1.3-0.1c0,0-1.5-3.2,2.9-5.4L310.6,167.6L310.6,167.6z"/>
	<path class="st22" d="M270.5,161.5c0,0-8.7,7.2,1,12.1l-1.1,0.5c0,0-5.3-0.3-5.4-6.1C264.7,162.2,270.5,161.5,270.5,161.5
		L270.5,161.5z"/>
	<path class="st22" d="M293.2,158.5c0,0-3.1,3.9-1.4,10.6l-0.8,0.1c0,0-1.8-5.5,1.3-10.8L293.2,158.5L293.2,158.5z"/>
	<path class="st13" d="M274.9,133.5l-13.3,12.7h-4.7l13.6-12.7C270.5,133.5,273.2,131.8,274.9,133.5z"/>
	<path class="st10" d="M274.9,133.5l-13.3,12.7c0,0-2.2-2.1-4.7,0l13.6-12.7C270.5,133.5,273.2,131.8,274.9,133.5z"/>
	<path class="st9" d="M260.2,134.7c-0.2,0.1-0.4,0.3-0.7,0.4c-0.5,0.2-0.9,0.3-1.2,0.3c-0.5,0-0.9-0.1-1-0.4
		c-0.1-0.4,0.1-0.9,0.7-1.2c0.2-0.1,0.5-0.3,0.8-0.5c0.4-0.1,0.8-0.3,1.1-0.3c0.5-0.1,1,0.1,1.1,0.4
		C261.1,133.7,260.8,134.2,260.2,134.7L260.2,134.7z"/>
	<path class="st11" d="M226.7,84.7l-0.1-0.3c0,0,1.5-0.3,2-1.1l0.3,0.2C228.4,84.5,226.7,84.7,226.7,84.7z"/>
	<path class="st11" d="M226.7,85.5l-0.2-0.3c0.1-0.1,2.1-1.2,4.2-1.3v0.3C228.8,84.3,226.8,85.5,226.7,85.5z"/>
	<path class="st11" d="M226.7,85.7l-0.1-0.3c2-1,3-0.5,3.1-0.5l-0.1,0.3C229.5,85.3,228.6,84.9,226.7,85.7L226.7,85.7z"/>
	<path class="st9" d="M260.2,134.7c-0.2,0.1-0.4,0.3-0.7,0.4c-0.5,0.2-0.9,0.3-1.2,0.3c-0.1-0.5-0.1-1-0.3-1.6
		c-0.4-1.8-1.1-4.1-2.9-5.7c-4.4-4.5-9.7-4.8-15.2-5.2c-5.4-0.3-10.8-0.8-15.9-4.7c-5.1-4.1-7.7-11.8-6.5-19.6
		c1.1-7,4.7-12.4,10-14.5l0.8,1.8c-4.5,1.8-7.8,6.7-8.7,13c-1.1,7.1,1.2,14.1,5.7,17.8c4.5,3.6,9.5,3.9,14.7,4.3
		c5.7,0.4,11.6,0.8,16.6,5.7c1.8,1.9,2.9,4.5,3.3,6.4C260,133.6,260.1,134.2,260.2,134.7L260.2,134.7z"/>
	<g class="st21">
		<path class="st11" d="M260.2,134.7c-0.2,0.1-0.4,0.3-0.7,0.4c-0.5,0.2-0.9,0.3-1.2,0.3c-0.1-0.5-0.1-1-0.3-1.6
			c-0.4-1.8-1.1-4.1-2.9-5.7c-4.4-4.5-9.7-4.8-15.2-5.2c-5.4-0.3-10.8-0.8-15.9-4.7c-5.1-4.1-7.7-11.8-6.5-19.6
			c1.1-7,4.7-12.4,10-14.5l0.8,1.8c-4.5,1.8-7.8,6.7-8.7,13c-1.1,7.1,1.2,14.1,5.7,17.8c4.5,3.6,9.5,3.9,14.7,4.3
			c5.7,0.4,11.6,0.8,16.6,5.7c1.8,1.9,2.9,4.5,3.3,6.4C260,133.6,260.1,134.2,260.2,134.7L260.2,134.7z"/>
	</g>
</g>
</svg>
