<svg width="35" height="35" xmlns="http://www.w3.org/2000/svg">

 <g>
  <rect fill="#d8f41f" id="canvas_background" height="37" width="37" y="-1" x="-1"/>
 </g>
 <g>
  <g stroke="null" id="svg_1">
   <path stroke="null" id="svg_2" fill="rgb(83, 4, 80)" d="m29.482208,3.80417c-0.7751,0 -1.404053,0.871785 -1.404053,1.947951c0,0.224277 0.031317,0.435892 0.082208,0.636656l-4.115599,8.489955l-5.085126,-6.787985c0.018268,-0.126608 0.027403,-0.256833 0.027403,-0.390675c0,-1.076166 -0.628953,-1.947951 -1.405358,-1.947951c-0.7751,0 -1.405358,0.871785 -1.405358,1.947951c0,0.964028 0.507599,1.758039 1.171784,1.913586l3.31962,11.573759l-3.836354,-2.615355c0.003915,-0.061495 0.013049,-0.121182 0.013049,-0.184486c0,-1.076166 -0.628953,-1.947951 -1.405358,-1.947951c-0.776405,0 -1.405358,0.871785 -1.405358,1.947951c0,0.578778 0.186598,1.092444 0.476282,1.450563l-0.745088,6.390075c-0.351013,0.094051 -0.652441,0.37078 -0.857308,0.756029l-8.118977,-3.042204c-0.104391,-0.931471 -0.681149,-1.64771 -1.383175,-1.64771c-0.7751,0.001809 -1.405358,0.873594 -1.405358,1.947951s0.628953,1.947951 1.405358,1.947951c0.307952,0 0.589807,-0.141077 0.820771,-0.372589l8.565247,3.206794c0.233574,0.627613 0.700722,1.058079 1.243553,1.058079c0.776405,0 1.405358,-0.869976 1.405358,-1.946142c0,-0.441319 -0.10961,-0.842846 -0.288379,-1.168409l0.788149,-6.760855l4.835894,3.299037c0.091342,0.949558 0.674624,1.687501 1.38709,1.687501c0.776405,0 1.405358,-0.869976 1.405358,-1.946142c0,-1.023714 -0.572843,-1.8539 -1.298358,-1.931673l-2.793753,-9.737946l4.186062,5.585211c0.155281,0.20619 0.362757,0.309285 0.580673,0.27492c0.214001,-0.032556 0.407123,-0.19172 0.525868,-0.43951l4.520112,-9.325567c0.063939,0.012661 0.129183,0.02713 0.193123,0.02713c0.776405,0 1.405358,-0.871785 1.405358,-1.947951c0,-1.076166 -0.628953,-1.947951 -1.405358,-1.947951z"/>
  </g>
  <g id="svg_3"/>
  <g id="svg_4"/>
  <g id="svg_5"/>
  <g id="svg_6"/>
  <g id="svg_7"/>
  <g id="svg_8"/>
  <g id="svg_9"/>
  <g id="svg_10"/>
  <g id="svg_11"/>
  <g id="svg_12"/>
  <g id="svg_13"/>
  <g id="svg_14"/>
  <g id="svg_15"/>
  <g id="svg_16"/>
  <g id="svg_17"/>
 </g>
</svg>